<?xml version="1.0" standalone="no"?>
<!DOCTYPE svg PUBLIC "-//W3C//DTD SVG 1.1//EN" "http://www.w3.org/Graphics/SVG/1.1/DTD/svg11.dtd" >
<svg>
<metadata>
Created by FontForge 20090622 at Wed Aug 10 11:56:19 2016
 By deploy user
Copyright (c) 2014 by Peter Wiegel.   Open Font under Terms of following Free Software Licenses:
GPL (General Public License) with font-exception and OFL (Open Font License
</metadata>
<defs>
<font id="FetteMikado" horiz-adv-x="314" >
  <font-face 
    font-family="Fette Mikado"
    font-weight="400"
    font-stretch="normal"
    units-per-em="1000"
    panose-1="0 0 0 0 0 0 0 0 0 0"
    ascent="750"
    descent="-250"
    x-height="429"
    cap-height="701"
    bbox="-60 -250.538 946 888.4"
    underline-thickness="50"
    underline-position="-50"
    unicode-range="U+0020-U+2122"
  />
<missing-glyph horiz-adv-x="172" 
 />
    <glyph glyph-name=".notdef" horiz-adv-x="172" 
 />
    <glyph glyph-name="A" unicode="A" horiz-adv-x="501" 
d="M423 724l13 -10q-34 -26 -59.5 -42.5t-50 -29t-53 -23t-68.5 -23.5l-2 -8q-3 -11 -7 -40t-8 -62t-7 -62t-3 -41q0 -18 4 -33q22 5 44 11t41 20v46.5t0.5 58.5t2 57t5.5 42q1 4 14 12.5t29.5 17t31.5 15.5t21 9q-12 -57 -19 -109.5t-9 -111.5v-9q15 4 29 12l27.5 16.5
l27.5 16.5t29 12q0 -4 -4.5 -25.5l-9.5 -47t-10 -48t-6 -29.5q-10 5 -25 13.5t-26 8.5q-6 0 -12 -0.5t-12 -0.5q12 -66 48 -123t92 -95q-11 -13 -24.5 -24t-24.5 -24q-15 -17 -27.5 -37t-28.5 -37q-20 21 -36.5 49t-29.5 59t-22 63t-13 60q-4 25 -6 48.5t-13 46.5
q-26 -2 -50 -10t-48 -17q-4 -38 -7 -78.5t-3 -78.5q0 -21 3.5 -38.5t9.5 -33.5t13.5 -32t15.5 -35q-48 2 -95 1t-95 -1q9 17 21 35t20 36q6 15 13.5 43.5t14 59.5t11 60t4.5 45q-15 0 -30 -4t-30 -6q-1 4 -1 11q0 18 11 23.5t25 8.5t26 8.5t15 22.5q4 28 10.5 56t12.5 56.5
t10 56.5t4 57v8t-2 8q-27 6 -50 10q-20 4 -38 8t-24 6q11 17 26 31.5t26 32.5q7 11 13 23t15 21q7 0 22.5 -5t36 -11t45 -11t49.5 -5q28 0 47 3t35.5 8t33.5 12.5t41 15.5z" />
    <glyph glyph-name="three" unicode="3" horiz-adv-x="304" 
d="M155 656q30 0 54 -12.5t40.5 -32.5t25.5 -46.5t9 -53.5q0 -29 -5.5 -48.5t-15 -36t-23.5 -31.5t-31 -35q22 -18 38 -32.5t26.5 -31t15.5 -37.5t5 -52q0 -37 -10 -72.5t-30 -63.5t-50.5 -45t-71.5 -17q-57 0 -89.5 32t-32.5 89q0 20 7.5 38.5t21 32.5t31 22.5t38.5 8.5
q17 0 27 -12.5t17 -25.5q-9 -2 -19 -2.5t-19 -3.5t-14.5 -10t-5.5 -21q0 -17 14.5 -28t30.5 -11q19 0 33 9t23 22.5t13 30.5t4 33q0 45 -10 67t-28 32t-43 14t-55 14q1 8 1 15.5v15.5q12 4 26.5 6t28 5t26.5 8t22 15q13 14 21.5 36t8.5 42q0 28 -16 50t-46 22
q-17 0 -31.5 -9t-14.5 -28q0 -12 4.5 -18.5t12 -9.5t17 -3.5t18.5 -0.5v-13q-11 -11 -26.5 -19.5t-32.5 -8.5q-14 0 -27 8.5t-23 21t-15.5 27.5t-5.5 28q0 28 10 51.5t27.5 40t41.5 25.5t52 9z" />
    <glyph glyph-name="B" unicode="B" horiz-adv-x="458" 
d="M32 707h177q38 0 77.5 -6t71.5 -22.5t52 -46t20 -77.5q0 -30 -8.5 -49.5t-23 -33.5t-33.5 -26t-39 -28q12 -9 26 -15t27 -15q40 -29 54.5 -74t14.5 -93q0 -53 -18 -104t-63 -83q-24 -18 -70 -25t-97.5 -8.5t-101.5 -1t-83 -2.5l-5 6q18 34 27.5 72.5t13.5 78t4.5 79
t0.5 77.5q0 49 6.5 97t6.5 96q0 35 -5 71.5t-13 71.5q-4 16 -10.5 30.5t-8.5 30.5zM157 598q-1 -114 -7 -227.5t-6 -227.5v-21q14 -1 28 -1.5t28 -0.5q32 0 62 4t53.5 16.5t37.5 36.5t14 64q0 23 -4.5 44.5t-15.5 38.5t-28.5 27t-43.5 10q-21 0 -37 -12.5t-16 -34.5
q0 -13 10 -23.5t24 -10.5q8 0 16.5 2l16.5 4l7 -7q-11 -16 -27.5 -27.5t-36.5 -11.5q-14 0 -26 7t-20.5 18.5t-13 25t-4.5 26.5q0 33 13 52.5t32 31.5t41.5 20.5t41.5 19.5t32 27.5t13 46.5q0 37 -20 53.5t-48.5 22t-60.5 5t-55 2.5z" />
    <glyph glyph-name="C" unicode="C" horiz-adv-x="409" 
d="M229 713q34 0 64 -12t52.5 -33.5t36 -50.5t13.5 -63q0 -30 -8.5 -59.5t-25.5 -53t-42.5 -38.5t-58.5 -15q-19 0 -36.5 7t-30.5 19t-21 28.5t-8 36.5q0 39 24.5 56t71.5 25q-10 -8 -14.5 -24t-4.5 -27q0 -16 12.5 -25t27.5 -9q25 0 38 20.5t13 42.5q0 41 -29 63t-67 22
q-50 0 -79 -29.5t-43 -72.5t-17.5 -91t-3.5 -85q0 -34 6.5 -72.5t22.5 -71t43.5 -54t70.5 -21.5q29 0 53 16.5t24 48.5q0 13 -4.5 21.5t-12 15.5t-16 13t-15.5 14q16 6 33 6q24 0 43 -9.5t31.5 -25.5t19.5 -37t7 -43q0 -36 -17 -70t-46 -56q-7 -5 -20.5 -11t-29.5 -11
t-30.5 -8.5t-22.5 -3.5q-44 0 -78 15.5t-58.5 41.5t-41 60t-26.5 72t-14 77t-4 74t6 83.5t18.5 98t31.5 93t45 69.5q23 22 54.5 32.5t62.5 10.5z" />
    <glyph glyph-name="D" unicode="D" horiz-adv-x="465" 
d="M139 697q24 0 48.5 7t49.5 7q63 0 104.5 -24.5t66.5 -65t35.5 -91.5t10.5 -104q0 -44 -0.5 -84.5t-5 -79.5t-15 -78t-30.5 -79l-12.5 -24.5t-12 -19.5t-15.5 -17.5t-22 -16.5q-29 -19 -64 -24.5t-69 -5.5h-198q12 20 28.5 40t24.5 41q7 18 12.5 48t9 65.5t5.5 74.5
t3 75.5t1 68v52.5q0 19 -6 39.5t-10 39.5q33 4 60.5 5.5t62.5 7.5v-13q0 -14 -5 -32t-7 -32q-5 -34 -7.5 -68t-2.5 -69v-44.5t3.5 -35t11.5 -32.5t24 -38q-27 -15 -55 -29t-48 -39q14 -7 29 -8.5t30 -1.5q46 0 77 8t51.5 26.5t32.5 48.5t20 74q5 27 8.5 54.5t3.5 55.5
q0 31 -3.5 68t-16.5 69t-37 54t-65 22q-36 0 -71 -9t-72 -9q-22 0 -43 5t-41 13q13 30 27.5 56.5t25.5 58.5q17 -2 34 -6t34 -4z" />
    <glyph glyph-name="E" unicode="E" horiz-adv-x="433" 
d="M22 707q51 -8 106 -20.5t106 -12.5q19 0 38 4.5t36 10.5l30 10.5t21 4.5q9 -32 19.5 -63t25.5 -60q-39 -14 -79 -14q-33 0 -60.5 9t-48.5 19.5t-35 19.5t-20 9q-2 0 -4 -1t-4 -1q8 -28 11.5 -58.5t4.5 -61.5t0 -62t-2 -59q24 32 49 50.5t54 18.5q6 0 18 -4t23.5 -10
t20 -13.5t8.5 -14.5q0 -8 -5 -16.5t-10 -14.5q-14 -19 -22 -38.5t-19 -39.5l-8 20t-9.5 18.5t-14 13.5t-21.5 5q-16 0 -30.5 -9.5t-22.5 -23.5q-6 -13 -10.5 -48t-6.5 -75t-3 -77.5t-1 -54.5q28 10 50 25t45.5 28t52.5 22.5t71 9.5q26 0 47 -7q-5 -15 -12 -29t-12 -29
q-8 -22 -12 -47t-9 -48q-27 15 -53.5 21t-52.5 6q-32 0 -65.5 -4.5t-67.5 -10.5l-67.5 -12.5t-64.5 -10.5q4 21 16.5 38.5t18.5 37.5q15 51 21 104.5t8 108t1 108.5t-1 107q0 38 -3 64.5t-9.5 50t-15.5 48z" />
    <glyph glyph-name="F" unicode="F" horiz-adv-x="416" 
d="M17 717q30 -4 61.5 -10l62.5 -12t62.5 -10.5t61.5 -4.5t50 10.5l46 23.5q4 -34 17 -65t28 -61q-46 -22 -92 -22q-26 0 -44.5 5.5t-35 14.5t-32.5 19.5t-37 20.5q-1 -5 -1.5 -9t-0.5 -9q0 -18 3.5 -35.5t4.5 -35.5q1 -21 -0.5 -42.5t-1.5 -42.5q0 -17 1 -34l2 -34
q12 11 22 22t21.5 19.5t25.5 13.5t32 5q26 0 49 -15t36 -38q-18 -23 -37.5 -52.5t-27.5 -58.5q-11 27 -21 43t-33 16q-26 0 -40 -18t-20 -42.5t-7 -51.5t-1 -45q0 -30 5.5 -65t19.5 -63q7 -14 14.5 -26.5t12.5 -27.5q-50 -2 -98.5 -1t-98.5 1q8 20 17 36.5t14 38.5
q10 43 14 88.5t5 92t0.5 92.5t-0.5 90q0 31 -2.5 67.5t-9.5 73.5t-20 70.5t-34 57.5z" />
    <glyph glyph-name="G" unicode="G" horiz-adv-x="431" 
d="M232 707q24 0 45 -6t41 -13.5l40.5 -15t43.5 -9.5q-26 -37 -40 -75.5t-34 -77.5q-12 15 -22 29.5t-22 26t-27 18t-37 6.5q-32 0 -53.5 -15t-35.5 -39t-22 -55t-11.5 -62.5t-4 -61.5t-0.5 -52q0 -32 4.5 -65.5t17.5 -61t37 -45t64 -17.5q24 0 43.5 9.5t33 26t20.5 38
t7 44.5q0 16 -4.5 32t-14 29t-23.5 21.5t-32 8.5q-22 0 -34 -14.5t-12 -35.5v-6.5t1 -6.5q10 11 20.5 12t18 -4.5t9 -16t-5.5 -22.5q-16 -13 -35 -13q-16 0 -27.5 8t-19.5 20.5t-12 27t-4 28.5q0 26 8.5 48.5t24.5 39t38 26t48 9.5q18 0 39 -7t42 -17.5t41 -22t35 -21.5
q-15 -24 -22 -50t-9.5 -53t-1.5 -54.5t1 -54.5q0 -31 8 -60.5t10 -58.5q-8 -2 -17 4t-17.5 13.5l-16.5 14.5t-13 7q-3 0 -12.5 -12t-26 -27t-41 -27t-56.5 -12q-67 0 -106 33.5t-59 84t-25.5 109.5t-5.5 109q0 36 3 78.5t11.5 85.5t23.5 82.5t39.5 70t60 49t83.5 18.5z" />
    <glyph glyph-name="H" unicode="H" horiz-adv-x="487" 
d="M294 697q35 4 73.5 3t74.5 -1q9 0 18.5 0.5t18.5 -1.5q-20 -38 -31.5 -83.5t-17 -94t-6.5 -96.5t-1 -90q0 -60 4.5 -129t18.5 -127q5 -20 16 -38.5t14 -39.5l-145 -1h-22.5t-22.5 2q29 61 36.5 134t7.5 141v108l-31.5 -43t-28.5 -45l-10.5 19.5t-12.5 20t-16.5 15.5
t-21.5 6q-22 0 -34 -16.5t-18 -39t-7.5 -46.5t-1.5 -39q0 -38 4.5 -80t14.5 -78q4 -14 14 -25.5t10 -26.5q0 -3 -2 -9q-38 3 -76.5 1.5t-77.5 -1.5q-13 0 -25 3q17 37 26 74.5t13.5 76.5t5 78t0.5 79l-1 211q0 29 -4 51t-9.5 41.5t-12 39.5t-10.5 46h66q28 0 58.5 1t58.5 -4
q-9 -22 -21 -41t-14 -44q-5 -53 -10.5 -105t-7.5 -106q11 8 20.5 17t21 17t26 13t34.5 5q22 0 43.5 -16t37.5 -30l-1 11q2 23 3 45.5t1 45.5q0 27 -3.5 51t-9.5 46.5t-13 45t-14 48.5z" />
    <glyph glyph-name="I" unicode="I" horiz-adv-x="210" 
d="M126 697l73 4q0 -17 -11.5 -36t-14.5 -36q-12 -67 -15 -136t-3 -137v-96.5t4 -82.5t13.5 -81.5t27.5 -92.5q-32 -3 -62 -3q-32 0 -64 1.5t-64 1.5q8 22 18 42t14 43q16 97 16.5 196.5t0.5 197.5q0 36 -3.5 62.5t-9 50.5t-12.5 49t-14 57z" />
    <glyph glyph-name="J" unicode="J" horiz-adv-x="439" 
d="M394 706q9 0 17.5 -0.5t17.5 -1.5q-6 -15 -13.5 -27t-14 -23.5t-11.5 -24.5t-7 -31q-8 -78 -11.5 -155.5t-3.5 -155.5q0 -49 9 -90t46 -78q-18 -29 -44 -53.5t-56.5 -42.5t-65 -28t-68.5 -10q-64 0 -110 34t-69 93q39 12 58.5 31.5t34.5 39t32.5 36t51.5 22.5
q-18 -20 -26 -37t-8 -44q0 -11 4.5 -23t12 -22t18.5 -16t23 -6q27 0 41.5 21t21 49.5t8 58.5t1.5 48q0 35 -2.5 69t-2.5 69q0 106 12 213l-33.5 -23t-32 -20t-34.5 -14t-41 -5q-7 0 -19 2t-24 6t-22.5 9t-15.5 10l32 61l33 60l24.5 -14.5t19 -8t20.5 -3.5t28 -1q21 0 42 4
t42 9t42 9t43 4z" />
    <glyph glyph-name="K" unicode="K" horiz-adv-x="459" 
d="M441 707q-3 -18 -11.5 -34.5t-13.5 -33.5q-14 -42 -22.5 -73t-19.5 -58.5t-28.5 -54.5t-49.5 -62q-4 -2 -7.5 -5t-3.5 -8q0 -4 1 -7q42 -35 61 -70t28 -72t14.5 -76.5t20.5 -84.5q7 -19 18 -36.5l21 -34.5l-151 -1q-9 0 -18 1t-17 6q22 33 29 74t7 79q0 16 -5 45t-15 57
t-26 48.5t-37 20.5q-27 0 -41 -8t-19.5 -21.5t-5.5 -32v-38.5q0 -36 2.5 -71.5t9.5 -70.5q5 -23 16.5 -42.5t19.5 -42.5q-48 -2 -94 -1.5t-94 -1.5q6 19 15 36.5t14 37.5q5 19 9 51.5t7 71.5t4.5 82t2.5 84t1.5 76t0.5 59q0 34 -2 71t-13 70q-5 15 -13 29t-13 29q32 2 64 3
t64 1h26.5t25.5 -1q-8 -25 -18.5 -46.5t-13.5 -48.5q-3 -23 -6 -49.5l-6 -54t-5 -54.5t-2 -49q0 -6 3 -12.5t5 -11.5q30 9 54.5 28t42 44.5t27 55.5t9.5 60q0 19 -2.5 30.5t-7 21t-10.5 19.5t-13 26q37 8 69.5 16.5t67.5 21.5q11 4 22 7.5t22 5.5z" />
    <glyph glyph-name="L" unicode="L" horiz-adv-x="416" 
d="M27 694q10 1 19.5 1h20.5h129h12t12 -1q-8 -18 -17.5 -37t-14.5 -38q-9 -38 -14 -85t-7 -95.5t-2 -96.5v-88q0 -39 -4 -78t-9 -77q23 8 44.5 18t44.5 16q16 4 33.5 7.5t32.5 11t24.5 20.5t9.5 34v8q-4 20 -30 31l3 10q42 -4 66.5 -31t24.5 -69q0 -20 -6.5 -42.5
t-16.5 -45t-22 -43.5t-23 -38q-18 6 -29.5 12t-22 10.5t-23.5 7t-34 2.5q-25 0 -48.5 -5.5t-47 -12t-46.5 -12t-47 -5.5q-16 0 -29 3q18 28 29.5 52t16.5 57q15 97 16.5 197t1.5 197q0 18 -1 38.5t-3.5 41.5t-7.5 41t-13 36l-12 23t-10 25z" />
    <glyph glyph-name="M" unicode="M" horiz-adv-x="682" 
d="M124 697q31 3 65 3q31 0 62 -1.5t63 -1.5l-16.5 -39.5t-8.5 -41.5q0 -9 3.5 -30t9.5 -47.5t13.5 -55.5t15 -55t14.5 -46t11 -28q7 13 20 49t25 77.5t21 78.5t9 52t-3.5 25.5t-8.5 20l-10 19.5t-9 22q51 2 103.5 0.5t103.5 -1.5l-20 -29.5t-12.5 -22.5t-6.5 -25t-2 -37
q0 -26 2.5 -69t7.5 -94.5t11.5 -107t14.5 -105.5t17.5 -90t19.5 -62q7 -14 16 -27.5t17 -27.5q-15 -4 -35 -4q-38 0 -77.5 0.5t-77.5 3.5l14.5 21t11.5 18t8 19.5t3 25.5l-41 418l-11 -31.5l-17.5 -51.5l-19.5 -61.5l-18.5 -61t-14 -49.5t-5.5 -27q0 -30 15 -56.5l29 -51.5
q-26 -26 -49.5 -56t-34.5 -66h-13q-6 18 -15.5 33t-20 29.5l-21 29t-19.5 30.5q4 10 11 22t13 24.5t10.5 24.5t4.5 24q0 5 -5 27l-12 52.5t-16.5 64.5l-17.5 64.5t-15 53t-10 29.5q-3 -11 -7 -50t-8.5 -92t-11.5 -112.5t-16 -112t-21.5 -91.5t-28.5 -49q-1 -1 -8 3l-16 9.5
l-17 10.5l-11 7q-18 8 -36 14.5t-35 15.5l32.5 46t27.5 49q8 20 18.5 39.5t16.5 39.5q24 79 41 164.5t17 168.5q0 23 -1.5 40.5t-5.5 33t-11.5 31t-20.5 34.5z" />
    <glyph glyph-name="N" unicode="N" horiz-adv-x="480" 
d="M101 697q31 -9 54 -28t39.5 -44.5t28 -54.5t20.5 -57q20 -61 42.5 -120t48.5 -118h10q1 32 0.5 64t-0.5 64q0 27 2 54t2 53q0 32 -3 53.5t-8 39.5t-13 37.5t-17 46.5q21 1 41.5 1.5t41.5 0.5h40t40 -2q-8 -20 -17 -38.5t-14 -39.5q-11 -50 -16 -102.5t-7 -106
t-1.5 -106.5t0.5 -104q0 -29 7 -50t15.5 -36t15.5 -24t7 -12q-22 -16 -39 -37l-34 -41q-9 -3 -18 -3q-14 0 -23 10q-3 4 -16.5 36.5l-33 80l-41.5 103.5l-41.5 106l-34 88.5t-18.5 50.5h-13q-5 -57 -4.5 -113.5t0.5 -113.5q0 -45 4 -91.5t16 -89.5q5 -17 15.5 -31.5
l20.5 -29.5q-15 -2 -30.5 -3t-30.5 -1q-30 0 -59.5 2t-59.5 2q6 13 14.5 24t13.5 24q11 29 16 75t6 95.5t0 97t-1 80.5q0 23 2 47t2 47q0 24 -2.5 40t-9 28t-19 22t-32.5 22q21 27 45.5 51t45.5 51z" />
    <glyph glyph-name="O" unicode="O" horiz-adv-x="426" 
d="M198 700q70 0 113.5 -28.5t66.5 -74.5t31 -102.5t8 -113.5q0 -34 -2 -77t-9 -87t-20 -85.5t-36 -74t-56.5 -52.5t-80.5 -20q-65 0 -104 30t-61 76.5t-29 101.5t-7 105q0 40 9 82t29 76.5t52.5 57.5t79.5 26q-31 -26 -49 -48.5t-27 -47t-11 -54t-2 -68.5q0 -31 5 -66
t19.5 -64.5t39 -49t63.5 -19.5q40 0 63.5 24t35.5 59t15.5 74.5t3.5 69.5q0 42 -6 83t-23.5 73.5t-49 52t-81.5 19.5q-21 0 -39 -6.5t-35.5 -15.5l-35 -17.5t-36.5 -11.5q19 40 25.5 72.5t18.5 54.5t38.5 34t83.5 12z" />
    <glyph glyph-name="P" unicode="P" horiz-adv-x="446" 
d="M106 692q18 0 35.5 3.5t35 8t35.5 8t36 3.5q48 0 83.5 -17.5t59.5 -47.5t36 -69.5t12 -83.5q0 -39 -10 -77t-30.5 -68t-52.5 -48.5t-76 -18.5q-43 0 -66.5 29.5t-23.5 69.5q0 14 4 29.5t12.5 29t21.5 22.5t32 9q34 1 51 -23t3 -67q-9 17 -19 23t-27 6q-14 0 -24 -11.5
t-10 -25.5q0 -21 14.5 -32.5t34.5 -11.5q26 0 42.5 14t25.5 34t12.5 43.5t3.5 43.5q0 25 -5.5 48t-17.5 40t-32 27.5t-48 10.5q-38 0 -58 -21.5t-24 -57.5q-6 -62 -9.5 -122t-3.5 -122v-68t3.5 -69.5t13 -67.5t28.5 -61q-10 -1 -20 -1h-20q-38 0 -75 1.5t-75 -0.5
q11 20 19 38.5t13 39.5q16 76 18 152l4 154q1 35 3.5 68.5t2.5 68.5q0 28 -3.5 51t-10 45t-15 43.5l-18.5 46.5q21 -3 39 -11t40 -8z" />
    <glyph glyph-name="Q" unicode="Q" horiz-adv-x="428" 
d="M192 720q64 0 107 -28t69.5 -73t37.5 -101.5t11 -113.5q0 -74 -5 -150.5t-30 -145.5q-10 -27 -28 -52l-34 -48q11 -15 25.5 -26.5t30.5 -20.5q-17 -20 -34.5 -37t-31.5 -38q-11 -19 -24 -32q-7 30 -8.5 61t-13.5 60q-14 0 -27 -1t-27 -1q-58 0 -96.5 29.5t-61.5 75.5
t-32.5 100.5t-9.5 104.5q0 25 3 57.5t11 64.5t21 59.5t34 44.5q15 12 35.5 25.5t39.5 13.5q-21 -26 -34.5 -49.5t-21 -48t-10.5 -52.5t-3 -62q0 -27 6.5 -65.5t20.5 -74t37.5 -60.5t57.5 -25q11 0 25 7q-7 20 -20 34l-26 27q26 0 45.5 -16.5t34.5 -36.5q23 15 37 39t22 52.5
t10.5 58.5t2.5 56q0 43 -5 89t-21 84t-47 62.5t-83 24.5q-29 0 -48 -5.5t-35 -14t-32 -18.5t-39 -20q5 12 10 26t11 32.5t12.5 43l15.5 57.5q23 14 56 20.5t59 6.5z" />
    <glyph glyph-name="R" unicode="R" horiz-adv-x="442" 
d="M22 706l33.5 -14t34.5 -7t35.5 3.5l35 7l34.5 7t34 3.5q22 0 47.5 -0.5t45.5 -6.5q36 -11 57.5 -33.5t33 -52.5t15 -63.5t3.5 -64.5q0 -11 -5.5 -25.5t-13.5 -28.5t-17.5 -27t-16.5 -21q-12 -13 -34.5 -22.5t-38.5 -18.5q13 -23 29 -42.5t24 -45.5q14 -42 18.5 -83.5
t16.5 -83.5q7 -24 18 -46.5t21 -45.5h-43t-50.5 0.5t-49.5 2t-41 4.5q12 19 20 33.5t12 29.5t5.5 32t1.5 40q0 22 -1 44.5t-5.5 43.5t-14 40t-26.5 36q-10 10 -19 14.5t-18 7.5t-18.5 5t-21.5 7q-11 -24 -12 -50t-1 -52q0 -17 0.5 -39.5t2 -46.5t4 -46.5t7.5 -37.5
q5 -17 15 -30t12 -31q-11 -2 -23 -2h-23q-34 0 -67.5 2t-67.5 0q6 17 15 33.5t14 34.5q10 36 15.5 94.5t7.5 122t2.5 124t0.5 101.5q0 29 -4 53t-10 46.5t-13.5 45t-15.5 49.5zM155 439q0 -12 1.5 -24.5t3.5 -24.5q25 -3 52 -3q23 0 47.5 5.5t44 18t32 32t12.5 47.5
q0 19 -5.5 36.5t-16 31.5t-26.5 22.5t-37 8.5q-33 0 -54 -13t-33 -34.5t-16.5 -48.5t-4.5 -54z" />
    <glyph glyph-name="S" unicode="S" horiz-adv-x="490" 
d="M269 703q23 0 45 -5.5t44 -13t43 -15.5t43 -14q-10 -12 -21 -23.5t-20 -24.5q-14 -20 -24.5 -42.5t-24.5 -42.5q-11 17 -23.5 33.5t-27 29.5t-32.5 21t-41 8q-27 0 -46.5 -19.5t-19.5 -46.5q0 -32 23.5 -53.5t58 -40.5t75.5 -39t75.5 -48t58 -68.5t23.5 -100.5
q0 -55 -26 -106t-73 -80q-36 -23 -72 -26t-72.5 2t-73.5 13t-75 8q-20 0 -39 -5.5t-39 -5.5q20 26 38 52.5t32 56.5q13 30 23.5 59t26.5 51.5t40.5 36.5t65.5 14q19 0 36.5 -8t31 -21t21.5 -30t8 -36q0 -22 -12.5 -38.5t-30.5 -23.5t-37.5 -3t-33.5 24q13 4 26 15t13 28
q0 20 -12.5 30.5t-32.5 10.5q-27 0 -41.5 -20.5t-14.5 -44.5t11 -43t28.5 -33t39 -21.5t43.5 -7.5q25 0 46.5 9.5t37.5 25.5t25.5 38t9.5 47q0 43 -22.5 70.5t-55.5 48t-72.5 38t-72.5 41t-55.5 57t-22.5 86.5q0 42 10 78t31 62t54 41t79 15z" />
    <glyph glyph-name="T" unicode="T" horiz-adv-x="442" 
d="M12 698q91 0 180.5 -1t180.5 -1l61 -1q-2 -20 -11 -38t-17 -37q-11 -26 -16 -54t-13 -55l-15 28t-18 28t-23.5 21t-31.5 8q-14 0 -19 -10.5t-5.5 -25t1.5 -29.5t2 -23q0 -61 -4 -122t-4 -123q0 -30 1 -64t5 -68.5t12 -67t22 -59.5q-50 -2 -94.5 -3.5t-89.5 0.5
q16 36 25.5 70t14 68t5.5 69.5t1 74.5q0 42 0.5 88.5t5.5 88.5q3 23 5.5 45t2.5 45v17.5t-3 15t-9.5 10.5t-18.5 4q-17 0 -28 -8.5t-18.5 -21.5t-12.5 -28l-9 -28q-9 10 -14 23.5t-8 27.5l-6 28t-7 26q-8 21 -19 40t-11 42z" />
    <glyph glyph-name="U" unicode="U" horiz-adv-x="485" 
d="M293 657q47 13 93.5 24.5t90.5 32.5q-2 -8 -3.5 -15t-6.5 -15q-20 -38 -29 -82.5t-11 -87.5q-3 -76 -5 -151.5t-5 -151.5q-2 -47 -10 -86t-27.5 -67t-53.5 -43.5t-88 -15.5q-51 0 -84.5 13.5t-54.5 36.5t-31.5 54t-14.5 66.5t-4 73v74.5q0 51 3.5 101t3.5 101q0 30 -2 52
t-7 42t-13.5 40.5t-21.5 47.5q31 3 62 3q32 0 64 -1.5t64 -1.5q-6 -14 -14 -27.5t-14 -27.5q-7 -16 -11.5 -45.5t-7.5 -66.5t-5 -77.5t-2.5 -79t-1 -70.5t-0.5 -52q0 -26 4.5 -49.5t16 -41.5t31.5 -29t50 -11q17 0 32.5 5.5t27.5 17.5q10 10 17 34.5t11.5 56.5t7 68.5
t3.5 70.5t1.5 62.5t0.5 44.5q0 36 -2.5 57t-8.5 37t-17 33t-28 46z" />
    <glyph glyph-name="V" unicode="V" horiz-adv-x="468" 
d="M383 705q15 -4 28 -20t23 -36t15.5 -41t5.5 -35q0 -54 -19.5 -106t-46 -103l-52.5 -102.5t-39 -104.5q-4 -14 -7.5 -28t-3.5 -29q0 -28 11.5 -51.5l23.5 -47.5q-43 -4 -88 -3t-88 1q-8 0 -15.5 1t-15.5 4q11 21 20 44.5t9 47.5q0 38 -9.5 75t-15.5 74q-8 47 -16 110
t-21 126.5t-32.5 121.5t-48.5 94q55 -2 100 -2.5t90 -0.5q-2 -10 -6.5 -24t-8.5 -28t-7 -27.5t-3 -22.5q0 -14 3.5 -45.5t9.5 -73l13 -87t14 -86t13.5 -72t10.5 -44.5q10 14 22 37t24 51t24 59t21 60t14.5 54t5.5 42q0 40 -20 67t-64 47q8 5 27.5 21.5l40.5 35l38 33
t20 14.5z" />
    <glyph glyph-name="four" unicode="4" horiz-adv-x="330" 
d="M112 609q35 8 70 18t67 29q-3 -18 -13 -48t-24.5 -65l-31 -72.5l-32.5 -72t-30.5 -62.5t-23.5 -44q-8 -14 -16.5 -25.5t-8.5 -28.5q9 1 24.5 4.5t30.5 9t26 14t11 20.5t-5.5 24t-5.5 26v7t2 7q12 30 29 58.5t28 60.5q8 23 15 45.5t20 43.5q2 -5 2 -11v-12q0 -18 -3 -36
t-4 -37q-1 -35 -3.5 -71t-2.5 -71q0 -8 1 -16t6 -15q20 -2 40 -2t40 -5l-20 -52t-15 -53q-9 0 -18 2t-18 2q-17 0 -21 -10t-4 -25q0 -22 2.5 -38t7 -30.5t11 -29.5l14.5 -34h-147q8 15 18 27.5t14 29.5q6 27 7 54.5l2 54.5l-10 10l-16 1q-30 0 -59 -6.5t-58 -11.5
q2 22 4.5 42t13.5 40q42 82 64 171.5t20 182.5z" />
    <glyph glyph-name="five" unicode="5" horiz-adv-x="301" 
d="M56 649q23 -7 45.5 -12t45.5 -5q25 0 46 6t44 11q4 -27 11 -54t21 -51l-4 -7q-8 -1 -15 -1.5t-15 -0.5q-36 0 -63.5 10.5t-58.5 29.5q-5 -21 -7.5 -42.5t-2.5 -43.5q0 -14 1 -27t3 -27q15 5 30.5 8t31.5 3q36 0 60 -19.5t37.5 -48t19 -62.5t5.5 -62q0 -38 -7 -81t-25 -80
t-48.5 -61.5t-77.5 -24.5q-26 0 -48 8.5t-39 24t-26.5 37t-9.5 47.5q0 19 6 36.5t17.5 30.5t27.5 21t37 8q15 0 29 -6t20 -20q-8 -4 -16.5 -6t-16.5 -5.5t-13 -9.5t-5 -18q0 -15 14 -25.5t28 -10.5q25 0 41.5 10.5t26.5 28t14.5 39t4.5 42.5t-6 40.5t-17.5 34.5t-28.5 24
t-40 9q-27 0 -47 -15.5t-42 -28.5q9 87 11.5 173t0.5 173z" />
    <glyph glyph-name="eight" unicode="8" horiz-adv-x="310" 
d="M167 604q21 0 42 -7.5t37.5 -21.5t27 -33t10.5 -42q0 -18 -7 -34.5t-18 -30.5h-10l-10 27t-12.5 23.5t-19 16.5t-29.5 6q-33 0 -55 -22.5t-22 -55.5q0 -29 16.5 -54.5t44.5 -35.5q8 12 16 25.5t8 28.5q0 5 -4.5 9.5t-10.5 8.5l-12 8t-9 8q3 10 9.5 17t17.5 7
q14 0 25.5 -6.5t20 -17t13 -23t4.5 -25.5q0 -14 -5.5 -25t-11.5 -20l-11.5 -18t-5.5 -18q0 -2 1 -5t2 -5l38 -37t29 -36t18 -42t6 -54q0 -32 -10 -61.5t-29 -52t-46 -36t-61 -13.5q-32 0 -58.5 12.5t-45.5 33.5t-29.5 48.5t-10.5 57.5q0 36 14.5 67.5t31.5 56.5t31.5 41.5
t14.5 21.5q0 4 -10.5 18.5t-22.5 36.5t-22.5 51t-10.5 63q0 28 9.5 53.5t26.5 44.5t41 30t54 11zM97 149q0 -29 13.5 -52.5t47.5 -23.5q31 0 47.5 23.5t16.5 52.5q0 10 -6 27.5t-15 34.5t-20.5 29.5t-23.5 12.5q-11 0 -21.5 -12.5t-19 -29.5t-14 -34.5t-5.5 -27.5z" />
    <glyph glyph-name="nine" unicode="9" horiz-adv-x="310" 
d="M144 606q49 0 77.5 -15.5t44 -42.5t21 -63t8.5 -77q2 -32 3.5 -64t1.5 -64q0 -28 -1.5 -62.5t-7 -70t-16.5 -69t-29.5 -59.5t-46 -42t-65.5 -16q-21 0 -40.5 6.5t-35.5 19t-25.5 30t-9.5 40.5q0 32 20 54t53 22q2 -8 1 -15t-1 -14q0 -16 6 -26q9 -5 18.5 -9t20.5 -4
q22 0 36 15t22 36.5t11.5 44.5t3.5 39v10.5t-1 10.5q-13 -11 -20.5 -20.5t-16 -16t-19.5 -10.5t-32 -4q-36 0 -58.5 19.5t-35 48.5t-16.5 62.5t-4 61.5q0 34 4 76.5t17.5 79.5t40 62.5t71.5 25.5zM91 386q0 -14 2 -35t8.5 -41t18.5 -34t32 -14q19 0 32 13t21 31t11.5 38
t3.5 35q0 16 -2 36.5t-9 38.5t-20.5 30t-35.5 12q-20 0 -32 -11.5t-19 -28.5t-9 -36t-2 -34z" />
    <glyph glyph-name="zero" unicode="0" horiz-adv-x="317" 
d="M166 595q54 0 83 -32.5t41.5 -79.5t14 -98.5t1.5 -90.5v-63.5t-3.5 -73.5t-12 -74.5t-25.5 -65.5t-43.5 -46.5t-66.5 -17.5q-41 0 -65.5 13.5t-39 36.5t-21 53t-10.5 63q-5 33 -6.5 66t-1.5 66v53.5t3 69.5t9.5 75t18.5 69t32 51t49 23l21.5 2t21.5 1zM93 269v-52.5
t5 -68.5t19 -59t41 -25q19 0 31.5 13.5t19.5 34.5t10 47t3.5 51.5t0 47.5t-0.5 35q0 19 0.5 51.5t-4.5 63.5t-19 54t-42 23t-41.5 -26.5t-18.5 -62.5t-4.5 -72t0.5 -55z" />
    <glyph glyph-name="one" unicode="1" horiz-adv-x="205" 
d="M141 649q6 -118 7.5 -235.5t1.5 -235.5q0 -28 2.5 -49t7.5 -40t14 -38.5l21 -43.5q-13 -1 -26 -1.5t-26 -0.5q-30 0 -59.5 1.5t-58.5 3.5q8 20 17.5 36.5t13.5 38.5q5 31 7 62t2 63v34v49t-0.5 55.5t-2 54t-4 45t-5.5 28.5q-7 17 -18.5 31t-24.5 27q21 16 43 31t40 33
q12 12 22 27.5t26 23.5z" />
    <glyph glyph-name="two" unicode="2" horiz-adv-x="301" 
d="M134 650q42 0 71 -15.5t46 -42t24.5 -60.5t7.5 -70q0 -2 -4 -16.5l-9 -31.5t-10 -32l-6 -18q-12 -26 -38 -58.5l-52 -66.5t-46.5 -67t-21.5 -60q31 7 56.5 16t58.5 9q21 0 41.5 -5t38.5 -16l-12 -14.5l-14 -17.5t-13 -17.5t-8 -15.5q-2 -6 -3 -12l-2 -11.5t-3.5 -11
t-8.5 -9.5q-25 14 -51.5 24.5t-55.5 10.5q-17 0 -31 -3.5t-26.5 -9l-25 -11.5t-27.5 -11q0 52 15 96.5t36.5 84t46.5 74.5t46.5 68.5t36 66.5t14.5 69q0 13 -5.5 26t-14.5 23t-21 16t-25 6q-20 0 -35 -11t-15 -33q0 -23 16.5 -29.5t35.5 -6.5l12 -1q-4 -22 -16.5 -35.5
t-35.5 -13.5q-26 0 -43.5 11.5t-27.5 30t-14 41t-4 43.5q0 25 10 46t27 37t39 25t46 9z" />
    <glyph glyph-name="six" unicode="6" horiz-adv-x="308" 
d="M178 602q20 0 39 -6.5t33.5 -19t23.5 -30t9 -39.5q0 -21 -5.5 -32t-20.5 -26q-11 -11 -21 -10.5t-23 -3.5q-2 8 -0.5 15.5t1.5 15.5q0 20 -14.5 27t-31.5 7q-25 0 -39.5 -14.5t-22 -35.5t-9.5 -44.5t-2 -42.5l1 -23q13 11 21.5 21t17 17.5t20 11.5t31.5 4q36 0 58 -20.5
t34 -50.5t16 -64t4 -60q0 -38 -3 -80.5t-17.5 -78.5t-43 -59.5t-79.5 -23.5q-48 0 -76 24.5t-42 61.5t-18 79.5t-4 78.5q0 30 -2 60.5t-2 60.5q0 43 5 92t22.5 91t50.5 69.5t89 27.5zM92 175q0 -17 3.5 -35.5t12 -34t22.5 -25.5t34 -10q21 0 32.5 12.5t17.5 30.5t7.5 38.5
t1.5 35.5q0 16 -2 36t-9 38t-20 30t-35 12q-19 0 -31.5 -15t-20 -35.5t-10.5 -42t-3 -35.5z" />
    <glyph glyph-name="seven" unicode="7" horiz-adv-x="294" 
d="M284 595q-12 -49 -31 -101l-38 -104.5t-32.5 -104.5t-13.5 -101q0 -26 2.5 -42.5t7.5 -30t12.5 -27.5t17.5 -36q-36 -8 -66 -30t-50 -52h-14q-7 25 -10 50.5t-3 51.5q0 50 9.5 93t23.5 81.5t31.5 74l33 70t28 69t16.5 71.5q-26 -6 -43.5 -14.5l-34.5 -16t-38 -13
t-54 -5.5h-14t-14 1q16 26 25.5 55t20.5 58q29 -8 58 -13t59 -5q29 0 55.5 9t55.5 12z" />
    <glyph glyph-name="b" unicode="b" horiz-adv-x="334" 
d="M123 650l7 -1q1 -2 2 -19t2 -41.5t2 -53.5l2 -56t2 -48t2 -30q11 11 19.5 20.5t17.5 17t20.5 11.5t29.5 4q22 0 39 -13t28 -32.5t16.5 -41.5t5.5 -41q0 -26 2.5 -52.5t2.5 -52.5q0 -36 -3.5 -75.5t-17.5 -72.5t-41.5 -54t-74.5 -21q-36 0 -60.5 11.5t-39 32t-20.5 48.5
t-6 60v46t-0.5 67l-1 77t-2 75.5t-4 63t-5.5 38.5q-5 14 -17 29.5t-20 28.5q23 10 43.5 22t38.5 29l14 14.5t17 9.5zM183 354q-30 -15 -38 -44t-8 -59v-41t4.5 -49t15.5 -41.5t34 -17.5q25 0 37 19t16 45.5t3 54t-1 44.5q0 12 -2 27.5t-8 29.5t-16 23.5t-26 9.5
q-3 0 -5.5 -0.5t-5.5 -0.5z" />
    <glyph glyph-name="c" unicode="c" horiz-adv-x="279" 
d="M141 451q26 0 50 -7t50 -9q-1 -28 0.5 -55.5t1.5 -55.5v-15l-38 35t-47 17q-27 0 -41.5 -16.5t-22 -40t-9 -50t-1.5 -45.5q0 -15 3.5 -35.5t12 -37.5t22.5 -28.5t35 -8.5q3 -1 10 -1q19 0 34 14t15 34q0 8 -7.5 22l-11.5 22q16 -1 29.5 -9t23 -20.5t14.5 -28t5 -30.5
q0 -25 -10.5 -44.5t-27.5 -33t-38.5 -21t-44.5 -7.5q-47 0 -74 21t-41 53.5t-18 71.5t-4 75q0 33 3.5 73.5t16.5 76.5t39 60t71 24z" />
    <glyph glyph-name="d" unicode="d" horiz-adv-x="316" 
d="M276 649l1 -73q0 -87 -2.5 -172t-2.5 -171q0 -36 0.5 -64t3.5 -53.5t10 -52t20 -60.5q-13 -1 -25.5 -1.5t-25.5 -0.5q-34 0 -46 1.5t-14.5 7.5t-1 18t-5.5 33q-10 -10 -17 -20.5t-15 -19.5t-18.5 -14.5t-28.5 -5.5q-37 0 -57 24.5t-29.5 59t-11 71.5t-1.5 63t2.5 65
t12.5 75t31 62t57 26q25 0 43.5 -19t39.5 -45q0 16 1 37.5t1 37.5q0 32 -2.5 51t-7.5 31t-13 21.5l-19 23.5q17 7 35.5 13t32.5 17l24.5 19.5t27.5 14.5zM141 347q-18 0 -28.5 -17t-16 -40t-6.5 -48t-1 -40q0 -14 1 -32t6 -33.5t15.5 -26.5t28.5 -11q19 0 30 15t16.5 36
t6.5 42.5t1 34.5v31q0 12 -2.5 27.5t-9 29t-16.5 23t-25 9.5z" />
    <glyph glyph-name="e" unicode="e" horiz-adv-x="274" 
d="M143 445q32 0 55 -10.5t37.5 -29.5t21.5 -44t7 -54q0 -26 -5.5 -49t-18.5 -40t-33 -27.5t-48 -10.5q-22 0 -37 7.5l-34 16.5q-2 -6 -3 -12.5t-1 -12.5q0 -16 6 -31.5t16.5 -27.5t24.5 -19.5t31 -7.5q21 0 30 6.5t12 16.5t4 22.5t5 24.5q23 -8 37 -26t14 -43
q0 -24 -11 -42.5t-28 -31.5t-38.5 -19.5t-43.5 -6.5q-45 0 -71.5 23t-40 57t-17.5 74t-4 73q0 35 3.5 74.5t16.5 72.5t39.5 55t73.5 22zM85 293q0 -25 17.5 -42t42.5 -17q22 0 35.5 18t13.5 38q0 25 -15.5 41.5t-41.5 16.5q-20 0 -36 -18t-16 -37z" />
    <glyph glyph-name="f" unicode="f" horiz-adv-x="210" 
d="M139 647q34 0 60.5 -18.5t26.5 -56.5q0 -26 -11.5 -44t-40.5 -21q-1 6 -1 13.5t-1.5 15t-5.5 12.5t-13 5q-11 0 -16.5 -6t-8 -14t-3 -18t-0.5 -17q0 -9 -0.5 -20.5t1 -22t6 -17.5t14.5 -7q17 0 29.5 10.5t26.5 17.5q1 -12 1 -24v-24q0 -24 -1 -47.5t-3 -47.5
q-5 7 -10.5 20t-12.5 26t-15 22.5t-18 9.5q-8 0 -11 -5t-4 -12q-3 -23 -4 -52t-1 -59.5t0.5 -61t0.5 -54.5t1 -41t4 -32t9.5 -30.5t17.5 -36.5q-8 -5 -17 -6.5t-19 -1.5q-25 0 -55.5 -1t-54.5 6q8 18 18.5 36.5t13.5 38.5q5 37 5.5 75.5t-0.5 77t-1.5 77t1.5 76.5
q-4 2 -10 3.5t-12 4t-10 6.5t-4 10q0 8 5 11.5t11 6t11 6.5t6 13q2 17 1.5 32.5t-0.5 32.5q0 25 3.5 48.5t13.5 42.5t28.5 30.5t48.5 11.5z" />
    <glyph glyph-name="g" unicode="g" horiz-adv-x="319" 
d="M116 440q12 0 21.5 -5t18 -13t15.5 -17t15 -17q4 11 6 23t5 24q16 -5 29.5 -14t26.5 -19l26.5 -19.5t29.5 -15.5l-20.5 -25t-11.5 -29q-6 -75 -5.5 -149.5t0.5 -149.5q0 -40 -4.5 -77.5t-20 -66.5t-45 -46.5t-79.5 -17.5q-19 0 -39 6.5t-36 18.5t-26.5 29.5t-10.5 38.5
q0 25 17 46.5t44 21.5q11 0 20.5 -3t18.5 -8q-13 -7 -13.5 -15.5t6 -15.5t16.5 -11.5t19 -4.5q20 0 31.5 19t17.5 44.5t7.5 52t1.5 40.5q-17 -18 -27 -31t-19.5 -21.5t-20.5 -12.5t-30 -4q-23 0 -38.5 12t-25.5 31.5t-15.5 43.5t-7.5 48.5t-2.5 47t-0.5 38.5q0 28 2 66.5
t12 73t31.5 59t60.5 24.5zM90 170q0 -11 2.5 -25t8.5 -26.5t15.5 -21t23.5 -8.5q21 0 32 17t16 40t5.5 47t0.5 38t-2 33t-8 36t-17.5 28.5t-30.5 11.5q-21 0 -31 -21t-13.5 -49.5t-2.5 -56.5t1 -43z" />
    <glyph glyph-name="h" unicode="h" horiz-adv-x="339" 
d="M16 581q29 11 55.5 29.5t59.5 51.5q1 -15 0.5 -39.5t-0.5 -40.5q0 -29 -2 -58t-2 -58v-41t4 -41q13 11 21.5 20.5t17.5 17t20.5 12t32.5 4.5q28 0 44.5 -15.5t25.5 -41t11.5 -56.5t2 -62.5t-2.5 -59.5t-2 -46q0 -28 1.5 -46t4.5 -33.5t8 -32l13 -42.5q-23 -3 -45 -3
q-23 0 -45.5 1.5t-45.5 1.5q24 51 27.5 109t3.5 114q0 13 -0.5 32t-4.5 37t-14 30.5t-28 12.5l-9 -1q-18 -9 -27 -34t-12.5 -54.5t-3.5 -59v-47.5q0 -20 1 -39t4 -38q2 -16 9.5 -29.5t9.5 -28.5q-25 -2 -49.5 -3.5t-49.5 -1.5h-20t-20 1q15 25 24.5 52.5t10.5 56.5l4 165
t2 165q0 24 -1 41t-4.5 32t-10.5 30t-19 36z" />
    <glyph glyph-name="i" unicode="i" horiz-adv-x="163" 
d="M86 624q21 0 34.5 -14t13.5 -34q0 -23 -14 -37t-37 -14q-19 0 -31.5 15.5t-12.5 33.5q0 20 13.5 35t33.5 15zM128 446l1 -21l-4 -158t-2 -158q0 -29 11 -54.5t19 -51.5q-18 -1 -36 -1.5t-36 -0.5q-17 0 -35 0.5t-36 1.5q8 17 16.5 32.5t11.5 35.5q8 51 9.5 102t1.5 103
q0 25 -12 46.5t-21 44.5l21 10t20 11q17 10 31 26t40 32z" />
    <glyph glyph-name="j" unicode="j" horiz-adv-x="141" 
d="M86 619q20 0 32 -16.5t12 -34.5t-14 -31.5t-31 -13.5q-19 0 -34 12t-15 32t15 36t35 16zM124 432q3 -36 3 -71q0 -82 -1.5 -163t-1.5 -163q0 -20 1 -45t-0.5 -51.5t-6 -52t-15 -45.5t-29.5 -32.5t-48 -12.5q-35 0 -60.5 19.5t-25.5 57.5q0 26 13 39.5t33 26.5
q3 -5 5.5 -12t5.5 -14.5t7.5 -12.5t11.5 -5q10 0 16 5.5t8.5 14t3.5 17.5t1 17q2 59 3 117t1 117q0 29 1 52t-2 44t-12 41t-29 44q16 8 32 13.5t30 16.5t26 22t29 16z" />
    <glyph glyph-name="k" unicode="k" horiz-adv-x="346" 
d="M119 653q6 -45 6 -91q0 -38 -2 -75t-2 -75q0 -39 1.5 -86.5t3.5 -86.5q9 17 21 36t22 38t17 35.5t7 27.5q0 25 -13 49q18 2 35.5 1t35.5 -1q15 0 30.5 2t30.5 2h9t9 -1q-13 -17 -29.5 -30.5t-29.5 -30.5q-18 -24 -35 -49t-35 -49q14 -50 38 -96.5t44 -94.5q9 -23 24 -41
t29 -37q-12 -1 -24 -1h-24q-23 0 -47 0.5t-48 0.5q2 13 5.5 25.5t3.5 25.5q0 10 -6 28t-14 37t-16.5 36.5l-13.5 27.5q-23 -20 -27.5 -42.5t-4.5 -45.5q0 -14 1.5 -25t4.5 -21t7 -20l9 -23q-32 -2 -64 -2.5t-73 1.5q18 20 26.5 50.5t9.5 56.5q2 71 3.5 141.5t1.5 141.5
q0 29 -3 57.5t-5 57.5q-2 23 -10 37t-18 34q16 8 33 17.5t31 19.5q14 9 24 18.5z" />
    <glyph glyph-name="l" unicode="l" horiz-adv-x="167" 
d="M130 646q2 -12 3 -24t1 -24q0 -69 -3 -137t-3 -137q0 -57 -0.5 -114.5t2.5 -114.5q2 -24 12 -48t15 -47h-147q5 17 14.5 32.5t14.5 32.5q13 46 13 101.5v103.5q0 34 2 74.5t-0.5 80.5t-11 77.5t-29.5 65.5q14 8 28 14.5t27 15.5q16 11 30 25.5t32 22.5z" />
    <glyph glyph-name="m" unicode="m" horiz-adv-x="512" 
d="M222 432q16 0 27.5 -7t19.5 -17.5t14 -23l12 -24.5h10q14 26 35 48.5t55 22.5q30 0 45.5 -17t22.5 -41.5t8 -52t1 -47.5q0 -24 -2 -48t-2 -48v-32t0.5 -35t3 -35t7.5 -31q5 -13 11 -21t11 -22l-66 -1q-19 0 -37 1t-37 4q15 30 22.5 60.5t10 61.5t2 63t-0.5 65
q0 10 -1.5 23t-6.5 25t-13.5 20t-21.5 8q-23 0 -35 -19.5t-17.5 -46t-6.5 -54t-1 -42.5q0 -29 3 -56t5 -55q2 -18 7 -30t10 -29q-10 -1 -19.5 -1.5t-19.5 -0.5q-23 0 -44.5 1.5t-44.5 3.5q6 15 13 27t9 29q5 57 6.5 115t1.5 116q0 6 -3 13.5t-7.5 14.5t-11 12t-12.5 5
q-28 0 -42 -20t-19.5 -48t-5.5 -58v-49q0 -23 1 -45.5t1 -45.5q0 -19 8.5 -35t13.5 -33q-22 0 -44 -0.5t-44 -0.5h-22t-22 1l17.5 32.5t10.5 35.5q6 48 6.5 97t0.5 97q0 33 -6 55t-23 50q28 13 52.5 31t50.5 34l9 -61l20 21t21 20t23.5 14.5t29.5 5.5z" />
    <glyph glyph-name="n" unicode="n" horiz-adv-x="343" 
d="M135 374l18 21.5t18.5 18.5t21.5 13t28 5q26 0 48 -16t30 -42q5 -16 6.5 -48.5t1.5 -68.5t-1 -70t-1 -53q0 -34 6 -69.5t24 -64.5q-13 -5 -24.5 -5h-21.5q-24 0 -47.5 1.5t-47.5 3.5q8 19 15.5 34.5t9.5 36.5q5 49 4.5 106t-0.5 106q0 9 -2 20t-7 20.5t-12.5 15.5
t-19.5 6q-24 0 -35.5 -24.5t-16 -56.5t-4 -65t0.5 -49q0 -24 1 -42t4 -35t9 -34t16 -39q-40 -1 -77.5 -4.5t-69.5 7.5l20.5 31.5t11.5 36.5q4 42 6 82t2 82v42t-3 27t-9 25.5t-18 37.5q7 4 23 14l33.5 20t33 18t20.5 9q2 -14 2.5 -27t2.5 -27z" />
    <glyph glyph-name="o" unicode="o" horiz-adv-x="278" 
d="M155 450q44 0 67.5 -23t34 -57t12 -73t1.5 -70q0 -39 -2.5 -79.5t-15.5 -73.5t-40.5 -54t-77.5 -21q-42 0 -66.5 19t-37 48.5t-15.5 65t-3 67.5q0 43 0.5 87.5t13 81t42 59.5t87.5 23zM88 221q0 -13 1 -33.5t6 -40t15.5 -33.5t29.5 -14t30 12t16 29t6.5 35.5t1.5 32.5
t-0.5 37.5t-5 46.5t-16 40t-32.5 17q-22 0 -32.5 -14.5t-15 -35t-4.5 -42.5v-37z" />
    <glyph glyph-name="p" unicode="p" 
d="M208 427q36 0 55.5 -20.5t28.5 -50t10.5 -63t1.5 -58.5q0 -18 -0.5 -43.5t-3 -54t-8 -56.5t-17 -50.5t-29 -36.5t-43.5 -14q-50 0 -84 78v-17t-0.5 -22t-0.5 -21.5v-16.5q0 -25 1.5 -38t6 -22.5t11 -20l17.5 -29.5q-8 -5 -23.5 -15.5l-33 -21.5l-33.5 -21t-23 -14l-1 100
q0 85 2 169t2 169q0 31 -7 62t-27 55q29 18 55 39.5t58 34.5q1 -14 1.5 -28.5t0.5 -31.5l11.5 21.5t14.5 19t22.5 13.5t34.5 5zM180 334q-23 0 -35 -16t-17.5 -38.5t-6 -46t-0.5 -39.5q0 -12 1.5 -33t7 -41t16.5 -34.5t30 -14.5q21 0 31.5 21.5t14.5 50t3.5 56.5t-0.5 42
q0 12 -1 28t-5.5 30.5t-13.5 24.5t-25 10z" />
    <glyph glyph-name="q" unicode="q" horiz-adv-x="313" 
d="M108 424q16 0 25.5 -3.5t17 -9.5t15 -14.5t18.5 -19.5q3 11 5 22.5t7 22.5q10 -3 17.5 -9.5t15.5 -14.5q16 -16 35.5 -24.5t38.5 -19.5q-19 -26 -27.5 -54t-11 -57.5t-1.5 -60t1 -60.5q0 -15 -0.5 -46.5t0.5 -65t3 -62.5t8 -40q5 -11 13 -20.5t13 -20.5
q-12 -6 -27.5 -16.5l-32 -21t-31.5 -18.5t-25 -8l-1 44q0 45 2 90t3 90q-11 -6 -20 -15t-18.5 -16.5t-20 -13t-24.5 -5.5q-36 0 -55.5 23t-28.5 55t-10.5 67.5t-1.5 61.5q0 27 0.5 67.5t9 79t29 66t59.5 27.5zM131 326q-18 0 -27 -14.5t-13 -34t-4.5 -40t-0.5 -32.5v-37.5
t4.5 -43.5t15.5 -36t33 -15q19 0 29.5 15t16 36t6.5 42.5t1 35.5q0 18 -1 39.5t-7 40t-18.5 31.5t-34.5 13z" />
    <glyph glyph-name="r" unicode="r" horiz-adv-x="282" 
d="M204 438q18 0 31 -8.5t21.5 -22t12.5 -29.5t4 -31q0 -16 -3.5 -32t-11.5 -29t-21 -21t-31 -8q-21 0 -38 11q21 1 32.5 13t12.5 25t-10 24t-34 11q-21 0 -30.5 -26t-12.5 -60t-2 -67t1 -47q0 -23 2 -40t6.5 -32.5t11.5 -31.5l16 -37q-45 2 -79.5 0.5t-67.5 -1.5
q21 42 27.5 87t6.5 91q0 28 -1 55.5t-1 55.5q0 25 -7.5 43t-27.5 35q31 11 56 31.5l50 40.5l13 -71q19 33 33.5 52t40.5 19z" />
    <glyph glyph-name="s" unicode="s" horiz-adv-x="290" 
d="M240 430q8 0 15 1t14 4q-3 -15 -8.5 -29.5t-12 -28.5l-13 -28.5t-9.5 -29.5l-20 15.5t-15.5 11t-17 6.5t-25.5 2q-14 0 -29 -9.5t-15 -24.5q0 -17 13 -27.5t32.5 -19.5l42.5 -19.5t42.5 -26.5t32.5 -41t13 -63q0 -34 -10.5 -59t-29.5 -41t-46 -23.5t-59 -7.5q-23 0 -45 7
t-39.5 20.5t-28.5 33t-11 44.5q0 31 15.5 53t49.5 22q7 0 14 -0.5t14 -1.5q-10 -8 -14.5 -19t-4.5 -23q0 -9 5.5 -15.5t13.5 -10t17 -5.5t16 -2q12 0 24 1t21 5.5t15 13.5t6 24q0 19 -13 32t-32.5 23.5t-42 21t-42 25t-32.5 36.5t-13 54q0 56 25.5 86t83.5 30q27 0 52 -8.5
t51 -8.5z" />
    <glyph glyph-name="t" unicode="t" horiz-adv-x="222" 
d="M20 535q29 11 52.5 28.5t46.5 36.5q9 -33 6.5 -67.5t-2.5 -68.5q0 -13 4 -22t19 -9q18 0 30.5 11.5l25.5 22.5l-3 -149h-10l-7 22t-10 25.5t-14.5 21t-20.5 8.5q-7 0 -11 -8.5t-4 -14.5v-245q0 -9 2.5 -19.5t14.5 -10.5t18.5 4t9.5 10.5t4 15l2 17.5q17 -16 25 -28.5
t8 -36.5q0 -37 -21.5 -57t-57.5 -20q-32 0 -49.5 13t-26 33.5t-10 46t-1.5 49.5q0 62 0.5 122.5t4.5 122.5q-11 5 -20.5 10t-20.5 10q5 14 17 21.5t25 12.5v10q0 22 -7.5 42.5t-18.5 39.5z" />
    <glyph glyph-name="u" unicode="u" horiz-adv-x="329" 
d="M68 413q13 8 24.5 18t27.5 12q3 -12 3 -25q0 -61 -6 -121.5t-6 -121.5q0 -9 1.5 -22t5.5 -25t11.5 -21t19.5 -9q18 0 29.5 12t19 30.5t10.5 42t4.5 46.5t1 43t-0.5 32q0 17 -7.5 33.5t-16.5 30.5q28 15 51.5 35t49.5 37q5 -8 7 -16.5t2 -17.5q0 -73 -6 -146.5t-6 -147.5
q0 -29 10.5 -59t26.5 -54q-32 -1 -58 -0.5t-52 2.5q-8 8 -8 18.5v20.5l-1 9q-17 -20 -40 -38t-51 -18q-27 0 -43.5 14.5t-25 37t-11 51.5t-2.5 57.5t2 54.5t2 43q0 21 -0.5 36t-2.5 28t-7.5 27t-15.5 33l31 16t27 22z" />
    <glyph glyph-name="v" unicode="v" horiz-adv-x="327" 
d="M259 443q13 0 23 -11.5t17 -27.5t11 -33t4 -27q0 -37 -17 -74t-37 -73t-37 -70.5t-17 -66.5q0 -3 2 -11t5 -17t5.5 -18t3.5 -15q-34 3 -65.5 3h-63.5q3 8 10.5 25.5t7.5 25.5q0 9 -4.5 34t-11 57t-15 68.5l-16.5 69t-15 57l-10 34.5q-5 15 -15 27.5t-16 26.5q11 1 21 1.5
t21 0.5q21 0 42 -1t42 -1q-4 -14 -7 -28.5t-3 -28.5q0 -11 6.5 -41.5l14.5 -65t16.5 -66.5t12.5 -45h11q7 16 15 36.5t15 42t11 42.5t4 39t-6.5 30t-14 19.5l-14 13.5t-6.5 12q0 2 9.5 11t21.5 19t23.5 18t15.5 8z" />
    <glyph glyph-name="w" unicode="w" horiz-adv-x="498" 
d="M437 442l25 -28t15 -22.5t7 -26t2 -37.5q0 -35 -12 -67t-26 -63.5t-26 -63.5t-12 -66q0 -19 7 -36t12 -35q-32 0 -62.5 1.5t-62.5 1.5q3 14 5 29t2 29q0 15 -6.5 40.5t-15.5 52.5t-19 52t-17 38q-7 -10 -15 -34t-14.5 -51t-11 -52.5t-4.5 -37.5q0 -17 5.5 -33t8.5 -33
q-26 2 -52.5 0.5t-52.5 -1.5h-14t-14 1q7 16 12 32t5 33q0 5 -0.5 10t-1.5 10q-16 70 -29.5 140t-33.5 139q-6 19 -15.5 34.5t-17.5 33.5q33 0 66.5 -2t66.5 -2q-4 -17 -7.5 -34t-3.5 -34t3.5 -41t9 -49l11 -48.5t10.5 -41.5h10q16 45 30 94t14 97q0 16 -7.5 29.5
t-12.5 27.5q5 1 9 1.5t9 0.5q26 0 54.5 -0.5t53.5 -4.5q-5 -16 -13 -32t-8 -33t7 -46.5t17.5 -61t22.5 -60t21 -42.5q8 11 14.5 28.5t11.5 37t7.5 38t2.5 32.5q0 17 -8 31t-17 25t-17 18t-8 10t11 13.5t25 22.5l27 22.5t17 13.5z" />
    <glyph glyph-name="x" unicode="x" horiz-adv-x="343" 
d="M28 428q5 1 10.5 1h10.5q25 0 49 -3t49 -1q1 -12 2 -26.5t3 -28t7.5 -25t17.5 -19.5q17 24 23 44t-3 55q17 0 40 0.5t40 0.5h17t17 -1q-11 -14 -27.5 -39t-32.5 -53t-27 -55t-11 -44q0 -13 10.5 -40.5t25 -57.5t29.5 -57t23 -38l30 -41l-27 -1q-26 0 -52.5 2t-53.5 2
q0 9 1.5 18t1.5 18q0 7 -3.5 19.5t-9.5 27.5t-13 30t-13 26q-5 -9 -11 -21.5l-12 -26t-10 -26.5t-4 -23q0 -11 1.5 -22.5t3.5 -22.5h-122q10 14 29.5 46.5l39.5 68.5t35 68.5t15 47.5q0 8 -13.5 36l-30.5 60.5l-33 61.5t-22 39z" />
    <glyph glyph-name="y" unicode="y" horiz-adv-x="346" 
d="M208 374l43 38.5t47 32.5q14 -20 25 -42.5t11 -47.5q0 -16 -9.5 -54t-24 -88t-33 -105.5l-36.5 -105.5t-34 -88.5t-25 -53.5q-31 -51 -92 -51q-10 0 -18 4q1 26 5 51t4 51q44 5 68.5 26t24.5 69q0 9 -7.5 37t-19 65l-25.5 79l-27 79.5l-24 66.5t-16 40q-8 15 -18 28
t-18 27h153q-8 -16 -15 -32.5t-7 -34.5q0 -5 4.5 -22t12 -40.5l16 -50l16.5 -50.5l14.5 -43t9.5 -27l8 17l22.5 77.5t11.5 79.5q0 19 -16.5 38t-30.5 30z" />
    <glyph glyph-name="z" unicode="z" horiz-adv-x="304" 
d="M36 429q32 -12 64.5 -16.5t66.5 -4.5q30 0 54 7.5t53 10.5q-14 -34 -35.5 -75.5l-43.5 -84.5t-40 -84.5t-25 -75.5q18 -3 41.5 -2t43.5 1q6 0 12 1.5t11 6.5q15 15 5 44q31 -14 40.5 -30t9.5 -50q0 -18 -7 -33t-19 -26t-27.5 -17.5t-33.5 -6.5q-17 0 -32.5 3.5t-31 8
t-31.5 8.5t-32 4q-20 0 -36 -9.5t-34 -14.5q12 31 29.5 70.5l37 80.5l39 79.5l35.5 68.5q0 5 1 9t1 9q0 7 -6 10q-5 5 -15 5q-27 0 -44.5 -6t-38.5 -23v10q0 31 -3.5 61.5t-8.5 60.5z" />
    <glyph glyph-name="W" unicode="W" horiz-adv-x="671" 
d="M597 702q13 -4 24.5 -19.5t20.5 -34.5t14 -38.5t5 -31.5q0 -61 -19 -117t-41.5 -112t-41.5 -113.5t-19 -120.5q0 -19 3.5 -32.5t8.5 -25.5t12 -24.5t13 -28.5q-27 -2 -53.5 -3.5t-53.5 -1.5q-19 0 -37 1t-37 4q2 7 6 18t7.5 23t6 23.5t2.5 17.5q0 7 -4 26.5t-10.5 44.5
t-14.5 53l-15.5 52.5t-14 42t-10.5 22.5q-9 -14 -20.5 -47t-21 -70.5t-16 -72t-6.5 -51.5q0 -18 10 -42t18 -40q-48 -3 -96 -3q-47 0 -93 3q14 31 24 57.5t10 61.5q0 20 -5.5 59.5t-14.5 88.5t-20 103.5t-23 103t-23 86.5t-20 56q-9 19 -20 35.5l-22 34.5q51 3 102 3t102 -3
l-14 -27.5t-10 -23t-6 -24.5t-2 -32q0 -13 3.5 -40t9 -62t12.5 -72.5t14.5 -71.5t14.5 -59.5t13 -36.5q9 33 19 64.5t18 63.5t13.5 64.5t5.5 66.5q0 15 -5 27t-12.5 22t-16.5 19.5t-16 21.5l22.5 26.5l30 35.5l29 33t19.5 18q18 -32 42 -58.5l47 -54.5l-19.5 -24.5
t-17.5 -26.5q-1 -7 -1.5 -13.5t-0.5 -13.5q0 -21 9 -60.5t22 -83l25.5 -83.5t20.5 -62l21.5 66t21 69.5t15.5 66.5t6 56q0 38 -19 70t-49 53q7 6 24 22.5t36.5 33.5t36 30t21.5 12z" />
    <glyph glyph-name="X" unicode="X" horiz-adv-x="512" 
d="M320 694q17 4 35 5.5t35 1.5q25 0 49 -1.5t49 -1.5q-11 -25 -25 -46.5t-24 -47.5q-19 -51 -44 -96.5t-55 -90.5q-6 -9 -13 -21t-7 -23q0 -3 8 -22l20 -47l26.5 -60.5l28 -61.5l23.5 -51t13 -28q13 -23 33 -52l35 -51q-60 3 -109.5 3.5t-98.5 0.5q7 16 17 33t10 35
t-9 49.5t-22.5 65.5t-28.5 63.5t-27 42.5q-30 -39 -49 -90.5t-19 -101.5q0 -26 8.5 -49.5t15.5 -47.5h-185q19 30 35.5 62.5t31.5 65.5l30.5 66t32.5 65q14 26 32.5 51.5t28.5 52.5q2 4 2 8v7q0 23 -12.5 43.5t-21.5 40.5q-10 21 -24 43t-31.5 42.5t-38 37t-42.5 25.5
q28 10 49 22.5t39 25l34 23.5t36 18q11 -64 38 -132.5t60 -124.5q27 42 42 78.5t15 74.5q0 29 -8 49z" />
    <glyph glyph-name="Y" unicode="Y" horiz-adv-x="510" 
d="M10 694q51 3 101 3.5t101 0.5q-9 -20 -15.5 -40.5t-6.5 -41.5q0 -18 10.5 -50t25 -67t29.5 -67l23 -50q35 82 46 160.5t13 155.5q15 -2 36.5 -9.5l45 -16.5t45 -18.5t36.5 -15.5q-30 -25 -62.5 -77t-59.5 -112.5t-44.5 -119t-17.5 -97.5q0 -44 2.5 -71t8 -50t15 -47.5
l23.5 -63.5q-47 0 -93.5 1.5t-93.5 -1.5q8 27 18.5 50.5t13.5 52.5q3 35 5.5 70.5t2.5 70.5q0 16 -9.5 46.5t-24 68.5t-33 79.5l-36.5 79t-34 67t-26 44.5q-11 17 -23 32t-22 33z" />
    <glyph glyph-name="Z" unicode="Z" horiz-adv-x="450" 
d="M109 694q28 -12 58.5 -17.5t61.5 -5.5q26 0 51.5 3.5t51.5 8t52 8t53 3.5q-13 -28 -27.5 -53.5t-25.5 -54.5q-16 -45 -37 -87t-40 -85l-40 -91l-40 -91l-30 -68.5t-25 -69.5q27 8 46 18t38 18.5t41 14.5t54 6q47 0 89 -18l-26 -42t-24 -44q-7 -15 -11 -30.5t-11 -30.5
l-33 14t-27 9.5t-28 5.5t-37 2q-27 0 -54 -4t-54 -9t-54 -9t-55 -4h-16q44 78 82 161t71 166l24 59.5t26 58.5q13 26 28 53t25 54q5 11 9.5 25.5t4.5 26.5q-20 -6 -39.5 -14.5t-39 -16t-39.5 -13t-42 -5.5q-17 0 -34.5 4.5t-31.5 14.5q18 30 29.5 63.5t25.5 65.5z" />
    <glyph glyph-name="space" unicode=" " horiz-adv-x="172" 
 />
    <glyph glyph-name="dieresis" unicode="&#xa8;" horiz-adv-x="276" 
d="M197 624q21 0 34.5 -14t13.5 -34q0 -23 -14 -37t-37 -14q-19 0 -31.5 15.5t-12.5 33.5q0 20 13.5 35t33.5 15zM86 624q21 0 34.5 -14t13.5 -34q0 -23 -14 -37t-37 -14q-19 0 -31.5 15.5t-12.5 33.5q0 20 13.5 35t33.5 15z" />
    <glyph glyph-name="adieresis" unicode="&#xe4;" 
d="M151 442q45 0 69 -15t34.5 -40t12 -57.5t1.5 -66.5q0 -26 0.5 -63t4.5 -75t13 -72.5t25 -54.5q-35 1 -61 1.5t-51 2.5q-3 11 -4 22t-3 22q-14 -12 -22.5 -21.5t-18 -16.5t-22 -10.5t-33.5 -3.5q-25 0 -41.5 10t-26.5 26.5t-14 37t-4 41.5q0 49 19 73t46.5 37t57.5 22.5
t53 29.5q5 13 5 24q0 50 -51 50q-13 0 -26 -5.5t-13 -21.5q0 -8 3 -15t5 -15h-19q-29 0 -46.5 16t-17.5 47q0 26 11.5 43.5t29.5 28t40 15t44 4.5zM100 126q0 -16 8 -26t25 -10q16 0 27.5 7.5t18.5 19t10 25.5t3 28q0 24 -4 43q-15 -3 -31 -10.5t-28.5 -19t-20.5 -26
t-8 -31.5zM212 624q21 0 34.5 -14t13.5 -34q0 -23 -14 -37t-37 -14q-19 0 -31.5 15.5t-12.5 33.5q0 20 13.5 35t33.5 15zM101 624q21 0 34.5 -14t13.5 -34q0 -23 -14 -37t-37 -14q-19 0 -31.5 15.5t-12.5 33.5q0 20 13.5 35t33.5 15z" />
    <glyph glyph-name="edieresis" unicode="&#xeb;" horiz-adv-x="274" 
d="M143 445q32 0 55 -10.5t37.5 -29.5t21.5 -44t7 -54q0 -26 -5.5 -49t-18.5 -40t-33 -27.5t-48 -10.5q-22 0 -37 7.5l-34 16.5q-2 -6 -3 -12.5t-1 -12.5q0 -16 6 -31.5t16.5 -27.5t24.5 -19.5t31 -7.5q21 0 30 6.5t12 16.5t4 22.5t5 24.5q23 -8 37 -26t14 -43
q0 -24 -11 -42.5t-28 -31.5t-38.5 -19.5t-43.5 -6.5q-45 0 -71.5 23t-40 57t-17.5 74t-4 73q0 35 3.5 74.5t16.5 72.5t39.5 55t73.5 22zM85 293q0 -25 17.5 -42t42.5 -17q22 0 35.5 18t13.5 38q0 25 -15.5 41.5t-41.5 16.5q-20 0 -36 -18t-16 -37zM192 624q21 0 34.5 -14
t13.5 -34q0 -23 -14 -37t-37 -14q-19 0 -31.5 15.5t-12.5 33.5q0 20 13.5 35t33.5 15zM81 624q21 0 34.5 -14t13.5 -34q0 -23 -14 -37t-37 -14q-19 0 -31.5 15.5t-12.5 33.5q0 20 13.5 35t33.5 15z" />
    <glyph glyph-name="odieresis" unicode="&#xf6;" horiz-adv-x="278" 
d="M155 450q44 0 67.5 -23t34 -57t12 -73t1.5 -70q0 -39 -2.5 -79.5t-15.5 -73.5t-40.5 -54t-77.5 -21q-42 0 -66.5 19t-37 48.5t-15.5 65t-3 67.5q0 43 0.5 87.5t13 81t42 59.5t87.5 23zM88 221q0 -13 1 -33.5t6 -40t15.5 -33.5t29.5 -14t30 12t16 29t6.5 35.5t1.5 32.5
t-0.5 37.5t-5 46.5t-16 40t-32.5 17q-22 0 -32.5 -14.5t-15 -35t-4.5 -42.5v-37zM194 624q21 0 34.5 -14t13.5 -34q0 -23 -14 -37t-37 -14q-19 0 -31.5 15.5t-12.5 33.5q0 20 13.5 35t33.5 15zM83 624q21 0 34.5 -14t13.5 -34q0 -23 -14 -37t-37 -14q-19 0 -31.5 15.5
t-12.5 33.5q0 20 13.5 35t33.5 15z" />
    <glyph glyph-name="udieresis" unicode="&#xfc;" horiz-adv-x="329" 
d="M68 413q13 8 24.5 18t27.5 12q3 -12 3 -25q0 -61 -6 -121.5t-6 -121.5q0 -9 1.5 -22t5.5 -25t11.5 -21t19.5 -9q18 0 29.5 12t19 30.5t10.5 42t4.5 46.5t1 43t-0.5 32q0 17 -7.5 33.5t-16.5 30.5q28 15 51.5 35t49.5 37q5 -8 7 -16.5t2 -17.5q0 -73 -6 -146.5t-6 -147.5
q0 -29 10.5 -59t26.5 -54q-32 -1 -58 -0.5t-52 2.5q-8 8 -8 18.5v20.5l-1 9q-17 -20 -40 -38t-51 -18q-27 0 -43.5 14.5t-25 37t-11 51.5t-2.5 57.5t2 54.5t2 43q0 21 -0.5 36t-2.5 28t-7.5 27t-15.5 33l31 16t27 22zM219 624q21 0 34.5 -14t13.5 -34q0 -23 -14 -37t-37 -14
q-19 0 -31.5 15.5t-12.5 33.5q0 20 13.5 35t33.5 15zM108 624q21 0 34.5 -14t13.5 -34q0 -23 -14 -37t-37 -14q-19 0 -31.5 15.5t-12.5 33.5q0 20 13.5 35t33.5 15z" />
    <glyph glyph-name="ydieresis" unicode="&#xff;" horiz-adv-x="346" 
d="M208 374l43 38.5t47 32.5q14 -20 25 -42.5t11 -47.5q0 -16 -9.5 -54t-24 -88t-33 -105.5l-36.5 -105.5t-34 -88.5t-25 -53.5q-31 -51 -92 -51q-10 0 -18 4q1 26 5 51t4 51q44 5 68.5 26t24.5 69q0 9 -7.5 37t-19 65l-25.5 79l-27 79.5l-24 66.5t-16 40q-8 15 -18 28
t-18 27h153q-8 -16 -15 -32.5t-7 -34.5q0 -5 4.5 -22t12 -40.5l16 -50l16.5 -50.5l14.5 -43t9.5 -27l8 17l22.5 77.5t11.5 79.5q0 19 -16.5 38t-30.5 30zM254 593q21 0 34.5 -14t13.5 -34q0 -23 -14 -37t-37 -14q-19 0 -31.5 15.5t-12.5 33.5q0 20 13.5 35t33.5 15zM143 593
q21 0 34.5 -14t13.5 -34q0 -23 -14 -37t-37 -14q-19 0 -31.5 15.5t-12.5 33.5q0 20 13.5 35t33.5 15z" />
    <glyph glyph-name="Adieresis" unicode="&#xc4;" horiz-adv-x="501" 
d="M423 724l13 -10q-34 -26 -59.5 -42.5t-50 -29t-53 -23t-68.5 -23.5l-2 -8q-3 -11 -7 -40t-8 -62t-7 -62t-3 -41q0 -18 4 -33q22 5 44 11t41 20v46.5t0.5 58.5t2 57t5.5 42q1 4 14 12.5t29.5 17t31.5 15.5t21 9q-12 -57 -19 -109.5t-9 -111.5v-9q15 4 29 12l27.5 16.5
l27.5 16.5t29 12q0 -4 -4.5 -25.5l-9.5 -47t-10 -48t-6 -29.5q-10 5 -25 13.5t-26 8.5q-6 0 -12 -0.5t-12 -0.5q12 -66 48 -123t92 -95q-11 -13 -24.5 -24t-24.5 -24q-15 -17 -27.5 -37t-28.5 -37q-20 21 -36.5 49t-29.5 59t-22 63t-13 60q-4 25 -6 48.5t-13 46.5
q-26 -2 -50 -10t-48 -17q-4 -38 -7 -78.5t-3 -78.5q0 -21 3.5 -38.5t9.5 -33.5t13.5 -32t15.5 -35q-48 2 -95 1t-95 -1q9 17 21 35t20 36q6 15 13.5 43.5t14 59.5t11 60t4.5 45q-15 0 -30 -4t-30 -6q-1 4 -1 11q0 18 11 23.5t25 8.5t26 8.5t15 22.5q4 28 10.5 56t12.5 56.5
t10 56.5t4 57v8t-2 8q-27 6 -50 10q-20 4 -38 8t-24 6q11 17 26 31.5t26 32.5q7 11 13 23t15 21q7 0 22.5 -5t36 -11t45 -11t49.5 -5q28 0 47 3t35.5 8t33.5 12.5t41 15.5zM305 824q21 0 34.5 -14t13.5 -34q0 -23 -14 -37t-37 -14q-19 0 -31.5 15.5t-12.5 33.5q0 20 13.5 35
t33.5 15zM194 824q21 0 34.5 -14t13.5 -34q0 -23 -14 -37t-37 -14q-19 0 -31.5 15.5t-12.5 33.5q0 20 13.5 35t33.5 15z" />
    <glyph glyph-name="Edieresis" unicode="&#xcb;" horiz-adv-x="433" 
d="M22 707q51 -8 106 -20.5t106 -12.5q19 0 38 4.5t36 10.5l30 10.5t21 4.5q9 -32 19.5 -63t25.5 -60q-39 -14 -79 -14q-33 0 -60.5 9t-48.5 19.5t-35 19.5t-20 9q-2 0 -4 -1t-4 -1q8 -28 11.5 -58.5t4.5 -61.5t0 -62t-2 -59q24 32 49 50.5t54 18.5q6 0 18 -4t23.5 -10
t20 -13.5t8.5 -14.5q0 -8 -5 -16.5t-10 -14.5q-14 -19 -22 -38.5t-19 -39.5l-8 20t-9.5 18.5t-14 13.5t-21.5 5q-16 0 -30.5 -9.5t-22.5 -23.5q-6 -13 -10.5 -48t-6.5 -75t-3 -77.5t-1 -54.5q28 10 50 25t45.5 28t52.5 22.5t71 9.5q26 0 47 -7q-5 -15 -12 -29t-12 -29
q-8 -22 -12 -47t-9 -48q-27 15 -53.5 21t-52.5 6q-32 0 -65.5 -4.5t-67.5 -10.5l-67.5 -12.5t-64.5 -10.5q4 21 16.5 38.5t18.5 37.5q15 51 21 104.5t8 108t1 108.5t-1 107q0 38 -3 64.5t-9.5 50t-15.5 48zM271 824q21 0 34.5 -14t13.5 -34q0 -23 -14 -37t-37 -14
q-19 0 -31.5 15.5t-12.5 33.5q0 20 13.5 35t33.5 15zM160 824q21 0 34.5 -14t13.5 -34q0 -23 -14 -37t-37 -14q-19 0 -31.5 15.5t-12.5 33.5q0 20 13.5 35t33.5 15z" />
    <glyph glyph-name="Odieresis" unicode="&#xd6;" horiz-adv-x="426" 
d="M198 700q70 0 113.5 -28.5t66.5 -74.5t31 -102.5t8 -113.5q0 -34 -2 -77t-9 -87t-20 -85.5t-36 -74t-56.5 -52.5t-80.5 -20q-65 0 -104 30t-61 76.5t-29 101.5t-7 105q0 40 9 82t29 76.5t52.5 57.5t79.5 26q-31 -26 -49 -48.5t-27 -47t-11 -54t-2 -68.5q0 -31 5 -66
t19.5 -64.5t39 -49t63.5 -19.5q40 0 63.5 24t35.5 59t15.5 74.5t3.5 69.5q0 42 -6 83t-23.5 73.5t-49 52t-81.5 19.5q-21 0 -39 -6.5t-35.5 -15.5l-35 -17.5t-36.5 -11.5q19 40 25.5 72.5t18.5 54.5t38.5 34t83.5 12zM268 824q21 0 34.5 -14t13.5 -34q0 -23 -14 -37t-37 -14
q-19 0 -31.5 15.5t-12.5 33.5q0 20 13.5 35t33.5 15zM157 824q21 0 34.5 -14t13.5 -34q0 -23 -14 -37t-37 -14q-19 0 -31.5 15.5t-12.5 33.5q0 20 13.5 35t33.5 15z" />
    <glyph glyph-name="Udieresis" unicode="&#xdc;" horiz-adv-x="485" 
d="M293 657q47 13 93.5 24.5t90.5 32.5q-2 -8 -3.5 -15t-6.5 -15q-20 -38 -29 -82.5t-11 -87.5q-3 -76 -5 -151.5t-5 -151.5q-2 -47 -10 -86t-27.5 -67t-53.5 -43.5t-88 -15.5q-51 0 -84.5 13.5t-54.5 36.5t-31.5 54t-14.5 66.5t-4 73v74.5q0 51 3.5 101t3.5 101q0 30 -2 52
t-7 42t-13.5 40.5t-21.5 47.5q31 3 62 3q32 0 64 -1.5t64 -1.5q-6 -14 -14 -27.5t-14 -27.5q-7 -16 -11.5 -45.5t-7.5 -66.5t-5 -77.5t-2.5 -79t-1 -70.5t-0.5 -52q0 -26 4.5 -49.5t16 -41.5t31.5 -29t50 -11q17 0 32.5 5.5t27.5 17.5q10 10 17 34.5t11.5 56.5t7 68.5
t3.5 70.5t1.5 62.5t0.5 44.5q0 36 -2.5 57t-8.5 37t-17 33t-28 46zM297 824q21 0 34.5 -14t13.5 -34q0 -23 -14 -37t-37 -14q-19 0 -31.5 15.5t-12.5 33.5q0 20 13.5 35t33.5 15zM186 824q21 0 34.5 -14t13.5 -34q0 -23 -14 -37t-37 -14q-19 0 -31.5 15.5t-12.5 33.5
q0 20 13.5 35t33.5 15z" />
    <glyph glyph-name="exclam" unicode="!" horiz-adv-x="229" 
d="M93 175l10 93.5t5 93.5q0 42 -3.5 70.5t-13 52.5t-25 47.5t-39.5 55.5q32 17 56.5 44.5t36.5 62.5l14 3q26 -47 38 -99.5t12 -105.5q0 -42 -7 -83t-15.5 -81.5t-16 -81t-7.5 -81.5zM59 56q0 -23 16.5 -39.5t39.5 -16.5t39.5 16.5t16.5 39.5t-16.5 39.5t-39.5 16.5
t-39.5 -16.5t-16.5 -39.5z" />
    <glyph glyph-name="question" unicode="?" horiz-adv-x="301" 
d="M98 171q9 48 27 85.5t35.5 70.5t31 66t13.5 73q0 13 -5.5 26t-14.5 23t-21 16t-25 6q-20 0 -35 -11t-15 -33q0 -23 16.5 -29.5t35.5 -6.5l12 -1q-4 -22 -16.5 -35.5t-35.5 -13.5q-26 0 -43.5 11.5t-27.5 30t-14 41t-4 43.5q0 25 10 46t27 37t39 25t46 9q42 0 71 -15.5
t46 -42t24.5 -60.5t7.5 -70q0 -34 -10 -60.5t-25 -48.5t-33.5 -42.5t-35.5 -42t-30.5 -47t-18.5 -58.5zM59 56q0 -23 16.5 -39.5t39.5 -16.5t39.5 16.5t16.5 39.5t-16.5 39.5t-39.5 16.5t-39.5 -16.5t-16.5 -39.5z" />
    <glyph glyph-name="period" unicode="." horiz-adv-x="218" 
d="M59 56q0 23 16.5 39.5t39.5 16.5t39.5 -16.5t16.5 -39.5t-16.5 -39.5t-39.5 -16.5t-39.5 16.5t-16.5 39.5z" />
    <glyph glyph-name="acute" unicode="&#xb4;" horiz-adv-x="276" 
d="M95 496q42 31 75 59q29 24 53 48.5t26 40.5q0 2 9.5 -6t20.5 -19t19.5 -21.5t8.5 -12.5q-4 -24 -28 -41.5t-56.5 -29t-67.5 -16.5t-60 -2z" />
    <glyph glyph-name="grave" unicode="`" horiz-adv-x="276" 
d="M252 496q-26 -3 -60.5 2t-67 16.5t-56.5 29t-28 41.5q0 2 8.5 12.5t19.5 21.5t20.5 19t9.5 6q2 -16 25.5 -40.5t52.5 -48.5q33 -28 76 -59z" />
    <glyph glyph-name="comma" unicode="," horiz-adv-x="212" 
d="M54 -130q11 45 18 84q6 33 8.5 64.5t-3.5 43.5q-2 4 10.5 6.5t29 3t31 -1.5t17.5 -6q12 -20 2.5 -47.5t-29 -56t-43 -53t-41.5 -37.5z" />
    <glyph glyph-name="agrave" unicode="&#xe0;" 
d="M151 442q45 0 69 -15t34.5 -40t12 -57.5t1.5 -66.5q0 -26 0.5 -63t4.5 -75t13 -72.5t25 -54.5q-35 1 -61 1.5t-51 2.5q-3 11 -4 22t-3 22q-14 -12 -22.5 -21.5t-18 -16.5t-22 -10.5t-33.5 -3.5q-25 0 -41.5 10t-26.5 26.5t-14 37t-4 41.5q0 49 19 73t46.5 37t57.5 22.5
t53 29.5q5 13 5 24q0 50 -51 50q-13 0 -26 -5.5t-13 -21.5q0 -8 3 -15t5 -15h-19q-29 0 -46.5 16t-17.5 47q0 26 11.5 43.5t29.5 28t40 15t44 4.5zM100 126q0 -16 8 -26t25 -10q16 0 27.5 7.5t18.5 19t10 25.5t3 28q0 24 -4 43q-15 -3 -31 -10.5t-28.5 -19t-20.5 -26
t-8 -31.5zM263 496q-26 -3 -60.5 2t-67 16.5t-56.5 29t-28 41.5q0 2 8.5 12.5t19.5 21.5t20.5 19t9.5 6q2 -16 25.5 -40.5t52.5 -48.5q33 -28 76 -59z" />
    <glyph glyph-name="aacute" unicode="&#xe1;" 
d="M151 442q45 0 69 -15t34.5 -40t12 -57.5t1.5 -66.5q0 -26 0.5 -63t4.5 -75t13 -72.5t25 -54.5q-35 1 -61 1.5t-51 2.5q-3 11 -4 22t-3 22q-14 -12 -22.5 -21.5t-18 -16.5t-22 -10.5t-33.5 -3.5q-25 0 -41.5 10t-26.5 26.5t-14 37t-4 41.5q0 49 19 73t46.5 37t57.5 22.5
t53 29.5q5 13 5 24q0 50 -51 50q-13 0 -26 -5.5t-13 -21.5q0 -8 3 -15t5 -15h-19q-29 0 -46.5 16t-17.5 47q0 26 11.5 43.5t29.5 28t40 15t44 4.5zM100 126q0 -16 8 -26t25 -10q16 0 27.5 7.5t18.5 19t10 25.5t3 28q0 24 -4 43q-15 -3 -31 -10.5t-28.5 -19t-20.5 -26
t-8 -31.5zM51 496q42 31 75 59q29 24 53 48.5t26 40.5q0 2 9.5 -6t20.5 -19t19.5 -21.5t8.5 -12.5q-4 -24 -28 -41.5t-56.5 -29t-67.5 -16.5t-60 -2z" />
    <glyph glyph-name="ograve" unicode="&#xf2;" horiz-adv-x="278" 
d="M155 450q44 0 67.5 -23t34 -57t12 -73t1.5 -70q0 -39 -2.5 -79.5t-15.5 -73.5t-40.5 -54t-77.5 -21q-42 0 -66.5 19t-37 48.5t-15.5 65t-3 67.5q0 43 0.5 87.5t13 81t42 59.5t87.5 23zM88 221q0 -13 1 -33.5t6 -40t15.5 -33.5t29.5 -14t30 12t16 29t6.5 35.5t1.5 32.5
t-0.5 37.5t-5 46.5t-16 40t-32.5 17q-22 0 -32.5 -14.5t-15 -35t-4.5 -42.5v-37zM246 496q-26 -3 -60.5 2t-67 16.5t-56.5 29t-28 41.5q0 2 8.5 12.5t19.5 21.5t20.5 19t9.5 6q2 -16 25.5 -40.5t52.5 -48.5q33 -28 76 -59z" />
    <glyph glyph-name="oacute" unicode="&#xf3;" horiz-adv-x="278" 
d="M155 450q44 0 67.5 -23t34 -57t12 -73t1.5 -70q0 -39 -2.5 -79.5t-15.5 -73.5t-40.5 -54t-77.5 -21q-42 0 -66.5 19t-37 48.5t-15.5 65t-3 67.5q0 43 0.5 87.5t13 81t42 59.5t87.5 23zM88 221q0 -13 1 -33.5t6 -40t15.5 -33.5t29.5 -14t30 12t16 29t6.5 35.5t1.5 32.5
t-0.5 37.5t-5 46.5t-16 40t-32.5 17q-22 0 -32.5 -14.5t-15 -35t-4.5 -42.5v-37zM33 496q42 31 75 59q29 24 53 48.5t26 40.5q0 2 9.5 -6t20.5 -19t19.5 -21.5t8.5 -12.5q-4 -24 -28 -41.5t-56.5 -29t-67.5 -16.5t-60 -2z" />
    <glyph glyph-name="egrave" unicode="&#xe8;" horiz-adv-x="274" 
d="M143 445q32 0 55 -10.5t37.5 -29.5t21.5 -44t7 -54q0 -26 -5.5 -49t-18.5 -40t-33 -27.5t-48 -10.5q-22 0 -37 7.5l-34 16.5q-2 -6 -3 -12.5t-1 -12.5q0 -16 6 -31.5t16.5 -27.5t24.5 -19.5t31 -7.5q21 0 30 6.5t12 16.5t4 22.5t5 24.5q23 -8 37 -26t14 -43
q0 -24 -11 -42.5t-28 -31.5t-38.5 -19.5t-43.5 -6.5q-45 0 -71.5 23t-40 57t-17.5 74t-4 73q0 35 3.5 74.5t16.5 72.5t39.5 55t73.5 22zM85 293q0 -25 17.5 -42t42.5 -17q22 0 35.5 18t13.5 38q0 25 -15.5 41.5t-41.5 16.5q-20 0 -36 -18t-16 -37zM244 496q-26 -3 -60.5 2
t-67 16.5t-56.5 29t-28 41.5q0 2 8.5 12.5t19.5 21.5t20.5 19t9.5 6q2 -16 25.5 -40.5t52.5 -48.5q33 -28 76 -59z" />
    <glyph glyph-name="eacute" unicode="&#xe9;" horiz-adv-x="274" 
d="M143 445q32 0 55 -10.5t37.5 -29.5t21.5 -44t7 -54q0 -26 -5.5 -49t-18.5 -40t-33 -27.5t-48 -10.5q-22 0 -37 7.5l-34 16.5q-2 -6 -3 -12.5t-1 -12.5q0 -16 6 -31.5t16.5 -27.5t24.5 -19.5t31 -7.5q21 0 30 6.5t12 16.5t4 22.5t5 24.5q23 -8 37 -26t14 -43
q0 -24 -11 -42.5t-28 -31.5t-38.5 -19.5t-43.5 -6.5q-45 0 -71.5 23t-40 57t-17.5 74t-4 73q0 35 3.5 74.5t16.5 72.5t39.5 55t73.5 22zM85 293q0 -25 17.5 -42t42.5 -17q22 0 35.5 18t13.5 38q0 25 -15.5 41.5t-41.5 16.5q-20 0 -36 -18t-16 -37zM31 496q42 31 75 59
q29 24 53 48.5t26 40.5q0 2 9.5 -6t20.5 -19t19.5 -21.5t8.5 -12.5q-4 -24 -28 -41.5t-56.5 -29t-67.5 -16.5t-60 -2z" />
    <glyph glyph-name="ugrave" unicode="&#xf9;" horiz-adv-x="329" 
d="M68 413q13 8 24.5 18t27.5 12q3 -12 3 -25q0 -61 -6 -121.5t-6 -121.5q0 -9 1.5 -22t5.5 -25t11.5 -21t19.5 -9q18 0 29.5 12t19 30.5t10.5 42t4.5 46.5t1 43t-0.5 32q0 17 -7.5 33.5t-16.5 30.5q28 15 51.5 35t49.5 37q5 -8 7 -16.5t2 -17.5q0 -73 -6 -146.5t-6 -147.5
q0 -29 10.5 -59t26.5 -54q-32 -1 -58 -0.5t-52 2.5q-8 8 -8 18.5v20.5l-1 9q-17 -20 -40 -38t-51 -18q-27 0 -43.5 14.5t-25 37t-11 51.5t-2.5 57.5t2 54.5t2 43q0 21 -0.5 36t-2.5 28t-7.5 27t-15.5 33l31 16t27 22zM271 496q-26 -3 -60.5 2t-67 16.5t-56.5 29t-28 41.5
q0 2 8.5 12.5t19.5 21.5t20.5 19t9.5 6q2 -16 25.5 -40.5t52.5 -48.5q33 -28 76 -59z" />
    <glyph glyph-name="uacute" unicode="&#xfa;" horiz-adv-x="329" 
d="M68 413q13 8 24.5 18t27.5 12q3 -12 3 -25q0 -61 -6 -121.5t-6 -121.5q0 -9 1.5 -22t5.5 -25t11.5 -21t19.5 -9q18 0 29.5 12t19 30.5t10.5 42t4.5 46.5t1 43t-0.5 32q0 17 -7.5 33.5t-16.5 30.5q28 15 51.5 35t49.5 37q5 -8 7 -16.5t2 -17.5q0 -73 -6 -146.5t-6 -147.5
q0 -29 10.5 -59t26.5 -54q-32 -1 -58 -0.5t-52 2.5q-8 8 -8 18.5v20.5l-1 9q-17 -20 -40 -38t-51 -18q-27 0 -43.5 14.5t-25 37t-11 51.5t-2.5 57.5t2 54.5t2 43q0 21 -0.5 36t-2.5 28t-7.5 27t-15.5 33l31 16t27 22zM58 496q42 31 75 59q29 24 53 48.5t26 40.5q0 2 9.5 -6
t20.5 -19t19.5 -21.5t8.5 -12.5q-4 -24 -28 -41.5t-56.5 -29t-67.5 -16.5t-60 -2z" />
    <glyph glyph-name="yacute" unicode="&#xfd;" horiz-adv-x="346" 
d="M208 374l43 38.5t47 32.5q14 -20 25 -42.5t11 -47.5q0 -16 -9.5 -54t-24 -88t-33 -105.5l-36.5 -105.5t-34 -88.5t-25 -53.5q-31 -51 -92 -51q-10 0 -18 4q1 26 5 51t4 51q44 5 68.5 26t24.5 69q0 9 -7.5 37t-19 65l-25.5 79l-27 79.5l-24 66.5t-16 40q-8 15 -18 28
t-18 27h153q-8 -16 -15 -32.5t-7 -34.5q0 -5 4.5 -22t12 -40.5l16 -50l16.5 -50.5l14.5 -43t9.5 -27l8 17l22.5 77.5t11.5 79.5q0 19 -16.5 38t-30.5 30zM67 496q42 31 75 59q29 24 53 48.5t26 40.5q0 2 9.5 -6t20.5 -19t19.5 -21.5t8.5 -12.5q-4 -24 -28 -41.5t-56.5 -29
t-67.5 -16.5t-60 -2z" />
    <glyph glyph-name="Agrave" unicode="&#xc0;" horiz-adv-x="501" 
d="M423 724l13 -10q-34 -26 -59.5 -42.5t-50 -29t-53 -23t-68.5 -23.5l-2 -8q-3 -11 -7 -40t-8 -62t-7 -62t-3 -41q0 -18 4 -33q22 5 44 11t41 20v46.5t0.5 58.5t2 57t5.5 42q1 4 14 12.5t29.5 17t31.5 15.5t21 9q-12 -57 -19 -109.5t-9 -111.5v-9q15 4 29 12l27.5 16.5
l27.5 16.5t29 12q0 -4 -4.5 -25.5l-9.5 -47t-10 -48t-6 -29.5q-10 5 -25 13.5t-26 8.5q-6 0 -12 -0.5t-12 -0.5q12 -66 48 -123t92 -95q-11 -13 -24.5 -24t-24.5 -24q-15 -17 -27.5 -37t-28.5 -37q-20 21 -36.5 49t-29.5 59t-22 63t-13 60q-4 25 -6 48.5t-13 46.5
q-26 -2 -50 -10t-48 -17q-4 -38 -7 -78.5t-3 -78.5q0 -21 3.5 -38.5t9.5 -33.5t13.5 -32t15.5 -35q-48 2 -95 1t-95 -1q9 17 21 35t20 36q6 15 13.5 43.5t14 59.5t11 60t4.5 45q-15 0 -30 -4t-30 -6q-1 4 -1 11q0 18 11 23.5t25 8.5t26 8.5t15 22.5q4 28 10.5 56t12.5 56.5
t10 56.5t4 57v8t-2 8q-27 6 -50 10q-20 4 -38 8t-24 6q11 17 26 31.5t26 32.5q7 11 13 23t15 21q7 0 22.5 -5t36 -11t45 -11t49.5 -5q28 0 47 3t35.5 8t33.5 12.5t41 15.5zM357 696q-26 -3 -60.5 2t-67 16.5t-56.5 29t-28 41.5q0 2 8.5 12.5t19.5 21.5t20.5 19t9.5 6
q2 -16 25.5 -40.5t52.5 -48.5q33 -28 76 -59z" />
    <glyph glyph-name="Aacute" unicode="&#xc1;" horiz-adv-x="501" 
d="M423 724l13 -10q-34 -26 -59.5 -42.5t-50 -29t-53 -23t-68.5 -23.5l-2 -8q-3 -11 -7 -40t-8 -62t-7 -62t-3 -41q0 -18 4 -33q22 5 44 11t41 20v46.5t0.5 58.5t2 57t5.5 42q1 4 14 12.5t29.5 17t31.5 15.5t21 9q-12 -57 -19 -109.5t-9 -111.5v-9q15 4 29 12l27.5 16.5
l27.5 16.5t29 12q0 -4 -4.5 -25.5l-9.5 -47t-10 -48t-6 -29.5q-10 5 -25 13.5t-26 8.5q-6 0 -12 -0.5t-12 -0.5q12 -66 48 -123t92 -95q-11 -13 -24.5 -24t-24.5 -24q-15 -17 -27.5 -37t-28.5 -37q-20 21 -36.5 49t-29.5 59t-22 63t-13 60q-4 25 -6 48.5t-13 46.5
q-26 -2 -50 -10t-48 -17q-4 -38 -7 -78.5t-3 -78.5q0 -21 3.5 -38.5t9.5 -33.5t13.5 -32t15.5 -35q-48 2 -95 1t-95 -1q9 17 21 35t20 36q6 15 13.5 43.5t14 59.5t11 60t4.5 45q-15 0 -30 -4t-30 -6q-1 4 -1 11q0 18 11 23.5t25 8.5t26 8.5t15 22.5q4 28 10.5 56t12.5 56.5
t10 56.5t4 57v8t-2 8q-27 6 -50 10q-20 4 -38 8t-24 6q11 17 26 31.5t26 32.5q7 11 13 23t15 21q7 0 22.5 -5t36 -11t45 -11t49.5 -5q28 0 47 3t35.5 8t33.5 12.5t41 15.5zM194 725q42 31 75 59q29 24 53 48.5t26 40.5q0 2 9.5 -6t20.5 -19t19.5 -21.5t8.5 -12.5
q-4 -24 -28 -41.5t-56.5 -29t-67.5 -16.5t-60 -2z" />
    <glyph glyph-name="Egrave" unicode="&#xc8;" horiz-adv-x="433" 
d="M22 707q51 -8 106 -20.5t106 -12.5q19 0 38 4.5t36 10.5l30 10.5t21 4.5q9 -32 19.5 -63t25.5 -60q-39 -14 -79 -14q-33 0 -60.5 9t-48.5 19.5t-35 19.5t-20 9q-2 0 -4 -1t-4 -1q8 -28 11.5 -58.5t4.5 -61.5t0 -62t-2 -59q24 32 49 50.5t54 18.5q6 0 18 -4t23.5 -10
t20 -13.5t8.5 -14.5q0 -8 -5 -16.5t-10 -14.5q-14 -19 -22 -38.5t-19 -39.5l-8 20t-9.5 18.5t-14 13.5t-21.5 5q-16 0 -30.5 -9.5t-22.5 -23.5q-6 -13 -10.5 -48t-6.5 -75t-3 -77.5t-1 -54.5q28 10 50 25t45.5 28t52.5 22.5t71 9.5q26 0 47 -7q-5 -15 -12 -29t-12 -29
q-8 -22 -12 -47t-9 -48q-27 15 -53.5 21t-52.5 6q-32 0 -65.5 -4.5t-67.5 -10.5l-67.5 -12.5t-64.5 -10.5q4 21 16.5 38.5t18.5 37.5q15 51 21 104.5t8 108t1 108.5t-1 107q0 38 -3 64.5t-9.5 50t-15.5 48zM288 708q-26 -3 -60.5 2t-67 16.5t-56.5 29t-28 41.5q0 2 8.5 12.5
t19.5 21.5t20.5 19t9.5 6q2 -16 25.5 -40.5t52.5 -48.5q33 -28 76 -59z" />
    <glyph glyph-name="Eacute" unicode="&#xc9;" horiz-adv-x="433" 
d="M22 707q51 -8 106 -20.5t106 -12.5q19 0 38 4.5t36 10.5l30 10.5t21 4.5q9 -32 19.5 -63t25.5 -60q-39 -14 -79 -14q-33 0 -60.5 9t-48.5 19.5t-35 19.5t-20 9q-2 0 -4 -1t-4 -1q8 -28 11.5 -58.5t4.5 -61.5t0 -62t-2 -59q24 32 49 50.5t54 18.5q6 0 18 -4t23.5 -10
t20 -13.5t8.5 -14.5q0 -8 -5 -16.5t-10 -14.5q-14 -19 -22 -38.5t-19 -39.5l-8 20t-9.5 18.5t-14 13.5t-21.5 5q-16 0 -30.5 -9.5t-22.5 -23.5q-6 -13 -10.5 -48t-6.5 -75t-3 -77.5t-1 -54.5q28 10 50 25t45.5 28t52.5 22.5t71 9.5q26 0 47 -7q-5 -15 -12 -29t-12 -29
q-8 -22 -12 -47t-9 -48q-27 15 -53.5 21t-52.5 6q-32 0 -65.5 -4.5t-67.5 -10.5l-67.5 -12.5t-64.5 -10.5q4 21 16.5 38.5t18.5 37.5q15 51 21 104.5t8 108t1 108.5t-1 107q0 38 -3 64.5t-9.5 50t-15.5 48zM141 713q42 31 75 59q29 24 53 48.5t26 40.5q0 2 9.5 -6t20.5 -19
t19.5 -21.5t8.5 -12.5q-4 -24 -28 -41.5t-56.5 -29t-67.5 -16.5t-60 -2z" />
    <glyph glyph-name="Igrave" unicode="&#xcc;" horiz-adv-x="210" 
d="M126 697l73 4q0 -17 -11.5 -36t-14.5 -36q-12 -67 -15 -136t-3 -137v-96.5t4 -82.5t13.5 -81.5t27.5 -92.5q-32 -3 -62 -3q-32 0 -64 1.5t-64 1.5q8 22 18 42t14 43q16 97 16.5 196.5t0.5 197.5q0 36 -3.5 62.5t-9 50.5t-12.5 49t-14 57zM194 733q-26 -3 -60.5 2
t-67 16.5t-56.5 29t-28 41.5q0 2 8.5 12.5t19.5 21.5t20.5 19t9.5 6q2 -16 25.5 -40.5t52.5 -48.5q33 -28 76 -59z" />
    <glyph glyph-name="Iacute" unicode="&#xcd;" horiz-adv-x="210" 
d="M126 697l73 4q0 -17 -11.5 -36t-14.5 -36q-12 -67 -15 -136t-3 -137v-96.5t4 -82.5t13.5 -81.5t27.5 -92.5q-32 -3 -62 -3q-32 0 -64 1.5t-64 1.5q8 22 18 42t14 43q16 97 16.5 196.5t0.5 197.5q0 36 -3.5 62.5t-9 50.5t-12.5 49t-14 57zM18 740q42 31 75 59
q29 24 53 48.5t26 40.5q0 2 9.5 -6t20.5 -19t19.5 -21.5t8.5 -12.5q-4 -24 -28 -41.5t-56.5 -29t-67.5 -16.5t-60 -2z" />
    <glyph glyph-name="Yacute" unicode="&#xdd;" horiz-adv-x="510" 
d="M10 694q51 3 101 3.5t101 0.5q-9 -20 -15.5 -40.5t-6.5 -41.5q0 -18 10.5 -50t25 -67t29.5 -67l23 -50q35 82 46 160.5t13 155.5q15 -2 36.5 -9.5l45 -16.5t45 -18.5t36.5 -15.5q-30 -25 -62.5 -77t-59.5 -112.5t-44.5 -119t-17.5 -97.5q0 -44 2.5 -71t8 -50t15 -47.5
l23.5 -63.5q-47 0 -93.5 1.5t-93.5 -1.5q8 27 18.5 50.5t13.5 52.5q3 35 5.5 70.5t2.5 70.5q0 16 -9.5 46.5t-24 68.5t-33 79.5l-36.5 79t-34 67t-26 44.5q-11 17 -23 32t-22 33zM194 719q42 31 75 59q29 24 53 48.5t26 40.5q0 2 9.5 -6t20.5 -19t19.5 -21.5t8.5 -12.5
q-4 -24 -28 -41.5t-56.5 -29t-67.5 -16.5t-60 -2z" />
    <glyph glyph-name="Ugrave" unicode="&#xd9;" horiz-adv-x="485" 
d="M293 657q47 13 93.5 24.5t90.5 32.5q-2 -8 -3.5 -15t-6.5 -15q-20 -38 -29 -82.5t-11 -87.5q-3 -76 -5 -151.5t-5 -151.5q-2 -47 -10 -86t-27.5 -67t-53.5 -43.5t-88 -15.5q-51 0 -84.5 13.5t-54.5 36.5t-31.5 54t-14.5 66.5t-4 73v74.5q0 51 3.5 101t3.5 101q0 30 -2 52
t-7 42t-13.5 40.5t-21.5 47.5q31 3 62 3q32 0 64 -1.5t64 -1.5q-6 -14 -14 -27.5t-14 -27.5q-7 -16 -11.5 -45.5t-7.5 -66.5t-5 -77.5t-2.5 -79t-1 -70.5t-0.5 -52q0 -26 4.5 -49.5t16 -41.5t31.5 -29t50 -11q17 0 32.5 5.5t27.5 17.5q10 10 17 34.5t11.5 56.5t7 68.5
t3.5 70.5t1.5 62.5t0.5 44.5q0 36 -2.5 57t-8.5 37t-17 33t-28 46zM349 696q-26 -3 -60.5 2t-67 16.5t-56.5 29t-28 41.5q0 2 8.5 12.5t19.5 21.5t20.5 19t9.5 6q2 -16 25.5 -40.5t52.5 -48.5q33 -28 76 -59z" />
    <glyph glyph-name="Uacute" unicode="&#xda;" horiz-adv-x="485" 
d="M293 657q47 13 93.5 24.5t90.5 32.5q-2 -8 -3.5 -15t-6.5 -15q-20 -38 -29 -82.5t-11 -87.5q-3 -76 -5 -151.5t-5 -151.5q-2 -47 -10 -86t-27.5 -67t-53.5 -43.5t-88 -15.5q-51 0 -84.5 13.5t-54.5 36.5t-31.5 54t-14.5 66.5t-4 73v74.5q0 51 3.5 101t3.5 101q0 30 -2 52
t-7 42t-13.5 40.5t-21.5 47.5q31 3 62 3q32 0 64 -1.5t64 -1.5q-6 -14 -14 -27.5t-14 -27.5q-7 -16 -11.5 -45.5t-7.5 -66.5t-5 -77.5t-2.5 -79t-1 -70.5t-0.5 -52q0 -26 4.5 -49.5t16 -41.5t31.5 -29t50 -11q17 0 32.5 5.5t27.5 17.5q10 10 17 34.5t11.5 56.5t7 68.5
t3.5 70.5t1.5 62.5t0.5 44.5q0 36 -2.5 57t-8.5 37t-17 33t-28 46zM225 725q42 31 75 59q29 24 53 48.5t26 40.5q0 2 9.5 -6t20.5 -19t19.5 -21.5t8.5 -12.5q-4 -24 -28 -41.5t-56.5 -29t-67.5 -16.5t-60 -2z" />
    <glyph glyph-name="semicolon" unicode=";" horiz-adv-x="212" 
d="M54 -130q11 45 18 84q6 33 8.5 64.5t-3.5 43.5q-2 4 10.5 6.5t29 3t31 -1.5t17.5 -6q12 -20 2.5 -47.5t-29 -56t-43 -53t-41.5 -37.5zM59 272q0 23 16.5 39.5t39.5 16.5t39.5 -16.5t16.5 -39.5t-16.5 -39.5t-39.5 -16.5t-39.5 16.5t-16.5 39.5z" />
    <glyph glyph-name="colon" unicode=":" horiz-adv-x="218" 
d="M59 272q0 23 16.5 39.5t39.5 16.5t39.5 -16.5t16.5 -39.5t-16.5 -39.5t-39.5 -16.5t-39.5 16.5t-16.5 39.5zM59 56q0 23 16.5 39.5t39.5 16.5t39.5 -16.5t16.5 -39.5t-16.5 -39.5t-39.5 -16.5t-39.5 16.5t-16.5 39.5z" />
    <glyph glyph-name="circumflex" unicode="&#x2c6;" horiz-adv-x="276" 
d="M148 649l129 -126l-133 32l-123 -32z" />
    <glyph glyph-name="acircumflex" unicode="&#xe2;" 
d="M151 442q45 0 69 -15t34.5 -40t12 -57.5t1.5 -66.5q0 -26 0.5 -63t4.5 -75t13 -72.5t25 -54.5q-35 1 -61 1.5t-51 2.5q-3 11 -4 22t-3 22q-14 -12 -22.5 -21.5t-18 -16.5t-22 -10.5t-33.5 -3.5q-25 0 -41.5 10t-26.5 26.5t-14 37t-4 41.5q0 49 19 73t46.5 37t57.5 22.5
t53 29.5q5 13 5 24q0 50 -51 50q-13 0 -26 -5.5t-13 -21.5q0 -8 3 -15t5 -15h-19q-29 0 -46.5 16t-17.5 47q0 26 11.5 43.5t29.5 28t40 15t44 4.5zM100 126q0 -16 8 -26t25 -10q16 0 27.5 7.5t18.5 19t10 25.5t3 28q0 24 -4 43q-15 -3 -31 -10.5t-28.5 -19t-20.5 -26
t-8 -31.5zM149 618l129 -126l-133 32l-123 -32z" />
    <glyph glyph-name="ecircumflex" unicode="&#xea;" horiz-adv-x="274" 
d="M143 445q32 0 55 -10.5t37.5 -29.5t21.5 -44t7 -54q0 -26 -5.5 -49t-18.5 -40t-33 -27.5t-48 -10.5q-22 0 -37 7.5l-34 16.5q-2 -6 -3 -12.5t-1 -12.5q0 -16 6 -31.5t16.5 -27.5t24.5 -19.5t31 -7.5q21 0 30 6.5t12 16.5t4 22.5t5 24.5q23 -8 37 -26t14 -43
q0 -24 -11 -42.5t-28 -31.5t-38.5 -19.5t-43.5 -6.5q-45 0 -71.5 23t-40 57t-17.5 74t-4 73q0 35 3.5 74.5t16.5 72.5t39.5 55t73.5 22zM85 293q0 -25 17.5 -42t42.5 -17q22 0 35.5 18t13.5 38q0 25 -15.5 41.5t-41.5 16.5q-20 0 -36 -18t-16 -37zM149 619l129 -126l-133 32
l-123 -32z" />
    <glyph glyph-name="ocircumflex" unicode="&#xf4;" horiz-adv-x="278" 
d="M155 450q44 0 67.5 -23t34 -57t12 -73t1.5 -70q0 -39 -2.5 -79.5t-15.5 -73.5t-40.5 -54t-77.5 -21q-42 0 -66.5 19t-37 48.5t-15.5 65t-3 67.5q0 43 0.5 87.5t13 81t42 59.5t87.5 23zM88 221q0 -13 1 -33.5t6 -40t15.5 -33.5t29.5 -14t30 12t16 29t6.5 35.5t1.5 32.5
t-0.5 37.5t-5 46.5t-16 40t-32.5 17q-22 0 -32.5 -14.5t-15 -35t-4.5 -42.5v-37zM149 619l129 -126l-133 32l-123 -32z" />
    <glyph glyph-name="ucircumflex" unicode="&#xfb;" horiz-adv-x="329" 
d="M68 413q13 8 24.5 18t27.5 12q3 -12 3 -25q0 -61 -6 -121.5t-6 -121.5q0 -9 1.5 -22t5.5 -25t11.5 -21t19.5 -9q18 0 29.5 12t19 30.5t10.5 42t4.5 46.5t1 43t-0.5 32q0 17 -7.5 33.5t-16.5 30.5q28 15 51.5 35t49.5 37q5 -8 7 -16.5t2 -17.5q0 -73 -6 -146.5t-6 -147.5
q0 -29 10.5 -59t26.5 -54q-32 -1 -58 -0.5t-52 2.5q-8 8 -8 18.5v20.5l-1 9q-17 -20 -40 -38t-51 -18q-27 0 -43.5 14.5t-25 37t-11 51.5t-2.5 57.5t2 54.5t2 43q0 21 -0.5 36t-2.5 28t-7.5 27t-15.5 33l31 16t27 22zM185 617l129 -126l-133 32l-123 -32z" />
    <glyph glyph-name="Acircumflex" unicode="&#xc2;" horiz-adv-x="501" 
d="M423 724l13 -10q-34 -26 -59.5 -42.5t-50 -29t-53 -23t-68.5 -23.5l-2 -8q-3 -11 -7 -40t-8 -62t-7 -62t-3 -41q0 -18 4 -33q22 5 44 11t41 20v46.5t0.5 58.5t2 57t5.5 42q1 4 14 12.5t29.5 17t31.5 15.5t21 9q-12 -57 -19 -109.5t-9 -111.5v-9q15 4 29 12l27.5 16.5
l27.5 16.5t29 12q0 -4 -4.5 -25.5l-9.5 -47t-10 -48t-6 -29.5q-10 5 -25 13.5t-26 8.5q-6 0 -12 -0.5t-12 -0.5q12 -66 48 -123t92 -95q-11 -13 -24.5 -24t-24.5 -24q-15 -17 -27.5 -37t-28.5 -37q-20 21 -36.5 49t-29.5 59t-22 63t-13 60q-4 25 -6 48.5t-13 46.5
q-26 -2 -50 -10t-48 -17q-4 -38 -7 -78.5t-3 -78.5q0 -21 3.5 -38.5t9.5 -33.5t13.5 -32t15.5 -35q-48 2 -95 1t-95 -1q9 17 21 35t20 36q6 15 13.5 43.5t14 59.5t11 60t4.5 45q-15 0 -30 -4t-30 -6q-1 4 -1 11q0 18 11 23.5t25 8.5t26 8.5t15 22.5q4 28 10.5 56t12.5 56.5
t10 56.5t4 57v8t-2 8q-27 6 -50 10q-20 4 -38 8t-24 6q11 17 26 31.5t26 32.5q7 11 13 23t15 21q7 0 22.5 -5t36 -11t45 -11t49.5 -5q28 0 47 3t35.5 8t33.5 12.5t41 15.5zM254 849l129 -126l-133 32l-123 -32z" />
    <glyph glyph-name="Ecircumflex" unicode="&#xca;" horiz-adv-x="433" 
d="M22 707q51 -8 106 -20.5t106 -12.5q19 0 38 4.5t36 10.5l30 10.5t21 4.5q9 -32 19.5 -63t25.5 -60q-39 -14 -79 -14q-33 0 -60.5 9t-48.5 19.5t-35 19.5t-20 9q-2 0 -4 -1t-4 -1q8 -28 11.5 -58.5t4.5 -61.5t0 -62t-2 -59q24 32 49 50.5t54 18.5q6 0 18 -4t23.5 -10
t20 -13.5t8.5 -14.5q0 -8 -5 -16.5t-10 -14.5q-14 -19 -22 -38.5t-19 -39.5l-8 20t-9.5 18.5t-14 13.5t-21.5 5q-16 0 -30.5 -9.5t-22.5 -23.5q-6 -13 -10.5 -48t-6.5 -75t-3 -77.5t-1 -54.5q28 10 50 25t45.5 28t52.5 22.5t71 9.5q26 0 47 -7q-5 -15 -12 -29t-12 -29
q-8 -22 -12 -47t-9 -48q-27 15 -53.5 21t-52.5 6q-32 0 -65.5 -4.5t-67.5 -10.5l-67.5 -12.5t-64.5 -10.5q4 21 16.5 38.5t18.5 37.5q15 51 21 104.5t8 108t1 108.5t-1 107q0 38 -3 64.5t-9.5 50t-15.5 48zM220 849l129 -126l-133 32l-123 -32z" />
    <glyph glyph-name="Ograve" unicode="&#xd2;" horiz-adv-x="426" 
d="M198 700q70 0 113.5 -28.5t66.5 -74.5t31 -102.5t8 -113.5q0 -34 -2 -77t-9 -87t-20 -85.5t-36 -74t-56.5 -52.5t-80.5 -20q-65 0 -104 30t-61 76.5t-29 101.5t-7 105q0 40 9 82t29 76.5t52.5 57.5t79.5 26q-31 -26 -49 -48.5t-27 -47t-11 -54t-2 -68.5q0 -31 5 -66
t19.5 -64.5t39 -49t63.5 -19.5q40 0 63.5 24t35.5 59t15.5 74.5t3.5 69.5q0 42 -6 83t-23.5 73.5t-49 52t-81.5 19.5q-21 0 -39 -6.5t-35.5 -15.5l-35 -17.5t-36.5 -11.5q19 40 25.5 72.5t18.5 54.5t38.5 34t83.5 12zM319 696q-26 -3 -60.5 2t-67 16.5t-56.5 29t-28 41.5
q0 2 8.5 12.5t19.5 21.5t20.5 19t9.5 6q2 -16 25.5 -40.5t52.5 -48.5q33 -28 76 -59z" />
    <glyph glyph-name="Oacute" unicode="&#xd3;" horiz-adv-x="426" 
d="M198 700q70 0 113.5 -28.5t66.5 -74.5t31 -102.5t8 -113.5q0 -34 -2 -77t-9 -87t-20 -85.5t-36 -74t-56.5 -52.5t-80.5 -20q-65 0 -104 30t-61 76.5t-29 101.5t-7 105q0 40 9 82t29 76.5t52.5 57.5t79.5 26q-31 -26 -49 -48.5t-27 -47t-11 -54t-2 -68.5q0 -31 5 -66
t19.5 -64.5t39 -49t63.5 -19.5q40 0 63.5 24t35.5 59t15.5 74.5t3.5 69.5q0 42 -6 83t-23.5 73.5t-49 52t-81.5 19.5q-21 0 -39 -6.5t-35.5 -15.5l-35 -17.5t-36.5 -11.5q19 40 25.5 72.5t18.5 54.5t38.5 34t83.5 12zM102 720q42 31 75 59q29 24 53 48.5t26 40.5q0 2 9.5 -6
t20.5 -19t19.5 -21.5t8.5 -12.5q-4 -24 -28 -41.5t-56.5 -29t-67.5 -16.5t-60 -2z" />
    <glyph glyph-name="Ocircumflex" unicode="&#xd4;" horiz-adv-x="426" 
d="M198 700q70 0 113.5 -28.5t66.5 -74.5t31 -102.5t8 -113.5q0 -34 -2 -77t-9 -87t-20 -85.5t-36 -74t-56.5 -52.5t-80.5 -20q-65 0 -104 30t-61 76.5t-29 101.5t-7 105q0 40 9 82t29 76.5t52.5 57.5t79.5 26q-31 -26 -49 -48.5t-27 -47t-11 -54t-2 -68.5q0 -31 5 -66
t19.5 -64.5t39 -49t63.5 -19.5q40 0 63.5 24t35.5 59t15.5 74.5t3.5 69.5q0 42 -6 83t-23.5 73.5t-49 52t-81.5 19.5q-21 0 -39 -6.5t-35.5 -15.5l-35 -17.5t-36.5 -11.5q19 40 25.5 72.5t18.5 54.5t38.5 34t83.5 12zM216 849l129 -126l-133 32l-123 -32z" />
    <glyph glyph-name="Ucircumflex" unicode="&#xdb;" horiz-adv-x="485" 
d="M293 657q47 13 93.5 24.5t90.5 32.5q-2 -8 -3.5 -15t-6.5 -15q-20 -38 -29 -82.5t-11 -87.5q-3 -76 -5 -151.5t-5 -151.5q-2 -47 -10 -86t-27.5 -67t-53.5 -43.5t-88 -15.5q-51 0 -84.5 13.5t-54.5 36.5t-31.5 54t-14.5 66.5t-4 73v74.5q0 51 3.5 101t3.5 101q0 30 -2 52
t-7 42t-13.5 40.5t-21.5 47.5q31 3 62 3q32 0 64 -1.5t64 -1.5q-6 -14 -14 -27.5t-14 -27.5q-7 -16 -11.5 -45.5t-7.5 -66.5t-5 -77.5t-2.5 -79t-1 -70.5t-0.5 -52q0 -26 4.5 -49.5t16 -41.5t31.5 -29t50 -11q17 0 32.5 5.5t27.5 17.5q10 10 17 34.5t11.5 56.5t7 68.5
t3.5 70.5t1.5 62.5t0.5 44.5q0 36 -2.5 57t-8.5 37t-17 33t-28 46zM246 849l129 -126l-133 32l-123 -32z" />
    <glyph glyph-name="ae" unicode="&#xe6;" horiz-adv-x="467" 
d="M331 445q32 0 55 -10.5t37.5 -29.5t21.5 -44t7 -54q0 -26 -5.5 -49t-18.5 -40t-33 -27.5t-48 -10.5q-22 0 -37 7.5l-34 16.5q-2 -6 -3 -12.5t-1 -12.5q0 -16 6 -31.5t16.5 -27.5t24.5 -19.5t31 -7.5q21 0 30 6.5t12 16.5t4 22.5t5 24.5q23 -8 37 -26t14 -43
q0 -24 -11 -42.5t-28 -31.5t-38.5 -19.5t-43.5 -6.5q-42 0 -67 19.5t-39 48.5q-21 -31 -53 -49.5t-76 -18.5q-25 0 -41.5 10t-26.5 26.5t-14 37t-4 41.5q0 49 19 73t46.5 37t57.5 22.5t53 29.5q5 13 5 24q0 50 -51 50q-13 0 -26 -5.5t-13 -21.5q0 -8 3 -15t5 -15h-19
q-29 0 -46.5 16t-17.5 47q0 26 11.5 43.5t29.5 28t40 15t44 4.5q35 0 56.5 -9.5t33.5 -25.5q14 17 36 27.5t54 10.5zM273 293q0 -25 17.5 -42t42.5 -17q22 0 35.5 18t13.5 38q0 25 -15.5 41.5t-41.5 16.5q-20 0 -36 -18t-16 -37zM100 126q0 -16 8 -26t25 -10q16 0 27.5 7.5
t18.5 19t10 25.5t3 28q0 24 -4 43q-15 -3 -31 -10.5t-28.5 -19t-20.5 -26t-8 -31.5z" />
    <glyph glyph-name="tilde" unicode="&#x2dc;" horiz-adv-x="276" 
d="M31 529q-5 4 -7.5 19t-2.5 23q0 32 13.5 53t39.5 21q17 0 32.5 -12.5t29 -27l24.5 -26t20 -9.5t15.5 22.5t10.5 70.5l66 -76q-8 -12 -18 -24.5t-20.5 -23.5t-22.5 -18t-24 -7q-19 0 -33 12.5t-27 27t-26.5 27t-31.5 12.5q-24 0 -32 -17.5t-6 -46.5z" />
    <glyph glyph-name="Atilde" unicode="&#xc3;" horiz-adv-x="501" 
d="M423 724l13 -10q-34 -26 -59.5 -42.5t-50 -29t-53 -23t-68.5 -23.5l-2 -8q-3 -11 -7 -40t-8 -62t-7 -62t-3 -41q0 -18 4 -33q22 5 44 11t41 20v46.5t0.5 58.5t2 57t5.5 42q1 4 14 12.5t29.5 17t31.5 15.5t21 9q-12 -57 -19 -109.5t-9 -111.5v-9q15 4 29 12l27.5 16.5
l27.5 16.5t29 12q0 -4 -4.5 -25.5l-9.5 -47t-10 -48t-6 -29.5q-10 5 -25 13.5t-26 8.5q-6 0 -12 -0.5t-12 -0.5q12 -66 48 -123t92 -95q-11 -13 -24.5 -24t-24.5 -24q-15 -17 -27.5 -37t-28.5 -37q-20 21 -36.5 49t-29.5 59t-22 63t-13 60q-4 25 -6 48.5t-13 46.5
q-26 -2 -50 -10t-48 -17q-4 -38 -7 -78.5t-3 -78.5q0 -21 3.5 -38.5t9.5 -33.5t13.5 -32t15.5 -35q-48 2 -95 1t-95 -1q9 17 21 35t20 36q6 15 13.5 43.5t14 59.5t11 60t4.5 45q-15 0 -30 -4t-30 -6q-1 4 -1 11q0 18 11 23.5t25 8.5t26 8.5t15 22.5q4 28 10.5 56t12.5 56.5
t10 56.5t4 57v8t-2 8q-27 6 -50 10q-20 4 -38 8t-24 6q11 17 26 31.5t26 32.5q7 11 13 23t15 21q7 0 22.5 -5t36 -11t45 -11t49.5 -5q28 0 47 3t35.5 8t33.5 12.5t41 15.5zM135 729q-5 4 -7.5 19t-2.5 23q0 32 13.5 53t39.5 21q17 0 32.5 -12.5t29 -27l24.5 -26t20 -9.5
t15.5 22.5t10.5 70.5l66 -76q-8 -12 -18 -24.5t-20.5 -23.5t-22.5 -18t-24 -7q-19 0 -33 12.5t-27 27t-26.5 27t-31.5 12.5q-24 0 -32 -17.5t-6 -46.5z" />
    <glyph glyph-name="atilde" unicode="&#xe3;" 
d="M151 442q45 0 69 -15t34.5 -40t12 -57.5t1.5 -66.5q0 -26 0.5 -63t4.5 -75t13 -72.5t25 -54.5q-35 1 -61 1.5t-51 2.5q-3 11 -4 22t-3 22q-14 -12 -22.5 -21.5t-18 -16.5t-22 -10.5t-33.5 -3.5q-25 0 -41.5 10t-26.5 26.5t-14 37t-4 41.5q0 49 19 73t46.5 37t57.5 22.5
t53 29.5q5 13 5 24q0 50 -51 50q-13 0 -26 -5.5t-13 -21.5q0 -8 3 -15t5 -15h-19q-29 0 -46.5 16t-17.5 47q0 26 11.5 43.5t29.5 28t40 15t44 4.5zM100 126q0 -16 8 -26t25 -10q16 0 27.5 7.5t18.5 19t10 25.5t3 28q0 24 -4 43q-15 -3 -31 -10.5t-28.5 -19t-20.5 -26
t-8 -31.5zM42 529q-5 4 -7.5 19t-2.5 23q0 32 13.5 53t39.5 21q17 0 32.5 -12.5t29 -27l24.5 -26t20 -9.5t15.5 22.5t10.5 70.5l66 -76q-8 -12 -18 -24.5t-20.5 -23.5t-22.5 -18t-24 -7q-19 0 -33 12.5t-27 27t-26.5 27t-31.5 12.5q-24 0 -32 -17.5t-6 -46.5z" />
    <glyph glyph-name="Otilde" unicode="&#xd5;" horiz-adv-x="426" 
d="M198 700q70 0 113.5 -28.5t66.5 -74.5t31 -102.5t8 -113.5q0 -34 -2 -77t-9 -87t-20 -85.5t-36 -74t-56.5 -52.5t-80.5 -20q-65 0 -104 30t-61 76.5t-29 101.5t-7 105q0 40 9 82t29 76.5t52.5 57.5t79.5 26q-31 -26 -49 -48.5t-27 -47t-11 -54t-2 -68.5q0 -31 5 -66
t19.5 -64.5t39 -49t63.5 -19.5q40 0 63.5 24t35.5 59t15.5 74.5t3.5 69.5q0 42 -6 83t-23.5 73.5t-49 52t-81.5 19.5q-21 0 -39 -6.5t-35.5 -15.5l-35 -17.5t-36.5 -11.5q19 40 25.5 72.5t18.5 54.5t38.5 34t83.5 12zM98 729q-5 4 -7.5 19t-2.5 23q0 32 13.5 53t39.5 21
q17 0 32.5 -12.5t29 -27l24.5 -26t20 -9.5t15.5 22.5t10.5 70.5l66 -76q-8 -12 -18 -24.5t-20.5 -23.5t-22.5 -18t-24 -7q-19 0 -33 12.5t-27 27t-26.5 27t-31.5 12.5q-24 0 -32 -17.5t-6 -46.5z" />
    <glyph glyph-name="Ntilde" unicode="&#xd1;" horiz-adv-x="480" 
d="M101 697q31 -9 54 -28t39.5 -44.5t28 -54.5t20.5 -57q20 -61 42.5 -120t48.5 -118h10q1 32 0.5 64t-0.5 64q0 27 2 54t2 53q0 32 -3 53.5t-8 39.5t-13 37.5t-17 46.5q21 1 41.5 1.5t41.5 0.5h40t40 -2q-8 -20 -17 -38.5t-14 -39.5q-11 -50 -16 -102.5t-7 -106
t-1.5 -106.5t0.5 -104q0 -29 7 -50t15.5 -36t15.5 -24t7 -12q-22 -16 -39 -37l-34 -41q-9 -3 -18 -3q-14 0 -23 10q-3 4 -16.5 36.5l-33 80l-41.5 103.5l-41.5 106l-34 88.5t-18.5 50.5h-13q-5 -57 -4.5 -113.5t0.5 -113.5q0 -45 4 -91.5t16 -89.5q5 -17 15.5 -31.5
l20.5 -29.5q-15 -2 -30.5 -3t-30.5 -1q-30 0 -59.5 2t-59.5 2q6 13 14.5 24t13.5 24q11 29 16 75t6 95.5t0 97t-1 80.5q0 23 2 47t2 47q0 24 -2.5 40t-9 28t-19 22t-32.5 22q21 27 45.5 51t45.5 51zM125 729q-5 4 -7.5 19t-2.5 23q0 32 13.5 53t39.5 21q17 0 32.5 -12.5
t29 -27l24.5 -26t20 -9.5t15.5 22.5t10.5 70.5l66 -76q-8 -12 -18 -24.5t-20.5 -23.5t-22.5 -18t-24 -7q-19 0 -33 12.5t-27 27t-26.5 27t-31.5 12.5q-24 0 -32 -17.5t-6 -46.5z" />
    <glyph glyph-name="otilde" unicode="&#xf5;" horiz-adv-x="278" 
d="M155 450q44 0 67.5 -23t34 -57t12 -73t1.5 -70q0 -39 -2.5 -79.5t-15.5 -73.5t-40.5 -54t-77.5 -21q-42 0 -66.5 19t-37 48.5t-15.5 65t-3 67.5q0 43 0.5 87.5t13 81t42 59.5t87.5 23zM88 221q0 -13 1 -33.5t6 -40t15.5 -33.5t29.5 -14t30 12t16 29t6.5 35.5t1.5 32.5
t-0.5 37.5t-5 46.5t-16 40t-32.5 17q-22 0 -32.5 -14.5t-15 -35t-4.5 -42.5v-37zM41 529q-5 4 -7.5 19t-2.5 23q0 32 13.5 53t39.5 21q17 0 32.5 -12.5t29 -27l24.5 -26t20 -9.5t15.5 22.5t10.5 70.5l66 -76q-8 -12 -18 -24.5t-20.5 -23.5t-22.5 -18t-24 -7q-19 0 -33 12.5
t-27 27t-26.5 27t-31.5 12.5q-24 0 -32 -17.5t-6 -46.5z" />
    <glyph glyph-name="ntilde" unicode="&#xf1;" horiz-adv-x="343" 
d="M135 374l18 21.5t18.5 18.5t21.5 13t28 5q26 0 48 -16t30 -42q5 -16 6.5 -48.5t1.5 -68.5t-1 -70t-1 -53q0 -34 6 -69.5t24 -64.5q-13 -5 -24.5 -5h-21.5q-24 0 -47.5 1.5t-47.5 3.5q8 19 15.5 34.5t9.5 36.5q5 49 4.5 106t-0.5 106q0 9 -2 20t-7 20.5t-12.5 15.5
t-19.5 6q-24 0 -35.5 -24.5t-16 -56.5t-4 -65t0.5 -49q0 -24 1 -42t4 -35t9 -34t16 -39q-40 -1 -77.5 -4.5t-69.5 7.5l20.5 31.5t11.5 36.5q4 42 6 82t2 82v42t-3 27t-9 25.5t-18 37.5q7 4 23 14l33.5 20t33 18t20.5 9q2 -14 2.5 -27t2.5 -27zM56 492q-5 4 -7.5 19t-2.5 23
q0 32 13.5 53t39.5 21q17 0 32.5 -12.5t29 -27l24.5 -26t20 -9.5t15.5 22.5t10.5 70.5l66 -76q-8 -12 -18 -24.5t-20.5 -23.5t-22.5 -18t-24 -7q-19 0 -33 12.5t-27 27t-26.5 27t-31.5 12.5q-24 0 -32 -17.5t-6 -46.5z" />
    <glyph glyph-name="quotesinglbase" unicode="&#x201a;" horiz-adv-x="212" 
d="M54 -130q11 45 18 84q6 33 8.5 64.5t-3.5 43.5q-2 4 10.5 6.5t29 3t31 -1.5t17.5 -6q12 -20 2.5 -47.5t-29 -56t-43 -53t-41.5 -37.5z" />
    <glyph glyph-name="quotedblbase" unicode="&#x201e;" horiz-adv-x="378" 
d="M194 -132q11 45 18 84q6 33 8.5 64.5t-3.5 43.5q-2 4 10.5 6.5t29 3t31 -1.5t17.5 -6q12 -20 2.5 -47.5t-29 -56t-43 -53t-41.5 -37.5zM54 -130q11 45 18 84q6 33 8.5 64.5t-3.5 43.5q-2 4 10.5 6.5t29 3t31 -1.5t17.5 -6q12 -20 2.5 -47.5t-29 -56t-43 -53t-41.5 -37.5z
" />
    <glyph glyph-name="ellipsis" unicode="&#x2026;" horiz-adv-x="654" 
d="M59 56q0 23 16.5 39.5t39.5 16.5t39.5 -16.5t16.5 -39.5t-16.5 -39.5t-39.5 -16.5t-39.5 16.5t-16.5 39.5zM277 56q0 23 16.5 39.5t39.5 16.5t39.5 -16.5t16.5 -39.5t-16.5 -39.5t-39.5 -16.5t-39.5 16.5t-16.5 39.5zM495 56q0 23 16.5 39.5t39.5 16.5t39.5 -16.5
t16.5 -39.5t-16.5 -39.5t-39.5 -16.5t-39.5 16.5t-16.5 39.5z" />
    <glyph glyph-name="ring" unicode="&#x2da;" horiz-adv-x="411" 
d="M306 529q0 -18 -4 -34t-12 -29t-19 -21.5t-23 -9.5q-13 -2 -24.5 3t-20.5 15.5t-14 25t-5 32.5t4.5 34t12.5 28.5t19 21t24 10.5t24.5 -3t20 -15.5t13 -25t4.5 -32.5zM275 507q0 19 -8.5 30.5t-22.5 9.5t-23 -16.5t-8 -33.5t10 -31t23 -10q13 2 21.5 16.5t7.5 34.5z" />
    <glyph glyph-name="caron" unicode="&#x2c7;" horiz-adv-x="276" 
d="M21 649l123 -32l133 32l-129 -126z" />
    <glyph glyph-name="dotlessi" unicode="&#x131;" horiz-adv-x="163" 
d="M128 446l1 -21l-4 -158t-2 -158q0 -29 11 -54.5t19 -51.5q-18 -1 -36 -1.5t-36 -0.5q-17 0 -35 0.5t-36 1.5q8 17 16.5 32.5t11.5 35.5q8 51 9.5 102t1.5 103q0 25 -12 46.5t-21 44.5l21 10t20 11q17 10 31 26t40 32z" />
    <glyph glyph-name="aring" unicode="&#xe5;" 
d="M151 442q45 0 69 -15t34.5 -40t12 -57.5t1.5 -66.5q0 -26 0.5 -63t4.5 -75t13 -72.5t25 -54.5q-35 1 -61 1.5t-51 2.5q-3 11 -4 22t-3 22q-14 -12 -22.5 -21.5t-18 -16.5t-22 -10.5t-33.5 -3.5q-25 0 -41.5 10t-26.5 26.5t-14 37t-4 41.5q0 49 19 73t46.5 37t57.5 22.5
t53 29.5q5 13 5 24q0 50 -51 50q-13 0 -26 -5.5t-13 -21.5q0 -8 3 -15t5 -15h-19q-29 0 -46.5 16t-17.5 47q0 26 11.5 43.5t29.5 28t40 15t44 4.5zM100 126q0 -16 8 -26t25 -10q16 0 27.5 7.5t18.5 19t10 25.5t3 28q0 24 -4 43q-15 -3 -31 -10.5t-28.5 -19t-20.5 -26
t-8 -31.5zM216 561q0 -18 -4 -34t-12 -29t-19 -21.5t-23 -9.5q-13 -2 -24.5 3t-20.5 15.5t-14 25t-5 32.5t4.5 34t12.5 28.5t19 21t24 10.5t24.5 -3t20 -15.5t13 -25t4.5 -32.5zM185 539q0 19 -8.5 30.5t-22.5 9.5t-23 -16.5t-8 -33.5t10 -31t23 -10q13 2 21.5 16.5
t7.5 34.5z" />
    <glyph glyph-name="Aring" unicode="&#xc5;" horiz-adv-x="501" 
d="M423 724l13 -10q-34 -26 -59.5 -42.5t-50 -29t-53 -23t-68.5 -23.5l-2 -8q-3 -11 -7 -40t-8 -62t-7 -62t-3 -41q0 -18 4 -33q22 5 44 11t41 20v46.5t0.5 58.5t2 57t5.5 42q1 4 14 12.5t29.5 17t31.5 15.5t21 9q-12 -57 -19 -109.5t-9 -111.5v-9q15 4 29 12l27.5 16.5
l27.5 16.5t29 12q0 -4 -4.5 -25.5l-9.5 -47t-10 -48t-6 -29.5q-10 5 -25 13.5t-26 8.5q-6 0 -12 -0.5t-12 -0.5q12 -66 48 -123t92 -95q-11 -13 -24.5 -24t-24.5 -24q-15 -17 -27.5 -37t-28.5 -37q-20 21 -36.5 49t-29.5 59t-22 63t-13 60q-4 25 -6 48.5t-13 46.5
q-26 -2 -50 -10t-48 -17q-4 -38 -7 -78.5t-3 -78.5q0 -21 3.5 -38.5t9.5 -33.5t13.5 -32t15.5 -35q-48 2 -95 1t-95 -1q9 17 21 35t20 36q6 15 13.5 43.5t14 59.5t11 60t4.5 45q-15 0 -30 -4t-30 -6q-1 4 -1 11q0 18 11 23.5t25 8.5t26 8.5t15 22.5q4 28 10.5 56t12.5 56.5
t10 56.5t4 57v8t-2 8q-27 6 -50 10q-20 4 -38 8t-24 6q11 17 26 31.5t26 32.5q7 11 13 23t15 21q7 0 22.5 -5t36 -11t45 -11t49.5 -5q28 0 47 3t35.5 8t33.5 12.5t41 15.5zM324 802q0 -18 -4 -34t-12 -29t-19 -21.5t-23 -9.5q-13 -2 -24.5 3t-20.5 15.5t-14 25t-5 32.5
t4.5 34t12.5 28.5t19 21t24 10.5t24.5 -3t20 -15.5t13 -25t4.5 -32.5zM293 780q0 19 -8.5 30.5t-22.5 9.5t-23 -16.5t-8 -33.5t10 -31t23 -10q13 2 21.5 16.5t7.5 34.5z" />
    <glyph glyph-name="AE" unicode="&#xc6;" horiz-adv-x="669" 
d="M423 724q13 -21 32.5 -35t42 -18t46 5t44.5 34q9 -32 19.5 -63t25.5 -60q-53 -10 -87 -11.5t-55.5 4t-33 16.5t-19.5 26t-15.5 32t-20.5 35q-25 -18 -46 -30.5t-43.5 -22.5t-48 -19l-59.5 -21l-2 -8q-3 -11 -7 -40.5l-8.5 -65.5l-9 -72t-6.5 -60q44 11 95 31v46.5
t0.5 58.5t2 57t5.5 42q1 4 14 12.5t29.5 17t31.5 15.5t21 9q-12 -57 -19 -109.5t-9 -111.5v-9q15 4 39.5 13.5l51.5 20l51.5 20t39.5 13.5q0 -4 -4.5 -25.5l-9.5 -47t-10 -48t-6 -29.5q-29 16 -47 21t-33 4t-30.5 -5t-38.5 -7q14 -87 46.5 -150t83.5 -109q16 2 29.5 5.5
t28 11.5t30 22.5t35.5 40.5q5 7 8.5 6.5t12.5 -4.5q-4 -15 -9 -29l-10 -29q-5 -22 -8.5 -47t-7.5 -48q-21 15 -41.5 21t-40.5 6q-24 0 -40.5 -4t-31 -9t-30.5 -11.5t-40 -10.5q-22 29 -37 69.5t-25.5 84.5t-16 87.5t-8.5 78.5q-20 -2 -51 -9t-55 -16q-4 -38 -7 -78.5
t-3 -78.5q0 -21 3.5 -38.5t9.5 -33.5t13.5 -32t15.5 -35q-48 2 -95 1t-95 -1q9 17 21 35t20 36q6 15 13.5 43.5t14 59.5t11 60t4.5 45q-15 0 -30 -4t-30 -6q-1 4 -1 11q0 18 11 23.5t25 8.5t26 8.5t15 22.5q2 14 6.5 34.5l10 44.5t10.5 49t8.5 47.5t4 40.5t-3.5 29
q-6 -2 -23.5 0t-36.5 5.5t-35 8t-18 7.5q11 17 26 31.5t26 32.5q7 11 13 23t15 21q7 0 22.5 -5t36 -11t45 -11t49.5 -5q45 0 82 13z" />
    <glyph glyph-name="OE" unicode="&#x152;" horiz-adv-x="696" 
d="M279 707q51 -8 106 -20.5t106 -12.5q19 0 38 4.5t36 10.5l30 10.5t21 4.5q9 -32 19.5 -63t25.5 -60q-39 -14 -79 -14q-33 0 -60.5 9t-48.5 19.5t-35 19.5t-20 9q-2 0 -4 -1t-4 -1q8 -28 11.5 -58.5t4.5 -61.5t0 -62t-2 -59q24 32 49 50.5t54 18.5q6 0 18 -4t23.5 -10
t20 -13.5t8.5 -14.5q0 -8 -5 -16.5t-10 -14.5q-14 -19 -22 -38.5t-19 -39.5l-8 20t-9.5 18.5t-14 13.5t-21.5 5q-16 0 -30.5 -9.5t-22.5 -23.5q-6 -13 -10.5 -48t-6.5 -75t-3 -77.5t-1 -54.5q28 10 50 25t45.5 28t52.5 22.5t71 9.5q26 0 47 -7q-5 -15 -12 -29t-12 -29
q-8 -22 -12 -47t-9 -48q-27 15 -53.5 21t-52.5 6q-32 0 -65.5 -4.5t-67.5 -10.5l-67.5 -12.5t-64.5 -10.5v1q-26 -8 -53 -8q-65 0 -104 30t-61 76.5t-29 101.5t-7 105q0 40 9 82t29 76.5t52.5 57.5t79.5 26q-31 -26 -49 -48.5t-27 -47t-11 -54t-2 -68.5q0 -31 5 -66
t19.5 -64.5t39 -49t63.5 -19.5q40 0 63.5 24t35.5 59t15.5 74.5t3.5 69.5q0 42 -6 83t-23.5 73.5t-49 52t-81.5 19.5q-21 0 -39 -6.5t-35.5 -15.5l-35 -17.5t-36.5 -11.5q19 40 25.5 72.5t18.5 54.5t38.5 34t83.5 12q53 0 94 -19z" />
    <glyph glyph-name="oe" unicode="&#x153;" horiz-adv-x="463" 
d="M328 448q32 0 55 -10.5t37.5 -29.5t21.5 -44t7 -54q0 -26 -5.5 -49t-18.5 -40t-33 -27.5t-48 -10.5q-22 0 -37 7.5l-34 16.5l-3 -14q0 -5 -0.5 -9.5t-0.5 -9.5q2 -30 24 -54t54 -24q21 0 30 6.5t12 16.5t4 22.5t5 24.5q23 -8 37 -26t14 -43q0 -24 -11 -42.5t-28 -31.5
t-38.5 -19.5t-43.5 -6.5q-33 0 -55.5 12.5t-37.5 33.5q-15 -20 -39.5 -32t-61.5 -12q-42 0 -66.5 19t-37 48.5t-15.5 65t-3 67.5q0 43 0.5 87.5t13 81t42 59.5t87.5 23q29 0 49 -11t33 -29q15 17 37 27.5t54 10.5zM88 221q0 -13 1 -33.5t6 -40t15.5 -33.5t29.5 -14t30 12
t16 29t6.5 35.5t1.5 32.5t-0.5 37.5t-5 46.5t-16 40t-32.5 17q-22 0 -32.5 -14.5t-15 -35t-4.5 -42.5v-37zM270 296q0 -25 17.5 -42t42.5 -17q22 0 35.5 18t13.5 38q0 25 -15.5 41.5t-41.5 16.5q-20 0 -36 -18t-16 -37z" />
    <glyph glyph-name="igrave" unicode="&#xec;" horiz-adv-x="163" 
d="M128 446l1 -21l-4 -158t-2 -158q0 -29 11 -54.5t19 -51.5q-18 -1 -36 -1.5t-36 -0.5q-17 0 -35 0.5t-36 1.5q8 17 16.5 32.5t11.5 35.5q8 51 9.5 102t1.5 103q0 25 -12 46.5t-21 44.5l21 10t20 11q17 10 31 26t40 32zM188 496q-26 -3 -60.5 2t-67 16.5t-56.5 29t-28 41.5
q0 2 8.5 12.5t19.5 21.5t20.5 19t9.5 6q2 -16 25.5 -40.5t52.5 -48.5q33 -28 76 -59z" />
    <glyph glyph-name="iacute" unicode="&#xed;" horiz-adv-x="163" 
d="M128 446l1 -21l-4 -158t-2 -158q0 -29 11 -54.5t19 -51.5q-18 -1 -36 -1.5t-36 -0.5q-17 0 -35 0.5t-36 1.5q8 17 16.5 32.5t11.5 35.5q8 51 9.5 102t1.5 103q0 25 -12 46.5t-21 44.5l21 10t20 11q17 10 31 26t40 32zM-25 496q42 31 75 59q29 24 53 48.5t26 40.5
q0 2 9.5 -6t20.5 -19t19.5 -21.5t8.5 -12.5q-4 -24 -28 -41.5t-56.5 -29t-67.5 -16.5t-60 -2z" />
    <glyph glyph-name="icircumflex" unicode="&#xee;" horiz-adv-x="163" 
d="M128 446l1 -21l-4 -158t-2 -158q0 -29 11 -54.5t19 -51.5q-18 -1 -36 -1.5t-36 -0.5q-17 0 -35 0.5t-36 1.5q8 17 16.5 32.5t11.5 35.5q8 51 9.5 102t1.5 103q0 25 -12 46.5t-21 44.5l21 10t20 11q17 10 31 26t40 32zM81 649l129 -126l-133 32l-123 -32z" />
    <glyph glyph-name="idieresis" unicode="&#xef;" horiz-adv-x="163" 
d="M128 446l1 -21l-4 -158t-2 -158q0 -29 11 -54.5t19 -51.5q-18 -1 -36 -1.5t-36 -0.5q-17 0 -35 0.5t-36 1.5q8 17 16.5 32.5t11.5 35.5q8 51 9.5 102t1.5 103q0 25 -12 46.5t-21 44.5l21 10t20 11q17 10 31 26t40 32zM137 624q21 0 34.5 -14t13.5 -34q0 -23 -14 -37
t-37 -14q-19 0 -31.5 15.5t-12.5 33.5q0 20 13.5 35t33.5 15zM26 624q21 0 34.5 -14t13.5 -34q0 -23 -14 -37t-37 -14q-19 0 -31.5 15.5t-12.5 33.5q0 20 13.5 35t33.5 15z" />
    <glyph glyph-name="Scaron" unicode="&#x160;" horiz-adv-x="490" 
d="M269 703q23 0 45 -5.5t44 -13t43 -15.5t43 -14q-10 -12 -21 -23.5t-20 -24.5q-14 -20 -24.5 -42.5t-24.5 -42.5q-11 17 -23.5 33.5t-27 29.5t-32.5 21t-41 8q-27 0 -46.5 -19.5t-19.5 -46.5q0 -32 23.5 -53.5t58 -40.5t75.5 -39t75.5 -48t58 -68.5t23.5 -100.5
q0 -55 -26 -106t-73 -80q-36 -23 -72 -26t-72.5 2t-73.5 13t-75 8q-20 0 -39 -5.5t-39 -5.5q20 26 38 52.5t32 56.5q13 30 23.5 59t26.5 51.5t40.5 36.5t65.5 14q19 0 36.5 -8t31 -21t21.5 -30t8 -36q0 -22 -12.5 -38.5t-30.5 -23.5t-37.5 -3t-33.5 24q13 4 26 15t13 28
q0 20 -12.5 30.5t-32.5 10.5q-27 0 -41.5 -20.5t-14.5 -44.5t11 -43t28.5 -33t39 -21.5t43.5 -7.5q25 0 46.5 9.5t37.5 25.5t25.5 38t9.5 47q0 43 -22.5 70.5t-55.5 48t-72.5 38t-72.5 41t-55.5 57t-22.5 86.5q0 42 10 78t31 62t54 41t79 15zM117 849l123 -32l133 32
l-129 -126z" />
    <glyph glyph-name="Zcaron" unicode="&#x17d;" horiz-adv-x="450" 
d="M109 694q28 -12 58.5 -17.5t61.5 -5.5q26 0 51.5 3.5t51.5 8t52 8t53 3.5q-13 -28 -27.5 -53.5t-25.5 -54.5q-16 -45 -37 -87t-40 -85l-40 -91l-40 -91l-30 -68.5t-25 -69.5q27 8 46 18t38 18.5t41 14.5t54 6q47 0 89 -18l-26 -42t-24 -44q-7 -15 -11 -30.5t-11 -30.5
l-33 14t-27 9.5t-28 5.5t-37 2q-27 0 -54 -4t-54 -9t-54 -9t-55 -4h-16q44 78 82 161t71 166l24 59.5t26 58.5q13 26 28 53t25 54q5 11 9.5 25.5t4.5 26.5q-20 -6 -39.5 -14.5t-39 -16t-39.5 -13t-42 -5.5q-17 0 -34.5 4.5t-31.5 14.5q18 30 29.5 63.5t25.5 65.5zM97 849
l123 -32l133 32l-129 -126z" />
    <glyph glyph-name="scaron" unicode="&#x161;" horiz-adv-x="290" 
d="M240 430q8 0 15 1t14 4q-3 -15 -8.5 -29.5t-12 -28.5l-13 -28.5t-9.5 -29.5l-20 15.5t-15.5 11t-17 6.5t-25.5 2q-14 0 -29 -9.5t-15 -24.5q0 -17 13 -27.5t32.5 -19.5l42.5 -19.5t42.5 -26.5t32.5 -41t13 -63q0 -34 -10.5 -59t-29.5 -41t-46 -23.5t-59 -7.5q-23 0 -45 7
t-39.5 20.5t-28.5 33t-11 44.5q0 31 15.5 53t49.5 22q7 0 14 -0.5t14 -1.5q-10 -8 -14.5 -19t-4.5 -23q0 -9 5.5 -15.5t13.5 -10t17 -5.5t16 -2q12 0 24 1t21 5.5t15 13.5t6 24q0 19 -13 32t-32.5 23.5t-42 21t-42 25t-32.5 36.5t-13 54q0 56 25.5 86t83.5 30q27 0 52 -8.5
t51 -8.5zM17 649l123 -32l133 32l-129 -126z" />
    <glyph glyph-name="zcaron" unicode="&#x17e;" horiz-adv-x="304" 
d="M36 429q32 -12 64.5 -16.5t66.5 -4.5q30 0 54 7.5t53 10.5q-14 -34 -35.5 -75.5l-43.5 -84.5t-40 -84.5t-25 -75.5q18 -3 41.5 -2t43.5 1q6 0 12 1.5t11 6.5q15 15 5 44q31 -14 40.5 -30t9.5 -50q0 -18 -7 -33t-19 -26t-27.5 -17.5t-33.5 -6.5q-17 0 -32.5 3.5t-31 8
t-31.5 8.5t-32 4q-20 0 -36 -9.5t-34 -14.5q12 31 29.5 70.5l37 80.5l39 79.5l35.5 68.5q0 5 1 9t1 9q0 7 -6 10q-5 5 -15 5q-27 0 -44.5 -6t-38.5 -23v10q0 31 -3.5 61.5t-8.5 60.5zM24 649l123 -32l133 32l-129 -126z" />
    <glyph glyph-name="Ydieresis" unicode="&#x178;" horiz-adv-x="510" 
d="M10 694q51 3 101 3.5t101 0.5q-9 -20 -15.5 -40.5t-6.5 -41.5q0 -18 10.5 -50t25 -67t29.5 -67l23 -50q35 82 46 160.5t13 155.5q15 -2 36.5 -9.5l45 -16.5t45 -18.5t36.5 -15.5q-30 -25 -62.5 -77t-59.5 -112.5t-44.5 -119t-17.5 -97.5q0 -44 2.5 -71t8 -50t15 -47.5
l23.5 -63.5q-47 0 -93.5 1.5t-93.5 -1.5q8 27 18.5 50.5t13.5 52.5q3 35 5.5 70.5t2.5 70.5q0 16 -9.5 46.5t-24 68.5t-33 79.5l-36.5 79t-34 67t-26 44.5q-11 17 -23 32t-22 33zM310 824q21 0 34.5 -14t13.5 -34q0 -23 -14 -37t-37 -14q-19 0 -31.5 15.5t-12.5 33.5
q0 20 13.5 35t33.5 15zM199 824q21 0 34.5 -14t13.5 -34q0 -23 -14 -37t-37 -14q-19 0 -31.5 15.5t-12.5 33.5q0 20 13.5 35t33.5 15z" />
    <glyph glyph-name="periodcentered" unicode="&#xb7;" horiz-adv-x="218" 
d="M59 272q0 23 16.5 39.5t39.5 16.5t39.5 -16.5t16.5 -39.5t-16.5 -39.5t-39.5 -16.5t-39.5 16.5t-16.5 39.5z" />
    <glyph glyph-name="guilsinglleft" unicode="&#x2039;" horiz-adv-x="154" 
d="M17 218l125 189l-51 -191l51 -185z" />
    <glyph glyph-name="guillemotleft" unicode="&#xab;" horiz-adv-x="268" 
d="M126 218l125 189l-51 -191l51 -185zM17 218l125 189l-51 -191l51 -185z" />
    <glyph glyph-name="guilsinglright" unicode="&#x203a;" horiz-adv-x="154" 
d="M17 31l51 185l-51 191l125 -189z" />
    <glyph glyph-name="guillemotright" unicode="&#xbb;" horiz-adv-x="268" 
d="M126 31l51 185l-51 191l125 -189zM17 31l51 185l-51 191l125 -189z" />
    <glyph glyph-name="cedilla" unicode="&#xb8;" horiz-adv-x="252" 
d="M173 13q-4 -17 -10 -33t-13 -30q38 -2 56 -15t18 -34q0 -17 -11.5 -34t-29 -32.5t-38 -29.5t-39 -24.5t-32 -17.5l-15.5 -8q-9 -6 -18.5 -5.5t-14.5 5t-2 11t19 13.5q13 4 26 16.5t23.5 27t16.5 28t6 21.5q0 11 -14.5 18.5t-25.5 14.5q-8 3 -3.5 11t16.5 16l2 2
q11 8 13 30.5t0 48.5h70z" />
    <glyph glyph-name="Ccedilla" unicode="&#xc7;" horiz-adv-x="409" 
d="M229 713q34 0 64 -12t52.5 -33.5t36 -50.5t13.5 -63q0 -30 -8.5 -59.5t-25.5 -53t-42.5 -38.5t-58.5 -15q-19 0 -36.5 7t-30.5 19t-21 28.5t-8 36.5q0 39 24.5 56t71.5 25q-10 -8 -14.5 -24t-4.5 -27q0 -16 12.5 -25t27.5 -9q25 0 38 20.5t13 42.5q0 41 -29 63t-67 22
q-50 0 -79 -29.5t-43 -72.5t-17.5 -91t-3.5 -85q0 -34 6.5 -72.5t22.5 -71t43.5 -54t70.5 -21.5q29 0 53 16.5t24 48.5q0 13 -4.5 21.5t-12 15.5t-16 13t-15.5 14q16 6 33 6q24 0 43 -9.5t31.5 -25.5t19.5 -37t7 -43q0 -36 -17 -70t-46 -56q-7 -5 -20.5 -11t-29.5 -11
t-30.5 -8.5t-22.5 -3.5q-44 0 -78 15.5t-58.5 41.5t-41 60t-26.5 72t-14 77t-4 74t6 83.5t18.5 98t31.5 93t45 69.5q23 22 54.5 32.5t62.5 10.5zM265 13q-4 -17 -10 -33t-13 -30q38 -2 56 -15t18 -34q0 -17 -11.5 -34t-29 -32.5t-38 -29.5t-39 -24.5t-32 -17.5l-15.5 -8
q-9 -6 -18.5 -5.5t-14.5 5t-2 11t19 13.5q13 4 26 16.5t23.5 27t16.5 28t6 21.5q0 11 -14.5 18.5t-25.5 14.5q-8 3 -3.5 11t16.5 16l2 2q11 8 13 30.5t0 48.5h70z" />
    <glyph glyph-name="ccedilla" unicode="&#xe7;" horiz-adv-x="279" 
d="M141 451q26 0 50 -7t50 -9q-1 -28 0.5 -55.5t1.5 -55.5v-15l-38 35t-47 17q-27 0 -41.5 -16.5t-22 -40t-9 -50t-1.5 -45.5q0 -15 3.5 -35.5t12 -37.5t22.5 -28.5t35 -8.5q3 -1 10 -1q19 0 34 14t15 34q0 8 -7.5 22l-11.5 22q16 -1 29.5 -9t23 -20.5t14.5 -28t5 -30.5
q0 -25 -10.5 -44.5t-27.5 -33t-38.5 -21t-44.5 -7.5q-47 0 -74 21t-41 53.5t-18 71.5t-4 75q0 33 3.5 73.5t16.5 76.5t39 60t71 24zM200 13q-4 -17 -10 -33t-13 -30q38 -2 56 -15t18 -34q0 -17 -11.5 -34t-29 -32.5t-38 -29.5t-39 -24.5t-32 -17.5l-15.5 -8
q-9 -6 -18.5 -5.5t-14.5 5t-2 11t19 13.5q13 4 26 16.5t23.5 27t16.5 28t6 21.5q0 11 -14.5 18.5t-25.5 14.5q-8 3 -3.5 11t16.5 16l2 2q11 8 13 30.5t0 48.5h70z" />
    <glyph glyph-name="slash" unicode="/" horiz-adv-x="431" 
d="M109 -121q0 -4 -13.5 -13t-31.5 -18.5t-35.5 -17.5t-24.5 -10l-5 14q15 63 43.5 140.5t65.5 161t80 169t87.5 165.5t89 149.5t84.5 121.5l26.5 34t20.5 -5l-3 -12q-12 -10 -35 -49.5t-52 -98l-62.5 -130.5l-66.5 -148l-63.5 -149.5t-53.5 -135.5t-37 -106.5t-14 -61.5z
" />
    <glyph glyph-name="parenleft" unicode="(" horiz-adv-x="284" 
d="M239 -185q-121 86 -174.5 207t-53.5 267q0 144 53.5 266t174.5 207l28 -29q-43 -43 -72.5 -95.5t-48 -110.5t-27 -118.5t-8.5 -119.5q0 -56 9 -117.5t27.5 -121t48 -113t71.5 -93.5z" />
    <glyph glyph-name="parenright" unicode=")" horiz-adv-x="284" 
d="M273 289q0 -146 -55 -267t-176 -207l-25 27q43 42 72.5 95.5t47.5 112t26 120t8 119.5q0 55 -9 117t-28 122t-48 114.5t-69 93.5l25 26q121 -85 176 -206.5t55 -266.5z" />
    <glyph glyph-name="Oslash" unicode="&#xd8;" horiz-adv-x="426" 
d="M99 -17q0 -3 -10.5 -10t-24.5 -14.5t-27.5 -14t-19.5 -7.5l-4 11q7 28 16.5 58.5t21.5 63.5q-25 48 -33 106t-8 112q0 40 9 82t29 76.5t52.5 57.5t79.5 26q-31 -26 -49 -48.5t-27 -47t-11 -54t-2 -68.5q0 -26 3.5 -53.5t11.5 -53.5q38 85 82.5 170t89.5 158
q-18 17 -43 26t-59 9q-21 0 -39 -6.5t-35.5 -15.5l-35 -17.5t-36.5 -11.5q19 40 25.5 72.5t18.5 54.5t38.5 34t83.5 12q51 0 87 -15.5t61 -41.5l9.5 13.5t9.5 12.5l20.5 26.5t15.5 -4.5l-2 -9q-6 -5 -15.5 -20t-22.5 -38q35 -48 45.5 -112.5t10.5 -130.5q0 -34 -2 -77
t-9 -87t-20 -85.5t-36 -74t-56.5 -52.5t-80.5 -20q-34 0 -61 9t-47 24q-4 -15 -4 -25zM218 113q40 0 63.5 24t35.5 59t15.5 74.5t3.5 69.5q0 45 -6.5 87t-26.5 75l-41 -89l-41 -94.5l-39 -93.5l-35 -87q28 -25 71 -25z" />
    <glyph glyph-name="hyphen" unicode="-" horiz-adv-x="329" 
d="M293 276l2 -59q-9 0 -19.5 9.5t-18.5 11.5q-18 5 -19.5 7t-0.5 2.5t-1 0t-20 -0.5q-29 0 -51 1t-43 -1.5t-42.5 -9t-48.5 -21.5q-1 13 -1.5 25.5t-0.5 25.5q0 26 1 52t1 52q11 -6 21.5 -14.5t23.5 -11.5q25 -6 39.5 -7.5t27 -1t27 2.5t40.5 2q19 0 28 1.5t16 4t15.5 6.5
t25.5 10z" />
    <glyph glyph-name="equal" unicode="=" horiz-adv-x="443" 
d="M401 90q-11 1 -19.5 9.5t-18.5 11.5q-21 7 -45 8.5t-46 1.5h-133q-29 0 -56 -9t-52 -23q-1 13 -1.5 25.5t-0.5 25.5q0 26 1 42t1 42q25 -14 45.5 -20.5t41 -9.5t43.5 -3t53 1q52 1 82.5 3.5t48.5 5.5t29.5 6.5t26.5 8.5q-2 -36 -2 -63t2 -63zM401 237q-11 1 -19.5 9.5
t-18.5 11.5q-21 7 -45 8.5t-46 1.5h-133q-29 0 -56 -9t-52 -23q-1 13 -1.5 25.5t-0.5 25.5q0 26 1 42t1 42q25 -14 45.5 -20.5t41 -9.5t43.5 -3t53 1q52 1 82.5 3.5t48.5 5.5t29.5 6.5t26.5 8.5q-2 -36 -2 -63t2 -63z" />
    <glyph glyph-name="plus" unicode="+" horiz-adv-x="443" 
d="M401 224q-17 6 -25.5 10t-15.5 6.5t-16 4t-28 1.5h-26.5t-28.5 1q1 -15 1.5 -28.5t0.5 -26.5q0 -19 1.5 -28t4 -16t6.5 -15.5t10 -25.5l-87 2l-59 -2q0 9 9.5 19.5t11.5 18.5q7 26 8.5 52.5t0.5 53.5q-26 0 -49.5 -2t-43.5 -7q-13 -3 -23.5 -11.5t-21.5 -14.5q0 26 -1 52
t-1 52q0 13 0.5 25.5t1.5 25.5q42 -23 72.5 -28t66.5 -4q1 36 -4 66t-28 72q13 1 25.5 1.5t25.5 0.5q26 0 52 -1t52 -1q-6 -11 -14.5 -21.5t-11.5 -23.5q-5 -20 -7 -43.5t-2 -49.5q26 0 52.5 1t52.5 9q8 2 18.5 11.5t19.5 9.5l-2 -59z" />
    <glyph glyph-name="quotedbl" unicode="&#x22;" horiz-adv-x="287" 
d="M261 750q-2 -66 -11.5 -133.5t-17.5 -133.5l-27 -19l-27 173l-6 42t-8 42l91 36zM119 750q-2 -66 -11.5 -133.5t-17.5 -133.5l-27 -19l-27 173l-6 42t-8 42l91 36z" />
    <glyph glyph-name="numbersign" unicode="#" horiz-adv-x="494" 
d="M474 454l-13 -80h-98l-29 -119h87l-14 -80h-93l-43 -167h-49l42 167h-99l-42 -167h-50l41 167h-100l13 80h108l29 119h-93l10 80h103l38 144h50l-36 -144h99l35 144h49l-35 -144h90zM316 374h-100l-31 -119h100z" />
    <glyph glyph-name="dollar" unicode="$" horiz-adv-x="391" 
d="M164 -2l15 29q1 18 1 36q-31 0 -59.5 11t-51 31t-35.5 47.5t-12 59.5q1 53 33.5 85t84.5 32q21 0 41 -10v47v52l-45 31.5t-39 33t-27 38.5t-9 48q1 56 35.5 84t82.5 35v20q0 12 -4.5 22.5l-8.5 20.5h79q-4 -12 -9 -23.5t-5 -24.5v-15q16 -2 34 -7.5t33 -14t24.5 -21
t9.5 -28.5q-1 -14 -14.5 -26.5t-27.5 -12.5q-19 0 -32 13t-27 25v-124q24 -14 49.5 -33.5t46.5 -48.5t33.5 -70t11.5 -99q-1 -29 -12.5 -56t-31 -49.5t-45 -39t-52.5 -25.5v-21q0 -15 3.5 -28t8.5 -24q-10 -1 -20 -1h-19q-10 0 -20 0.5t-20 0.5zM296 242q1 47 -18 79.5
t-47 57.5v-247q29 15 46.5 45t18.5 65zM85 212q-1 -43 26 -67t69 -24v20v60q3 30 -11 47t-33 19t-35 -11.5t-16 -43.5zM146 573q-1 -17 8.5 -28.5t25.5 -22.5v15l-1 92q-15 -7 -24 -23.5t-9 -32.5z" />
    <glyph glyph-name="percent" unicode="%" horiz-adv-x="681" 
d="M305 500q0 -83 -36 -127.5t-95 -44.5t-95.5 44.5t-36.5 127.5t36 127.5t96 44.5q58 0 94.5 -44t36.5 -128zM227 500q0 111 -53 111q-54 0 -54 -111t53 -111q54 0 54 111zM471 667h66l-325 -667h-66zM639 167q0 -83 -36 -128t-96 -45q-59 0 -95 45t-36 128t36.5 127.5
t94.5 44.5q59 0 95.5 -45t36.5 -127zM561 167q0 111 -54 111q-53 0 -53 -114q0 -108 53 -108q54 0 54 111z" />
    <glyph glyph-name="ampersand" unicode="&#x26;" horiz-adv-x="504" 
d="M403 298l66 -15q-19 -107 -71 -181q28 -36 56 -36q8 0 24 3v-69q-24 -7 -42 -7q-50 0 -92 53q-61 -56 -136 -56q-78 0 -119.5 46t-41.5 111q0 104 116 158q-46 73 -46 123q0 46 34.5 80.5t90.5 34.5q57 0 88.5 -33t31.5 -83q0 -84 -96 -138l90 -131q31 48 47 140z
M230 337q62 36 62 91q0 24 -13 39.5t-35 15.5q-21 0 -35.5 -14.5t-14.5 -38.5q0 -38 36 -93zM198 255q-66 -39 -66 -104q0 -41 24 -67.5t62 -26.5q51 0 88 41z" />
    <glyph glyph-name="quotesingle" unicode="'" horiz-adv-x="138" 
d="M119 750q-2 -66 -11.5 -133.5t-17.5 -133.5l-27 -19l-27 173l-6 42t-8 42l91 36z" />
    <glyph glyph-name="asterisk" unicode="*" horiz-adv-x="353" 
d="M122 435l26 37l3 65q-20 -12 -45 -31t-35 -40l-27.5 45.5l-26.5 45.5l46 -4q17 7 32.5 15.5l30.5 17.5l-28.5 16.5t-22 10.5t-23.5 5.5t-34 1.5l26.5 45.5l26.5 45.5q12 -17 18.5 -27t14 -17.5t18 -14.5t29.5 -17q-2 26 -2 37t-1.5 18.5t-6 17l-15.5 32.5q8 0 15.5 0.5
t15.5 0.5q19 0 37 -0.5t37 -0.5q-7 -15 -16 -29.5t-9 -31.5v-46l32 20.5t17 13.5q6 6 11.5 14.5l16.5 25.5q14 -22 26.5 -45t26.5 -46q-21 -3 -31.5 -3t-18 -1.5t-18 -6.5t-31.5 -18q20 -11 47 -22t50 -9q-14 -23 -26.5 -46t-26.5 -46l-19 42l-28 18t-28 17q0 -12 1 -26
t3.5 -28.5t6.5 -28t11 -23.5q-14 -1 -26.5 -1h-26.5h-26.5t-26.5 1z" />
    <glyph glyph-name="less" unicode="&#x3c;" horiz-adv-x="490" 
d="M464 0l-462 182v57l462 181v-58l-273 -151v-2l273 -151v-58z" />
    <glyph glyph-name="greater" unicode="&#x3e;" horiz-adv-x="490" 
d="M488 182l-462 -182v58l272 151v2l-272 151v58l462 -181v-57z" />
    <glyph glyph-name="bracketleft" unicode="[" horiz-adv-x="190" 
d="M33 753q21 -2 41.5 -1.5t41.5 0.5q15 0 30 -1t30 -3v-4q0 -10 -8 -15.5t-16 -8.5q-11 -14 -15.5 -31.5t-4.5 -35.5v-535q0 -32 10 -62t28 -56q-12 -5 -24.5 -6.5t-25.5 -1.5q-14 0 -29 1.5t-29 3.5q-21 11 -27 28t-6 39q0 19 2 37.5t2 38.5v385q0 47 -1 93t-1 93v21t2 21
z" />
    <glyph glyph-name="backslash" unicode="\" horiz-adv-x="440" 
d="M298 -143l15 37q-8 40 -22 79.5t-26 77.5l-42 135l-43 135l-91 286l-21.5 71t-24.5 71q-7 17 -18 29t-22 26h136q-2 -11 -5 -22t-3 -22q0 -4 10.5 -40.5t28.5 -94l40.5 -130l46.5 -148l47.5 -148.5l43 -132l32 -98.5t15.5 -46.5q14 -38 42 -65q-17 -1 -34 -1h-34
q-18 0 -35.5 0.5t-35.5 0.5z" />
    <glyph glyph-name="bracketright" unicode="]" horiz-adv-x="190" 
d="M156 753q2 -11 2 -21v-21q0 -47 -1 -93t-1 -93v-385q0 -17 2 -34.5t2 -34.5q0 -24 -5 -42.5t-28 -31.5q-14 -2 -29 -3.5t-29 -1.5q-13 0 -25.5 1.5t-24.5 6.5q18 26 28 56t10 62v535q0 18 -4.5 35.5t-15.5 31.5q-11 4 -17.5 9.5t-6.5 18.5q35 6 71 4t72 1z" />
    <glyph glyph-name="asciicircum" unicode="^" horiz-adv-x="428" 
d="M13 334l175 417h54l173 -417h-56l-144 246h-2l-144 -246h-56z" />
    <glyph glyph-name="underscore" unicode="_" horiz-adv-x="766" 
d="M734 -250h-702v48h702v-48z" />
    <glyph glyph-name="at" unicode="@" horiz-adv-x="693" 
d="M514 -111q-42 -24 -88.5 -35.5t-94.5 -11.5q-65 0 -121.5 18.5t-98 54.5t-65.5 88.5t-24 121.5q0 77 30.5 139t81.5 106t118 68t140 24q52 0 103 -14.5t91 -43.5t64.5 -72.5t24.5 -101.5q0 -51 -19.5 -93t-52.5 -72.5t-77 -47t-93 -16.5q-10 0 -19.5 1t-17 4.5t-12 11
t-4.5 20.5q0 18 4 36t7 36l-3 1q-11 -16 -30 -35t-41 -35.5t-45 -28t-44 -11.5q-14 0 -23.5 7.5t-15 18.5t-7.5 24.5t-2 24.5q0 50 20 94.5t53.5 77.5t78.5 52t95 19q23 0 44 -5.5t44 -6.5q-5 -16 -14 -49t-17 -69.5t-14 -69t-6 -47.5q0 -9 3 -17t14 -8q36 0 62.5 17
t43.5 43.5t25.5 59t8.5 63.5q0 49 -19 85t-51 60t-73 35.5t-86 11.5q-63 0 -117 -22t-93 -61t-61 -93t-22 -117q0 -58 19.5 -103t54 -75.5t81.5 -46.5t103 -16q35 0 73.5 7t70.5 23zM378 278q-27 0 -46.5 -18t-32 -43.5t-18.5 -54.5t-6 -51q0 -5 0.5 -12t2.5 -14t5.5 -11.5
t10.5 -4.5q11 0 26.5 12t30.5 28t27.5 32.5t17.5 25.5q11 23 18 49t12 50q-11 5 -23 8.5t-25 3.5z" />
    <glyph glyph-name="braceleft" unicode="{" horiz-adv-x="297" 
d="M283 -180q-39 0 -72.5 7t-58.5 24.5t-39.5 46t-14.5 72.5q0 53 3 105t3 105q0 49 -27 68t-72 22v39q48 3 73.5 21t25.5 69t-3 102t-3 102q0 45 14 74.5t38.5 47t58.5 25t74 7.5v-42q-96 -8 -96 -103q0 -50 6.5 -98.5t6.5 -98.5q0 -51 -24 -82.5t-75 -41.5v-5
q50 -9 74.5 -41t24.5 -82q0 -49 -6.5 -97.5t-6.5 -97.5q0 -52 22 -76t74 -29v-43z" />
    <glyph glyph-name="bar" unicode="|" horiz-adv-x="175" 
d="M16 -143l26 37q4 35 3 71t-1 71q0 72 0.5 142.5t0.5 142.5q0 108 -1 214t-1 214q0 16 -8 29t-15 26h138q-7 -15 -16 -29.5t-9 -31.5v-821q0 -17 6 -34t16 -31q-17 -1 -34.5 -1h-34.5t-35 0.5t-35 0.5z" />
    <glyph glyph-name="braceright" unicode="}" horiz-adv-x="297" 
d="M293 270q-26 -2 -45.5 -8t-32 -18t-18.5 -30.5t-6 -45.5q0 -51 3 -101.5t3 -101.5q0 -42 -14.5 -70t-39.5 -44.5t-58.5 -23.5t-70.5 -7v42q49 5 74.5 30t25.5 76q0 48 -7.5 94.5t-7.5 94.5q0 51 23 85.5t76 43.5v5q-50 10 -74.5 42t-24.5 82q0 51 7.5 100t7.5 100
q0 48 -27 72.5t-73 29.5v40q40 0 73.5 -6.5t58 -23.5t38 -46t13.5 -74q0 -50 -3 -99t-3 -99q0 -28 6 -46.5t18.5 -30t31.5 -17t46 -6.5v-39z" />
    <glyph glyph-name="asciitilde" unicode="~" horiz-adv-x="435" 
d="M409 397q-37 -74 -116 -74q-27 0 -51 7.5t-46 17t-43 17t-43 7.5q-29 0 -49 -15t-34 -38v59q21 34 52 53t71 19q25 0 47.5 -7.5t45 -16.5t45.5 -16.5t48 -7.5t42.5 14.5t28.5 34.5z" />
    <glyph glyph-name="Euro" unicode="&#x20ac;" horiz-adv-x="511" 
d="M489 183q-27 -195 -203 -195q-195 0 -227 250h-49v60h45q-1 10 -1 33q0 19 1 27h-45v60h49q33 261 229 261q84 0 137 -49.5t64 -139.5l-108 -14q-13 121 -93 121q-96 0 -113 -179h129v-60h-132l-1 -34q0 -19 1 -26h132v-60h-129q15 -168 111 -168q38 0 62.5 35t30.5 92z
" />
    <glyph glyph-name="dagger" unicode="&#x2020;" horiz-adv-x="511" 
d="M207 667h97v-188h147v-87h-147v-559h-97v559h-147v87h147v188z" />
    <glyph glyph-name="daggerdbl" unicode="&#x2021;" horiz-adv-x="511" 
d="M207 667h97v-188h147v-87h-147v-284h147v-87h-147v-188h-97v188h-147v87h147v284h-147v87h147v188z" />
    <glyph glyph-name="quoteright" unicode="&#x2019;" horiz-adv-x="212" 
d="M54 493q11 45 18 84q6 33 8.5 64.5t-3.5 43.5q-2 4 10.5 6.5t29 3t31 -1.5t17.5 -6q12 -20 2.5 -47.5t-29 -56t-43 -53t-41.5 -37.5z" />
    <glyph glyph-name="quotedblright" unicode="&#x201d;" horiz-adv-x="371" 
d="M187 511q11 45 18 84q6 33 8.5 64.5t-3.5 43.5q-2 4 10.5 6.5t29 3t31 -1.5t17.5 -6q12 -20 2.5 -47.5t-29 -56t-43 -53t-41.5 -37.5zM47 513q11 45 18 84q6 33 8.5 64.5t-3.5 43.5q-2 4 10.5 6.5t29 3t31 -1.5t17.5 -6q12 -20 2.5 -47.5t-29 -56t-43 -53t-41.5 -37.5z
" />
    <glyph glyph-name="quoteleft" unicode="&#x2018;" horiz-adv-x="212" 
d="M172 695q-11 -45 -18 -84q-6 -33 -9 -64.5t4 -43.5q2 -4 -10.5 -6.5t-29 -3t-31 1t-17.5 6.5q-12 19 -2.5 47t29 56.5t43 53t41.5 37.5z" />
    <glyph glyph-name="quotedblleft" unicode="&#x201c;" horiz-adv-x="371" 
d="M165 715q-11 -45 -18 -84q-6 -33 -9 -64.5t4 -43.5q2 -4 -10.5 -6.5t-29 -3t-31 1t-17.5 6.5q-12 19 -2.5 47t29 56.5t43 53t41.5 37.5zM305 713q-11 -45 -18 -84q-6 -33 -9 -64.5t4 -43.5q2 -4 -10.5 -6.5t-29 -3t-31 1t-17.5 6.5q-12 19 -2.5 47t29 56.5t43 53
t41.5 37.5z" />
    <glyph glyph-name="bullet" unicode="&#x2022;" horiz-adv-x="393" 
d="M90 187q0 24 9 45t25 37t37 25t45 9t45 -9t37 -25t25 -37t9 -45t-9 -45t-25 -37t-37 -25t-45 -9t-45 9t-37 25t-25 37t-9 45z" />
    <glyph glyph-name="endash" unicode="&#x2013;" horiz-adv-x="427" 
d="M380 276l2 -59q-9 0 -19.5 9.5t-18.5 11.5q-18 5 -19.5 7t-0.5 2.5t-1 0t-20 -0.5q-29 0 -64.5 1t-73 -1.5t-72.5 -9t-62 -21.5q-1 13 -1.5 25.5t-0.5 25.5q0 26 1 52t1 52q11 -6 21.5 -14.5t23.5 -11.5q25 -6 53.5 -7.5t57 -1t56.5 2.5t54 2q19 0 28 1.5t16 4t15.5 6.5
t25.5 10z" />
    <glyph glyph-name="emdash" unicode="&#x2014;" horiz-adv-x="576" 
d="M531 276l2 -59q-9 0 -19.5 9.5t-18.5 11.5q-18 5 -19.5 7t-0.5 2.5t-1 0t-20 -0.5q-19 0 -52.5 0.5t-74.5 0.5t-86 -1.5t-85.5 -5t-73.5 -9.5t-51 -16q-1 13 -1.5 25.5t-0.5 25.5q0 26 1 52t1 52q11 -6 21.5 -14.5t23.5 -11.5q17 -4 46.5 -6t65 -2.5t74 0t74.5 1.5
t65.5 2t46.5 1q19 0 28 1.5t16 4t15.5 6.5t25.5 10z" />
    <glyph glyph-name="trademark" unicode="&#x2122;" horiz-adv-x="573" 
d="M12 699q48 0 94.5 -0.5t94.5 -0.5h32q-1 -11 -5.5 -20l-9.5 -19q-5 -14 -8 -29t-7 -29q-4 7 -8 15t-9.5 14.5t-12.5 11t-16 4.5q-7 0 -9.5 -5.5t-3 -13t0.5 -15.5t1 -12q0 -32 -2 -64t-2 -64t3 -70t18 -66q-26 -2 -50 -2.5t-47 0.5q17 38 21 72.5t4 75.5v46.5t3 46.5
q2 11 3 23t1 24q0 10 -1.5 17.5t-14.5 7.5q-18 0 -24.5 -16t-11.5 -30q-10 11 -11.5 27t-6.5 28q-5 11 -10.5 21.5t-5.5 21.5zM260 699q8 1 17 1h17q17 0 33 -0.5t33 -0.5q-5 -11 -9 -21t-4 -22q0 -7 4 -27t9.5 -42.5t11.5 -42t10 -25.5q4 7 10.5 26t13 40.5t11 41t4.5 27.5
q0 15 -6 23.5t-10 21.5q27 2 54.5 1t53.5 -1q-6 -10 -10.5 -16t-6.5 -11.5t-3 -13t-1 -19.5q0 -20 3 -59.5t8 -82t12 -80t15 -54.5q4 -8 8.5 -14.5t8.5 -14.5q-4 -2 -8.5 -2h-9.5h-40.5t-40.5 2l13.5 20t5.5 24l-21 219q-3 -7 -10 -29l-15 -47t-14 -46t-6 -26
q0 -16 7.5 -29.5l15.5 -27.5q-14 -14 -26 -29t-18 -34h-7q-6 18 -18.5 32t-21.5 31q5 11 13 24.5t8 25.5q0 4 -5.5 26.5l-12.5 49l-13.5 49.5t-8.5 28q-2 -6 -4 -26.5l-4.5 -48t-6 -59t-8.5 -59t-11.5 -48t-14.5 -25.5q-1 0 -4.5 2t-8 5t-9 5.5t-5.5 3.5q-10 4 -19 7t-18 8
q8 13 17 24.5t14 25.5l10 21t8 21q13 42 22 86t9 88q0 24 -3.5 38.5t-17.5 34.5z" />
    <glyph glyph-name="currency" unicode="&#xa4;" horiz-adv-x="554" 
d="M155 332q0 -27 8.5 -50.5t24 -40.5t38 -27t50.5 -10q27 0 49.5 10t38.5 27.5t24.5 40.5t8.5 50t-8.5 50t-24.5 40t-38.5 27t-49.5 10q-56 0 -88.5 -36.5t-32.5 -90.5zM159 510q26 16 56 23.5t61 7.5q32 0 61.5 -7t55.5 -25l72 72l62 -62l-72 -71q17 -26 24.5 -55.5
t7.5 -60.5q0 -32 -8 -61.5t-25 -56.5l73 -71l-62 -62l-73 73q-26 -15 -55.5 -23.5t-60.5 -8.5t-60.5 7t-55.5 24l-73 -73l-60 63l71 71q-17 26 -25 56.5t-8 61.5t7.5 61t24.5 56l-70 70l60 63z" />
    <glyph glyph-name="brokenbar" unicode="&#xa6;" horiz-adv-x="175" 
d="M45 372q0 95 -1 188.5t-1 188.5q0 16 -8 29t-15 26h138l-16.5 -30t-8.5 -33v-369h-88zM16 -143l26 37q3 32 2.5 65t-0.5 65q0 66 0.5 130t0.5 130h88v-362q0 -17 6 -34t16 -31q-17 -1 -34.5 -1h-34.5t-35 0.5t-35 0.5z" />
    <glyph glyph-name="section" unicode="&#xa7;" horiz-adv-x="511" 
d="M445 549l-84 -20q-22 78 -93 78q-38 0 -57.5 -21.5t-19.5 -51.5q0 -35 20 -53t93 -48q76 -31 108.5 -64t32.5 -93q0 -78 -70 -135q76 -50 76 -138q0 -77 -53.5 -126t-142.5 -49q-163 0 -197 151l90 16q19 -90 109 -90q47 0 72 23t25 62q0 40 -24.5 60.5t-100.5 50.5
q-83 31 -118 64.5t-35 93.5q0 87 81 140q-60 47 -60 124q0 69 46 112.5t124 43.5q145 0 178 -130zM214 367q-48 -37 -48 -82q0 -27 17 -48.5t88 -48.5q34 -13 41 -16q47 36 47 80q0 23 -17 46t-128 69z" />
    <glyph glyph-name="copyright" unicode="&#xa9;" horiz-adv-x="662" 
d="M332 625q65 0 121.5 -23t98 -64t65 -97t23.5 -122q0 -65 -24 -120.5t-65.5 -96.5t-98 -64t-120.5 -23q-65 0 -121.5 23t-98.5 63.5t-66 96t-24 121.5t24 122t66 97t98.5 64t121.5 23zM333 586q-57 0 -104 -21t-81.5 -57t-53.5 -85t-19 -104t19 -103.5t53.5 -84.5t82 -57
t103.5 -21t103 21t81.5 57t53.5 84.5t19 103.5t-19 103.5t-53 85t-81.5 57.5t-103.5 21zM485 249q-7 -21 -12 -42.5t-13 -41.5q-26 -8 -55 -14.5t-56 -6.5q-38 0 -72.5 11.5t-61 33.5t-42 54t-15.5 72q0 42 16 75.5t43.5 57t63.5 35.5t76 12q26 0 53 -4t51 -15
q2 -22 5 -43.5l6 -43.5l-24 -7q-14 35 -33.5 57.5t-60.5 22.5q-28 0 -48 -12.5t-32.5 -33t-18.5 -45t-6 -48.5t7 -49.5t20.5 -47t34 -35t48.5 -13.5q38 0 60.5 23t37.5 55z" />
    <glyph glyph-name="logicalnot" unicode="&#xac;" horiz-adv-x="542" 
d="M510 72h-79v220h-429v68h508v-288z" />
    <glyph glyph-name="uni00AD" unicode="&#xad;" horiz-adv-x="350" 
d="M32 389l37 -26q24 -2 48 -2.5t48 -0.5t48.5 1t48.5 1q16 0 28.5 8t26.5 15v-138q-15 7 -29.5 16t-31.5 9q-19 0 -51 0.5t-65.5 -1t-63 -6t-44.5 -15.5q-1 17 -1 34.5v34.5t0.5 35t0.5 35z" />
    <glyph glyph-name="registered" unicode="&#xae;" horiz-adv-x="385" 
d="M193 751q35 0 66 -13.5t54 -36.5t36.5 -54t13.5 -66t-13.5 -66.5t-36.5 -54.5t-54 -36.5t-66 -13.5q-36 0 -67.5 13t-54.5 36t-36 54.5t-13 67.5q0 35 13.5 66t36.5 54t54.5 36.5t66.5 13.5zM193 721q-29 0 -53.5 -11t-42 -30.5t-27.5 -45t-10 -53.5q0 -29 10 -54
t27.5 -44.5t42 -30.5t53.5 -11q30 0 54.5 11t42 30t27.5 44.5t10 54.5q0 28 -10 53.5t-28 45t-42.5 30.5t-53.5 11zM286 491q-30 0 -46 12t-25.5 26.5t-16 26.5t-18.5 12h-5v-29q0 -10 0.5 -15t3.5 -7.5t8.5 -3t14.5 -1.5v-19h-92v19q19 1 22 5t3 22v93q0 15 -4 18.5
t-19 3.5v20h90q25 0 44.5 -10t19.5 -39q0 -17 -10 -27.5t-24 -16.5q11 -21 25.5 -40t33.5 -34zM187 590q14 0 25 8.5t11 23.5q0 14 -8 23t-22 9q-9 0 -13.5 -3t-4.5 -13v-48h12z" />
    <glyph glyph-name="degree" unicode="&#xb0;" horiz-adv-x="257" 
d="M236 689q0 -49 -28.5 -75t-75.5 -26q-46 0 -75 26t-29 75t28.5 75t75.5 26q46 0 75 -26t29 -75zM175 690q0 48 -43 48t-43 -48t42 -48q44 0 44 48z" />
    <glyph glyph-name="plusminus" unicode="&#xb1;" horiz-adv-x="353" 
d="M24 389l37 -26q18 -2 36.5 -2.5t36.5 -0.5q-1 27 -1 40t-2.5 22t-7 18.5l-14.5 30.5h138q-7 -15 -16 -29.5t-9 -31.5v-50q27 1 39.5 1.5t20.5 2.5t17 7t30 14v-138q-15 7 -29.5 16t-31.5 9h-46q1 -24 4.5 -55t17.5 -51q-17 -1 -34.5 -1h-34.5t-35 0.5t-35 0.5l26 37l3 68
q-12 0 -27 -1t-30 -3t-29 -6t-24 -11q-1 17 -1 34.5v34.5t0.5 35t0.5 35zM24 156l37 -26q17 -2 35 -2.5t36 -0.5q35 0 71 1t71 1q16 0 28.5 8t26.5 15v-138q-15 7 -29.5 16t-31.5 9q-20 0 -55 0.5t-72 -1t-69.5 -6t-47.5 -15.5q-1 17 -1 34.5v34.5t0.5 35t0.5 35z" />
    <glyph glyph-name="paragraph" unicode="&#xb6;" horiz-adv-x="511" 
d="M442 667v-834h-67v767h-49v-767h-67v446h-38q-69 0 -110 16t-68 62.5t-27 116.5q0 64 24.5 109t63 64.5t120.5 19.5h218z" />
    <glyph glyph-name="exclamdown" unicode="&#xa1;" horiz-adv-x="229" 
d="M118 523l-10 -93.5t-5 -93.5q0 -42 3.5 -71t13 -53t25 -47.5t39.5 -54.5q-32 -17 -56.5 -44.5t-36.5 -62.5l-14 -3q-26 47 -38 99.5t-12 105.5q0 42 7 83t15.5 81.5t16 81t7.5 81.5zM152 642q0 -23 -16.5 -39.5t-39.5 -16.5t-39.5 16.5t-16.5 39.5t16.5 39.5t39.5 16.5
t39.5 -16.5t16.5 -39.5z" />
    <glyph glyph-name="questiondown" unicode="&#xbf;" horiz-adv-x="301" 
d="M197 479q-9 -48 -27 -85.5t-35.5 -70.5t-31 -66t-13.5 -73q0 -13 5 -26t14 -23t21 -16t26 -6q20 0 35 11t15 33q0 23 -16.5 29.5t-35.5 6.5l-12 1q4 22 16.5 35.5t35.5 13.5q26 0 43.5 -11.5t27.5 -30t14 -41t4 -43.5q0 -25 -10 -46.5t-27 -37t-39 -24.5t-46 -9
q-42 0 -71 15.5t-46 42t-24.5 60.5t-7.5 70q0 34 10 60.5t25 48.5t33.5 42.5t35.5 42t30 47t19 58.5zM236 594q0 -23 -16.5 -39.5t-39.5 -16.5t-39.5 16.5t-16.5 39.5t16.5 39.5t39.5 16.5t39.5 -16.5t16.5 -39.5z" />
    <glyph glyph-name="Icircumflex" unicode="&#xce;" horiz-adv-x="210" 
d="M126 697l73 4q0 -17 -11.5 -36t-14.5 -36q-12 -67 -15 -136t-3 -137v-96.5t4 -82.5t13.5 -81.5t27.5 -92.5q-32 -3 -62 -3q-32 0 -64 1.5t-64 1.5q8 22 18 42t14 43q16 97 16.5 196.5t0.5 197.5q0 36 -3.5 62.5t-9 50.5t-12.5 49t-14 57zM104 849l129 -126l-133 32
l-123 -32z" />
    <glyph glyph-name="Idieresis" unicode="&#xcf;" horiz-adv-x="210" 
d="M126 697l73 4q0 -17 -11.5 -36t-14.5 -36q-12 -67 -15 -136t-3 -137v-96.5t4 -82.5t13.5 -81.5t27.5 -92.5q-32 -3 -62 -3q-32 0 -64 1.5t-64 1.5q8 22 18 42t14 43q16 97 16.5 196.5t0.5 197.5q0 36 -3.5 62.5t-9 50.5t-12.5 49t-14 57zM160 824q21 0 34.5 -14t13.5 -34
q0 -23 -14 -37t-37 -14q-19 0 -31.5 15.5t-12.5 33.5q0 20 13.5 35t33.5 15zM49 824q21 0 34.5 -14t13.5 -34q0 -23 -14 -37t-37 -14q-19 0 -31.5 15.5t-12.5 33.5q0 20 13.5 35t33.5 15z" />
    <glyph glyph-name="Eth" unicode="&#xd0;" horiz-adv-x="465" 
d="M307 317l2 -42q-10 0 -21 6.5t-20 8.5q-18 3 -20.5 4.5t-1.5 1.5h-22h-45q1 -29 8 -51t31 -55q-27 -15 -55 -29t-48 -39q14 -7 29 -8.5t30 -1.5q46 0 77 8t51.5 26.5t32.5 48.5t20 74q5 27 8.5 54.5t3.5 55.5q0 31 -3.5 68t-16.5 69t-37 54t-65 22q-36 0 -71 -9t-72 -9
q-22 0 -43 5t-41 13q13 30 27.5 56.5t25.5 58.5q17 -2 34 -6t34 -4q24 0 48.5 7t49.5 7q63 0 104.5 -24.5t66.5 -65t35.5 -91.5t10.5 -104q0 -44 -0.5 -84.5t-5 -79.5t-15 -78t-30.5 -79l-12.5 -24.5t-12 -19.5t-15.5 -17.5t-22 -16.5q-29 -19 -64 -24.5t-69 -5.5h-198
q12 20 28.5 40t24.5 41q6 15 11 38.5t8 52t5 60l4 63.5q-28 -4 -65 -18q-1 9 -1.5 18.5t-0.5 18.5q0 19 1 37.5t1 37.5q12 -5 23 -11t25 -8l19 -3q1 29 1 54.5v43.5q0 19 -6 39.5t-10 39.5q33 4 60.5 5.5t62.5 7.5v-13q0 -14 -5 -32t-7 -32q-4 -29 -6.5 -57t-3.5 -57
q8 0 17.5 0.5t21.5 0.5q20 0 30 1t17.5 3t16.5 5t27 7z" />
    <glyph glyph-name="germandbls" unicode="&#xdf;" horiz-adv-x="363" 
d="M170 647q17 0 37.5 -6t39 -20t31 -36.5t14.5 -55.5q0 -14 -4 -38t-20 -43q28 -8 44.5 -34t24.5 -59.5t10.5 -70t2.5 -66.5q0 -36 -3 -75t-14.5 -71.5t-33.5 -53.5t-59 -21q-18 0 -35.5 7.5t-31 21t-22 33t-8.5 44.5q0 15 4 30.5t11.5 28t18 20.5t24.5 9
q-3 -8 -10.5 -22.5t-7.5 -22.5q0 -19 10 -33t23 -14q5 0 7 1q15 -3 24.5 8t15 28.5t8 37t2.5 34.5q0 19 -1 44.5t-6 48.5t-15.5 39.5t-28.5 16.5q-10 0 -17.5 -4.5t-14 -12t-13 -16.5l-13.5 -18v18q0 28 1 55.5t0 55.5q30 -4 45 16t17 45.5t-9 47.5t-34 22q-22 0 -40.5 -17
t-18.5 -51v-76t-0.5 -76t-0.5 -87.5v-108.5q0 -24 1 -41t4 -32t9.5 -30.5t17.5 -36.5q-8 -5 -17 -6.5t-19 -1.5q-25 0 -55.5 -1t-54.5 6q8 18 18.5 36.5t13.5 38.5q5 37 5.5 75.5t-0.5 77t-1.5 77t1.5 76.5q-4 2 -10 3.5t-12 4t-10 6.5t-4 10q0 8 5 11.5t11 6t11 6.5t6 13
q2 17 1.5 32.5t-0.5 32.5q0 25 8 48.5t24 42.5t39.5 30.5t53.5 11.5z" />
    <glyph glyph-name="Thorn" unicode="&#xde;" horiz-adv-x="457" 
d="M126 697l73 4q0 -17 -11.5 -36t-14.5 -36q-9 -47 -12 -93q0 -15 5 -14.5t15.5 6.5l25.5 14t36 8q48 0 83.5 -17.5t59.5 -47.5t36 -69.5t12 -83.5q0 -39 -10 -77t-30.5 -68t-52.5 -48.5t-76 -18.5q-43 0 -66.5 29.5t-23.5 69.5q0 14 4 29.5t12.5 29t21.5 22.5t32 9
q34 1 51 -23t3 -67q-9 17 -19 23t-27 6q-14 0 -24 -11.5t-10 -25.5q0 -21 14.5 -32.5t34.5 -11.5q26 0 42.5 14t25.5 34t12.5 43.5t3.5 43.5q0 25 -5.5 48t-17.5 40t-32 27.5t-48 10.5q-37 0 -62.5 -20t-31.5 -53v-96.5t4 -82t13.5 -81t27.5 -92.5q-32 -3 -62 -3
q-32 0 -64 1.5t-64 1.5q8 22 18 42t14 43q16 97 16.5 196.5t0.5 197.5q0 36 -3.5 62.5t-9 50.5t-12.5 49t-14 57z" />
    <glyph glyph-name="oslash" unicode="&#xf8;" horiz-adv-x="278" 
d="M51 26q0 -2 -8.5 -6t-19.5 -8.5t-22 -8.5t-15 -5l-3 7q14 41 39 89q-7 26 -8.5 52.5t-1.5 52.5q0 43 0.5 87.5t13 81t42 59.5t87.5 23q30 0 50 -11.5t33 -29.5l22 23q11 11 16.5 16t12.5 -3l-1 -5q-6 -4 -16 -16.5t-24 -32.5q17 -36 19.5 -81.5t2.5 -82.5
q0 -39 -2.5 -79.5t-15.5 -73.5t-40.5 -54t-77.5 -21q-29 0 -48.5 8.5t-33.5 24.5q-1 -3 -1 -6zM140 100q19 0 30 12t16 29t6.5 35.5t1.5 32.5t-0.5 39t-5.5 48q-24 -39 -47 -80.5l-43 -78.5q6 -16 15.5 -26.5t26.5 -10.5zM88 221v-13q20 32 41.5 63t44.5 60q-6 8 -14.5 13.5
t-19.5 5.5q-22 0 -32.5 -14.5t-15 -35t-4.5 -42.5v-37z" />
    <glyph glyph-name="multiply" unicode="&#xd7;" horiz-adv-x="390" 
d="M18 241l44 8q19 15 36 32l34 34l-23 22.5t-29.5 26t-31 22t-28.5 11.5l48 50.5t50 47.5l8 -44q15 -20 33 -38l36 -36q22 24 34 35t19.5 20.5t13 22t13.5 38.5l49 -48.5l48 -49.5q-18 -7 -32.5 -9.5t-29.5 -17.5l-53 -54q14 -14 29 -26.5t29 -26.5q14 -13 26 -15.5
t29 -7.5l-48.5 -49l-49.5 -48q-7 18 -9.5 33t-17.5 29l-50 49l-22 -22.5t-25 -28.5t-21.5 -30.5t-10.5 -27.5l-50.5 48t-47.5 50z" />
    <glyph glyph-name="divide" unicode="&#xf7;" horiz-adv-x="427" 
d="M11 389l37 -26q22 -2 43.5 -2.5t43.5 -0.5q57 0 113.5 1t113.5 1q16 0 28.5 8t26.5 15v-138q-15 7 -29.5 16t-31.5 9q-16 0 -44.5 0.5t-63.5 0.5t-72.5 -1t-71 -3.5t-58.5 -7t-35 -11.5q-1 17 -1 34.5v34.5t0.5 35t0.5 35zM220 508q23 0 38.5 -14.5t15.5 -37.5
q0 -25 -17 -45t-43 -20q-20 0 -36 14t-16 35q0 26 15.5 47t42.5 21zM213 234q23 0 38.5 -14.5t15.5 -37.5q0 -25 -17 -45t-43 -20q-20 0 -36 14t-16 35q0 26 15.5 47t42.5 21z" />
    <glyph glyph-name="eth" unicode="&#xf0;" horiz-adv-x="308" 
d="M74 481l35 6q18 11 35 23q-12 14 -23 22t-21 8q-11 0 -20.5 -4t-9.5 -16q0 -5 1 -9.5t0 -9.5q-21 -3 -33 12.5t-12 31.5q0 26 21 41.5t47 15.5q25 0 51 -14.5t50 -38.5l11 8q11 8 17.5 18l13.5 21l48 -66q-13 -4 -27 -7.5t-26 -12.5l-3 -2q30 -42 49.5 -92t19.5 -94
q0 -30 -2 -60.5t-2 -60.5q0 -36 -4 -78.5t-18 -79.5t-42 -61.5t-76 -24.5q-51 0 -79.5 23.5t-43 59.5t-17.5 78.5t-3 80.5q0 26 4 60t16 64t34 50.5t58 20.5q21 0 34.5 -3t23.5 -9.5t17 -16.5t15 -25l1 23q0 18 -11 47t-28 57l-27 -23q-19 -17 -26 -30l-12.5 16.5
l-12.5 16.5l-11 17t-12 17zM217 175q0 14 -3 35.5t-10.5 42t-20 35.5t-31.5 15q-22 0 -35 -12t-20 -30t-9 -38t-2 -36q0 -15 1.5 -35.5t7.5 -38.5t17.5 -30.5t32.5 -12.5q20 0 34 10t22.5 25.5t12 34t3.5 35.5z" />
    <glyph glyph-name="thorn" unicode="&#xfe;" 
d="M208 427q36 0 55.5 -20.5t28.5 -50t10.5 -63t1.5 -58.5q0 -18 -0.5 -43.5t-3 -54t-8 -56.5t-17 -50.5t-29 -36.5t-43.5 -14q-50 0 -84 78v-17t-0.5 -22t-0.5 -21.5v-16.5q0 -25 1.5 -38t6 -22.5t11 -20l17.5 -29.5q-8 -5 -23.5 -15.5l-33 -21.5l-33.5 -21t-23 -14l-1 100
q1 115 3 204.5t3 157.5t0 117.5t-5 85.5t-12.5 60.5t-22.5 43.5q14 8 28 14.5t27 15.5q16 11 30 25.5t32 22.5q2 -12 3 -24t1 -24q0 -46 -1.5 -87.5t-2.5 -82.5q1 -14 1.5 -28.5t0.5 -31.5l11.5 21.5t14.5 19t22.5 13.5t34.5 5zM180 334q-23 0 -35 -16t-17.5 -38.5t-6 -46
t-0.5 -39.5q0 -12 1.5 -33t7 -41t16.5 -34.5t30 -14.5q21 0 31.5 21.5t14.5 50t3.5 56.5t-0.5 42q0 12 -1 28t-5.5 30.5t-13.5 24.5t-25 10z" />
    <glyph glyph-name="perthousand" unicode="&#x2030;" horiz-adv-x="988" 
d="M305 500q0 -83 -36 -127.5t-95 -44.5t-95 44.5t-36 127.5t36 127.5t95 44.5t95 -44t36 -128zM228 500q0 111 -54 111q-53 0 -53 -111t53 -111q54 0 54 111zM472 667h66l-326 -667h-66zM639 167q0 -83 -36 -128t-95 -45t-95 45t-36 128t36 127.5t95 44.5t95 -45t36 -127z
M562 167q0 111 -54 111q-53 0 -53 -114q0 -108 53 -108q54 0 54 111zM946 167q0 -83 -36 -128t-96 -45q-59 0 -94.5 45t-35.5 128t36 127.5t95 44.5t95 -44.5t36 -127.5zM868 167q0 111 -53 111q-54 0 -54 -114q0 -108 53 -108q54 0 54 111z" />
    <glyph glyph-name="yen" unicode="&#xa5;" horiz-adv-x="471" 
d="M83 196l38 -18q20 -2 39 -2h40h1q0 13 -1 26t-4 24l-5 19q-30 -1 -57 -3q-36 -3 -51 -11q-1 12 -1 24v25q0 12 0.5 25t0.5 25l38 -19l39 -2h11q-15 42 -32 84t-31 81l-16 47.5t-18 47.5q-11 22 -27 39t-27 38q8 4 28 6.5t43 3t45 0.5h33q21 0 41 -6q-3 -10 -8.5 -18.5
t-11.5 -16.5l-12 -16.5t-9 -18.5q16 -62 39.5 -120t36.5 -121h11q6 21 18 56.5l24 72.5t21.5 71t9.5 52q-3 7 -8.5 13l-11 12.5t-9.5 13.5t-4 15q0 4 2 12q38 -3 76.5 -1.5t76.5 1.5q5 0 12.5 -2.5t7.5 -9.5q0 -4 -6 -12t-14.5 -16.5l-16 -16.5t-10.5 -12q-5 -7 -15.5 -35.5
l-25 -68l-30 -85.5l-28.5 -88h32q17 0 30 5.5t27 10.5v-98q-15 5 -30 11t-33 6h-45q-8 -25 -12 -42.5t-4 -24.5v-3q33 1 67 1q17 0 30 6t27 11v-99q-15 5 -30 11.5t-33 6.5h-60l4 -21.5t7 -18.5q3 -6 9.5 -12.5t12.5 -13.5t10.5 -14t4.5 -12t-0.5 -8.5t-0.5 -8.5h-157
q-22 0 -37 11q12 19 27 36t26 37q1 6 1.5 12t0.5 12l-65 -4q-36 -3 -51 -11q-1 12 -1 24v25q0 13 0.5 25.5t0.5 24.5z" />
    <glyph glyph-name="onesuperior" unicode="&#xb9;" horiz-adv-x="154" 
d="M106 725q5 -89 5.5 -177.5t0.5 -176.5q0 -21 2 -36.5t6 -30t10.5 -29t15.5 -32.5q-10 -1 -19.5 -1h-19.5q-23 0 -44.5 1l-43.5 2q6 15 13 27.5t10 29.5q4 23 5.5 46.5t1.5 46.5v43.5t-1 61t-2.5 58.5t-5.5 37q-5 13 -14 23.5t-19 19.5q16 12 32.5 23t30.5 25
q9 9 16.5 20.5t19.5 18.5z" />
    <glyph glyph-name="ordmasculine" unicode="&#xba;" horiz-adv-x="278" 
d="M155 711q44 0 67.5 -23t34 -57t12 -73t1.5 -70q0 -39 -2.5 -79.5t-15.5 -73.5t-40.5 -54t-77.5 -21q-42 0 -66.5 19t-37 48.5t-15.5 65t-3 67.5q0 43 0.5 87.5t13 81t42 59.5t87.5 23zM88 482q0 -13 1 -33.5t6 -40t15.5 -33.5t29.5 -14t30 12t16 29t6.5 35.5t1.5 32.5
t-0.5 37.5t-5 46.5t-16 40t-32.5 17q-22 0 -32.5 -14.5t-15 -35t-4.5 -42.5v-37z" />
    <glyph glyph-name="twosuperior" unicode="&#xb2;" horiz-adv-x="226" 
d="M100 703q32 0 53.5 -12t34.5 -31.5t18.5 -45t5.5 -52.5q0 -2 -3 -12.5l-7 -23.5l-7.5 -24t-4.5 -13q-9 -20 -28 -44.5l-38.5 -50t-35 -50t-16.5 -44.5q23 5 42 12t44 7q34 0 60 -16q-7 -10 -19.5 -24t-15.5 -25q-4 -8 -4 -17.5t-9 -15.5q-19 11 -39 18.5t-41 7.5
q-26 0 -43 -9t-40 -17q0 39 11.5 72.5t27.5 63t35 55.5t35 51t27 50t11 52q0 20 -15 37t-35 17q-14 0 -25.5 -8.5t-11.5 -24.5q0 -18 12.5 -22.5t26.5 -4.5l9 -1q-3 -17 -12.5 -27t-26.5 -10q-20 0 -33 9t-20.5 22.5t-10.5 30.5t-3 33q0 18 7.5 34t20 28t29 18.5t34.5 6.5z
" />
    <glyph glyph-name="threesuperior" unicode="&#xb3;" horiz-adv-x="228" 
d="M116 713q22 0 40 -9.5t31 -24.5t19.5 -34.5t6.5 -40.5q0 -22 -4 -36.5t-11.5 -26.5t-18 -23.5t-22.5 -26.5l28 -25t19.5 -23t11.5 -27.5t4 -39.5q0 -27 -7.5 -53.5t-22.5 -47.5t-37.5 -34t-53.5 -13q-43 0 -67.5 23.5t-24.5 66.5q0 31 21.5 54t52.5 23q12 0 20 -9.5
t13 -19.5q-7 -1 -14.5 -1.5t-14 -2.5t-11 -7.5t-4.5 -15.5q0 -13 11 -21.5t23 -8.5q14 0 24.5 6.5t17 17t10 23.5t3.5 25q0 34 -7.5 50t-21 23.5t-32.5 10.5t-41 11q1 5 1 11.5v11.5q9 3 19.5 4.5t21 3.5t20 6t16.5 12q10 11 16 27.5t6 30.5q0 21 -11.5 37.5t-34.5 16.5
q-13 0 -24 -7t-11 -21q0 -18 12.5 -21t26.5 -3v-9q-8 -9 -19.5 -15t-24.5 -6q-11 0 -20.5 6t-16.5 15.5t-11.5 20.5t-4.5 21q0 43 28 69t70 26z" />
    <glyph glyph-name="ordfeminine" unicode="&#xaa;" 
d="M151 707q45 0 69 -15t34.5 -40t12 -57.5t1.5 -66.5q0 -26 0.5 -63t4.5 -75t13 -72.5t25 -54.5q-35 1 -61 1.5t-51 2.5q-3 11 -4 22t-3 22q-14 -12 -22.5 -21.5t-18 -16.5t-22 -10.5t-33.5 -3.5q-25 0 -41.5 10t-26.5 26.5t-14 37t-4 41.5q0 49 19 73t46.5 37t57.5 22.5
t53 29.5q5 13 5 24q0 50 -51 50q-13 0 -26 -5.5t-13 -21.5q0 -8 3 -15t5 -15h-19q-29 0 -46.5 16t-17.5 47q0 26 11.5 43.5t29.5 28t40 15t44 4.5zM100 391q0 -16 8 -26t25 -10q16 0 27.5 7.5t18.5 19t10 25.5t3 28q0 24 -4 43q-15 -3 -31 -10.5t-28.5 -19t-20.5 -26
t-8 -31.5z" />
    <glyph glyph-name="onequarter" unicode="&#xbc;" horiz-adv-x="699" 
d="M135 699q5 -89 5.5 -177.5t0.5 -176.5q0 -21 2 -36.5t6 -30t10.5 -29t15.5 -32.5q-10 -1 -19.5 -1h-19.5q-23 0 -44.5 1l-43.5 2q6 15 13 27.5t10 29.5q4 23 5.5 46.5t1.5 46.5v43.5t-1 61t-2.5 58.5t-5.5 37q-5 13 -14 23.5t-19 19.5q16 12 32.5 23t30.5 25
q9 9 16.5 20.5t19.5 18.5zM515 457q26 5 52.5 13t50.5 22q-4 -21 -18.5 -59.5t-33 -80l-36.5 -78.5t-29 -55q-6 -11 -12 -19.5t-6 -21.5q7 1 18.5 3.5t22.5 7t19.5 10.5t8.5 15t-4.5 18t-4.5 20q0 7 2 10q9 23 21.5 44.5t21.5 45.5q6 17 11 33.5t15 32.5q1 -4 1 -8v-9
q0 -14 -2 -27.5t-3 -27.5q-1 -26 -2.5 -53t-1.5 -53q0 -6 0.5 -12t4.5 -11q15 -2 30 -1.5t30 -4.5q-8 -19 -15 -38.5t-11 -39.5q-7 0 -13.5 1.5t-13.5 1.5q-14 0 -16.5 -8t-2.5 -19q0 -32 7 -51t19 -48h-110q6 11 13.5 20.5t10.5 22.5q5 20 5.5 41t1.5 41l-8 7l-12 1
q-23 0 -44 -5t-44 -8l4 31t10 30q32 62 48 129t15 137zM217 35q0 -3 -16.5 -9.5t-37.5 -14t-41.5 -13.5t-28.5 -7l-6 11q18 46 51.5 103.5t77 119t94.5 124.5t104 122t105.5 110.5t99.5 89.5l18.5 15.5t13.5 10t11.5 3t12.5 -6.5l-3 -9q-14 -8 -41.5 -37.5t-62 -72.5
l-74 -96l-78.5 -109l-75 -110.5t-63.5 -100t-44 -78t-16.5 -45.5z" />
    <glyph glyph-name="onehalf" unicode="&#xbd;" horiz-adv-x="737" 
d="M135 699q5 -89 5.5 -177.5t0.5 -176.5q0 -21 2 -36.5t6 -30t10.5 -29t15.5 -32.5q-10 -1 -19.5 -1h-19.5q-23 0 -44.5 1l-43.5 2q6 15 13 27.5t10 29.5q4 23 5.5 46.5t1.5 46.5v43.5t-1 61t-2.5 58.5t-5.5 37q-5 13 -14 23.5t-19 19.5q16 12 32.5 23t30.5 25
q9 9 16.5 20.5t19.5 18.5zM217 35q0 -3 -16.5 -9.5t-37.5 -14t-41.5 -13.5t-28.5 -7l-6 11q18 46 51.5 103.5t77 119t94.5 124.5t104 122t105.5 110.5t99.5 89.5l18.5 15.5t13.5 10t11.5 3t12.5 -6.5l-3 -9q-14 -8 -41.5 -37.5t-62 -72.5l-74 -96l-78.5 -109l-75 -110.5
t-63.5 -100t-44 -78t-16.5 -45.5zM588 469q32 0 53.5 -12t34.5 -31.5t18.5 -45t5.5 -52.5q0 -2 -3 -12.5l-7 -23.5l-7.5 -24t-4.5 -13q-9 -20 -28 -44.5l-38.5 -50t-35 -50t-16.5 -44.5q23 5 42 12t44 7q34 0 60 -16q-7 -10 -19.5 -24t-15.5 -25q-4 -8 -4 -17.5t-9 -15.5
q-19 11 -39 18.5t-41 7.5q-26 0 -43 -9t-40 -17q0 39 11.5 72.5t27.5 63t35 55.5t35.5 51t27 50t10.5 52q0 20 -15 37t-35 17q-14 0 -25.5 -8.5t-11.5 -24.5q0 -18 12.5 -22.5t26.5 -4.5l9 -1q-3 -17 -12.5 -27t-26.5 -10q-20 0 -33 9t-20.5 22.5t-10.5 30.5t-3 33
q0 18 7.5 34t20 28t29 18.5t34.5 6.5z" />
    <glyph glyph-name="threequarters" unicode="&#xbe;" horiz-adv-x="699" 
d="M515 457q26 5 52.5 13t50.5 22q-4 -21 -18.5 -59.5t-33 -80l-36.5 -78.5t-29 -55q-6 -11 -12 -19.5t-6 -21.5q7 1 18.5 3.5t22.5 7t19.5 10.5t8.5 15t-4.5 18t-4.5 20q0 7 2 10q9 23 21.5 44.5t21.5 45.5q6 17 11 33.5t15 32.5q1 -4 1 -8v-9q0 -14 -2 -27.5t-3 -27.5
q-1 -26 -2.5 -53t-1.5 -53q0 -6 0.5 -12t4.5 -11q15 -2 30 -1.5t30 -4.5q-8 -19 -15 -38.5t-11 -39.5q-7 0 -13.5 1.5t-13.5 1.5q-14 0 -16.5 -8t-2.5 -19q0 -32 7 -51t19 -48h-110q6 11 13.5 20.5t10.5 22.5q5 20 5.5 41t1.5 41l-8 7l-12 1q-23 0 -44 -5t-44 -8l4 31t10 30
q32 62 48 129t15 137zM217 35q0 -3 -16.5 -9.5t-37.5 -14t-41.5 -13.5t-28.5 -7l-6 11q18 46 51.5 103.5t77 119t94.5 124.5t104 122t105.5 110.5t99.5 89.5l18.5 15.5t13.5 10t11.5 3t12.5 -6.5l-3 -9q-14 -8 -41.5 -37.5t-62 -72.5l-74 -96l-78.5 -109l-75 -110.5
t-63.5 -100t-44 -78t-16.5 -45.5zM116 713q22 0 40 -9.5t31 -24.5t19.5 -34.5t6.5 -40.5q0 -22 -4 -36.5t-11.5 -26.5t-18 -23.5t-22.5 -26.5l28 -25t19.5 -23t11.5 -27.5t4 -39.5q0 -27 -7.5 -53.5t-22.5 -47.5t-37.5 -34t-53.5 -13q-43 0 -67.5 23.5t-24.5 66.5
q0 31 21.5 54t52.5 23q12 0 20 -9.5t13 -19.5q-7 -1 -14.5 -1.5t-14 -2.5t-11 -7.5t-4.5 -15.5q0 -13 11 -21.5t23 -8.5q14 0 24.5 6.5t17 17t10 23.5t3.5 25q0 34 -7.5 50t-21 23.5t-32.5 10.5t-41 11q1 5 1 11.5v11.5q9 3 19.5 4.5t21 3.5t20 6t16.5 12q10 11 16 27.5
t6 30.5q0 21 -11.5 37.5t-34.5 16.5q-13 0 -24 -7t-11 -21q0 -18 12.5 -21t26.5 -3v-9q-8 -9 -19.5 -15t-24.5 -6q-11 0 -20.5 6t-16.5 15.5t-11.5 20.5t-4.5 21q0 43 28 69t70 26z" />
    <glyph glyph-name="a" unicode="a" 
d="M151 442q45 0 69 -15t34.5 -40t12 -57.5t1.5 -66.5q0 -26 0.5 -63t4.5 -75t13 -72.5t25 -54.5q-35 1 -61 1.5t-51 2.5q-3 11 -4 22t-3 22q-14 -12 -22.5 -21.5t-18 -16.5t-22 -10.5t-33.5 -3.5q-25 0 -41.5 10t-26.5 26.5t-14 37t-4 41.5q0 49 19 73t46.5 37t57.5 22.5
t53 29.5q5 13 5 24q0 50 -51 50q-13 0 -26 -5.5t-13 -21.5q0 -8 3 -15t5 -15h-19q-29 0 -46.5 16t-17.5 47q0 26 11.5 43.5t29.5 28t40 15t44 4.5zM100 126q0 -16 8 -26t25 -10q16 0 27.5 7.5t18.5 19t10 25.5t3 28q0 24 -4 43q-15 -3 -31 -10.5t-28.5 -19t-20.5 -26
t-8 -31.5z" />
    </font>
</defs>
</svg>
